<?xml version="1.0" encoding="UTF-8" standalone="no"?>
<!-- Generator: Adobe Illustrator 23.0.3, SVG Export Plug-In . SVG Version: 6.00 Build 0)  -->

<svg
   version="1.1"
   id="Layer_1"
   x="0px"
   y="0px"
   viewBox="0 0 264 280"
   style="enable-background:new 0 0 264 280;"
   xml:space="preserve"
   sodipodi:docname="DailynAvatar.svg"
   inkscape:version="1.3.2 (091e20e, 2023-11-25)"
   xmlns:inkscape="http://www.inkscape.org/namespaces/inkscape"
   xmlns:sodipodi="http://sodipodi.sourceforge.net/DTD/sodipodi-0.dtd"
   xmlns="http://www.w3.org/2000/svg"
   xmlns:svg="http://www.w3.org/2000/svg"><defs
   id="defs28" /><sodipodi:namedview
   id="namedview28"
   pagecolor="#ffffff"
   bordercolor="#666666"
   borderopacity="1.0"
   inkscape:showpageshadow="2"
   inkscape:pageopacity="0.0"
   inkscape:pagecheckerboard="0"
   inkscape:deskcolor="#d1d1d1"
   inkscape:zoom="2.6212121"
   inkscape:cx="131.80925"
   inkscape:cy="139.82081"
   inkscape:window-width="1920"
   inkscape:window-height="1080"
   inkscape:window-x="0"
   inkscape:window-y="0"
   inkscape:window-maximized="0"
   inkscape:current-layer="Top" />
<style
   type="text/css"
   id="style1">
	.st0{fill-rule:evenodd;clip-rule:evenodd;fill:#E6E6E6;}
	.st1{filter:url(#Adobe_OpacityMaskFilter);}
	.st2{fill-rule:evenodd;clip-rule:evenodd;fill:#FFFFFF;}
	.st3{mask:url(#mask-2_1_);}
	.st4{fill-rule:evenodd;clip-rule:evenodd;fill:#2C3E50;}
	.st5{filter:url(#Adobe_OpacityMaskFilter_1_);}
	.st6{mask:url(#mask-4_1_);}
	.st7{fill-rule:evenodd;clip-rule:evenodd;fill:#D0C6AC;}
	.st8{filter:url(#Adobe_OpacityMaskFilter_2_);}
	.st9{mask:url(#mask-6_1_);}
	.st10{fill-rule:evenodd;clip-rule:evenodd;fill:#EDB98A;}
	.st11{filter:url(#Adobe_OpacityMaskFilter_3_);}
	.st12{mask:url(#mask-6_2_);fill-rule:evenodd;clip-rule:evenodd;fill-opacity:0.1;}
	.st13{filter:url(#Adobe_OpacityMaskFilter_4_);}
	.st14{mask:url(#react-mask-952_1_);}
	.st15{filter:url(#Adobe_OpacityMaskFilter_5_);}
	.st16{opacity:0.6;mask:url(#react-mask-952_2_);}
	.st17{fill-rule:evenodd;clip-rule:evenodd;fill-opacity:0.16;}
	.st18{fill-rule:evenodd;clip-rule:evenodd;fill-opacity:0.7;}
	.st19{filter:url(#Adobe_OpacityMaskFilter_6_);}
	.st20{mask:url(#react-mask-934_1_);fill-rule:evenodd;clip-rule:evenodd;fill:#FFFFFF;}
	.st21{filter:url(#Adobe_OpacityMaskFilter_7_);}
	.st22{mask:url(#react-mask-934_2_);}
	.st23{fill-rule:evenodd;clip-rule:evenodd;fill:#FF4F6D;}
	.st24{fill-rule:evenodd;clip-rule:evenodd;fill-opacity:0.6;}
	.st25{filter:url(#Adobe_OpacityMaskFilter_8_);}
	.st26{mask:url(#react-mask-925_1_);}
	.st27{fill-rule:evenodd;clip-rule:evenodd;fill:#28354B;}
	.st28{filter:url(#Adobe_OpacityMaskFilter_9_);}
	.st29{mask:url(#react-mask-924_1_);}
	.st30{fill-rule:evenodd;clip-rule:evenodd;fill:#4A312C;}
</style>
<desc
   id="desc1">Created with getavataaars.com</desc>
<g
   id="g28">
	<g
   transform="translate(-825.000000, -1100.000000)"
   id="g27">
		<g
   transform="translate(825.000000, 1100.000000)"
   id="g26">
			<g
   id="Circle"
   transform="translate(12.000000, 40.000000)">
				<g
   id="Circle-Background">
					<circle
   class="st0"
   cx="120"
   cy="120"
   r="120"
   id="circle1" />
				</g>
				<defs
   id="defs1">
					<filter
   id="Adobe_OpacityMaskFilter"
   filterUnits="userSpaceOnUse"
   x="0"
   y="0"
   width="240"
   height="240">
						<feColorMatrix
   type="matrix"
   values="1 0 0 0 0  0 1 0 0 0  0 0 1 0 0  0 0 0 1 0"
   id="feColorMatrix1" />
					</filter>
				</defs>
				<mask
   maskUnits="userSpaceOnUse"
   x="0"
   y="0"
   width="240"
   height="240"
   id="mask-2_1_">
					<g
   class="st1"
   id="g1">
						<circle
   id="path-1_1_"
   class="st2"
   cx="120"
   cy="120"
   r="120" />
					</g>
				</mask>
				<g
   class="st3"
   mask="url(#mask-2_1_)"
   id="g2">
					<rect
   class="st4"
   width="240"
   height="240"
   id="rect1" />
				</g>
			</g>
			<g
   id="Mask">
			</g>
			<defs
   id="defs2">
				<filter
   id="Adobe_OpacityMaskFilter_1_"
   filterUnits="userSpaceOnUse"
   x="-1"
   y="0"
   width="265"
   height="280">
					<feColorMatrix
   type="matrix"
   values="1 0 0 0 0  0 1 0 0 0  0 0 1 0 0  0 0 0 1 0"
   id="feColorMatrix2" />
				</filter>
			</defs>
			<mask
   maskUnits="userSpaceOnUse"
   x="-1"
   y="0"
   width="265"
   height="280"
   id="mask-4_1_">
				<g
   class="st5"
   id="g3">
					<path
   id="path-3_1_"
   class="st2"
   d="M12,160c0,66.3,53.7,120,120,120s120-53.7,120-120h12V0H0v160H12z" />
				</g>
			</mask>
			<g
   id="Avataaar"
   class="st6"
   mask="url(#mask-4_1_)">
				<g
   id="Body"
   transform="translate(32.000000, 36.000000)">
					<g
   id="g4">
						<path
   class="st7"
   d="M124,144.6V163h4l0,0c39.8,0,72,32.2,72,72v9H0v-9c0-39.8,32.2-72,72-72l0,0h4v-18.4        c-17.2-8.2-29.6-24.9-31.7-44.7C38.5,99.1,34,94.1,34,88V74c0-5.9,4.3-10.9,10-11.8V56l0,0c0-30.9,25.1-56,56-56l0,0l0,0        c30.9,0,56,25.1,56,56v6.2c5.7,1,10,5.9,10,11.8v14c0,6.1-4.5,11.1-10.3,11.9C153.6,119.7,141.2,136.4,124,144.6z"
   id="path3" />
					</g>
					<defs
   id="defs4">
						<filter
   id="Adobe_OpacityMaskFilter_2_"
   filterUnits="userSpaceOnUse"
   x="-32"
   y="0"
   width="264"
   height="244">
							<feColorMatrix
   type="matrix"
   values="1 0 0 0 0  0 1 0 0 0  0 0 1 0 0  0 0 0 1 0"
   id="feColorMatrix4" />
						</filter>
					</defs>
					<mask
   maskUnits="userSpaceOnUse"
   x="-32"
   y="0"
   width="264"
   height="244"
   id="mask-6_1_">
						<g
   class="st8"
   id="g5">
							<path
   id="path-5_1_"
   class="st2"
   d="M124,144.6V163h4l0,0c39.8,0,72,32.2,72,72v9H0v-9c0-39.8,32.2-72,72-72l0,0h4v-18.4         c-17.2-8.2-29.6-24.9-31.7-44.7C38.5,99.1,34,94.1,34,88V74c0-5.9,4.3-10.9,10-11.8V56l0,0c0-30.9,25.1-56,56-56l0,0l0,0         c30.9,0,56,25.1,56,56v6.2c5.7,1,10,5.9,10,11.8v14c0,6.1-4.5,11.1-10.3,11.9C153.6,119.7,141.2,136.4,124,144.6z" />
						</g>
					</mask>
					<g
   class="st9"
   mask="url(#mask-6_1_)"
   id="g6">
						<g
   id="Color"
   transform="translate(-32.000000, 0.000000)"
   style="fill:#784421">
							<rect
   class="st10"
   width="264"
   height="244"
   id="rect5"
   style="fill:#784421" />
						</g>
					</g>
					<defs
   id="defs6">
						<filter
   id="Adobe_OpacityMaskFilter_3_"
   filterUnits="userSpaceOnUse"
   x="44"
   y="79"
   width="112"
   height="79">
							<feColorMatrix
   type="matrix"
   values="1 0 0 0 0  0 1 0 0 0  0 0 1 0 0  0 0 0 1 0"
   id="feColorMatrix6" />
						</filter>
					</defs>
					<mask
   maskUnits="userSpaceOnUse"
   x="44"
   y="79"
   width="112"
   height="79"
   id="mask-6_2_">
						<g
   class="st11"
   id="g7">
							<path
   id="path-5_2_"
   class="st2"
   d="M124,144.6V163h4l0,0c39.8,0,72,32.2,72,72v9H0v-9c0-39.8,32.2-72,72-72l0,0h4v-18.4         c-17.2-8.2-29.6-24.9-31.7-44.7C38.5,99.1,34,94.1,34,88V74c0-5.9,4.3-10.9,10-11.8V56l0,0c0-30.9,25.1-56,56-56l0,0l0,0         c30.9,0,56,25.1,56,56v6.2c5.7,1,10,5.9,10,11.8v14c0,6.1-4.5,11.1-10.3,11.9C153.6,119.7,141.2,136.4,124,144.6z" />
						</g>
					</mask>
					<path
   id="Neck-Shadow"
   class="st12"
   d="M156,79v23c0,30.9-25.1,56-56,56s-56-25.1-56-56V79v15c0,30.9,25.1,56,56,56       s56-25.1,56-56V79z"
   mask="url(#mask-6_2_)" />
				</g>
				<g
   transform="translate(0.000000, 170.000000)"
   id="g12">
					<g
   id="Clothes">
						<path
   class="st0"
   d="M166,29.3c37,3,66,34,66,71.8v8.9H32v-8.9C32,63,61.6,31.8,99,29.2c0,0.4,0,0.7,0,1.1        c0,11.9,15,21.5,33.5,21.5S166,42.2,166,30.3C166,30,166,29.6,166,29.3z"
   id="path7" />
					</g>
					<defs
   id="defs7">
						<filter
   id="Adobe_OpacityMaskFilter_4_"
   filterUnits="userSpaceOnUse"
   x="0"
   y="0"
   width="264"
   height="110">
							<feColorMatrix
   type="matrix"
   values="1 0 0 0 0  0 1 0 0 0  0 0 1 0 0  0 0 0 1 0"
   id="feColorMatrix7" />
						</filter>
					</defs>
					<mask
   maskUnits="userSpaceOnUse"
   x="0"
   y="0"
   width="264"
   height="110"
   id="react-mask-952_1_">
						<g
   class="st13"
   id="g8">
							<path
   id="react-path-951_1_"
   class="st2"
   d="M166,29.3c37,3,66,34,66,71.8v8.9H32v-8.9C32,63,61.6,31.8,99,29.2         c0,0.4,0,0.7,0,1.1c0,11.9,15,21.5,33.5,21.5S166,42.2,166,30.3C166,30,166,29.6,166,29.3z" />
						</g>
					</mask>
					<g
   class="st14"
   mask="url(#react-mask-952_1_)"
   id="g9">
						<rect
   class="st2"
   width="264"
   height="110"
   id="rect8" />
					</g>
					<defs
   id="defs9">
						<filter
   id="Adobe_OpacityMaskFilter_5_"
   filterUnits="userSpaceOnUse"
   x="92.9"
   y="4.9"
   width="79.3"
   height="53.8">
							<feColorMatrix
   type="matrix"
   values="1 0 0 0 0  0 1 0 0 0  0 0 1 0 0  0 0 0 1 0"
   id="feColorMatrix9" />
						</filter>
					</defs>
					<mask
   maskUnits="userSpaceOnUse"
   x="92.9"
   y="4.9"
   width="79.3"
   height="53.8"
   id="react-mask-952_2_">
						<g
   class="st15"
   id="g10">
							<path
   id="react-path-951_2_"
   class="st2"
   d="M166,29.3c37,3,66,34,66,71.8v8.9H32v-8.9C32,63,61.6,31.8,99,29.2         c0,0.4,0,0.7,0,1.1c0,11.9,15,21.5,33.5,21.5S166,42.2,166,30.3C166,30,166,29.6,166,29.3z" />
						</g>
					</mask>
					<g
   id="Shadowy"
   class="st16"
   mask="url(#react-mask-952_2_)">
						<g
   transform="translate(92.000000, 4.000000)"
   id="g11">
							<ellipse
   class="st17"
   cx="40.5"
   cy="27.8"
   rx="39.6"
   ry="26.9"
   id="ellipse10" />
						</g>
					</g>
				</g>
				<g
   id="Face"
   transform="translate(76.000000, 82.000000)">
					<g
   transform="translate(2.000000, 52.000000)"
   id="g16">
						<g
   id="Mouth">
							<path
   class="st18"
   d="M35.1,15.1C36.2,24.6,44.2,32,54,32c9.8,0,17.9-7.4,18.9-17c0.1-0.8-0.8-2-1.8-2c-14.9,0-26.3,0-34,0         C36,13,35,14.2,35.1,15.1z"
   id="path12" />
						</g>
						<defs
   id="defs12">
							<filter
   id="Adobe_OpacityMaskFilter_6_"
   filterUnits="userSpaceOnUse"
   x="39"
   y="2"
   width="31"
   height="16">
								<feColorMatrix
   type="matrix"
   values="1 0 0 0 0  0 1 0 0 0  0 0 1 0 0  0 0 0 1 0"
   id="feColorMatrix12" />
							</filter>
						</defs>
						<mask
   maskUnits="userSpaceOnUse"
   x="39"
   y="2"
   width="31"
   height="16"
   id="react-mask-934_1_">
							<g
   class="st19"
   id="g13">
								<path
   id="react-path-933_1_"
   class="st2"
   d="M35.1,15.1C36.2,24.6,44.2,32,54,32c9.8,0,17.9-7.4,18.9-17          c0.1-0.8-0.8-2-1.8-2c-14.9,0-26.3,0-34,0C36,13,35,14.2,35.1,15.1z" />
							</g>
						</mask>
						<path
   id="Teeth"
   class="st20"
   d="M44,2h21c2.8,0,5,2.2,5,5v6c0,2.8-2.2,5-5,5H44c-2.8,0-5-2.2-5-5V7C39,4.2,41.2,2,44,2z"
   mask="url(#react-mask-934_1_)" />
						<defs
   id="defs13">
							<filter
   id="Adobe_OpacityMaskFilter_7_"
   filterUnits="userSpaceOnUse"
   x="38"
   y="24"
   width="32"
   height="22">
								<feColorMatrix
   type="matrix"
   values="1 0 0 0 0  0 1 0 0 0  0 0 1 0 0  0 0 0 1 0"
   id="feColorMatrix13" />
							</filter>
						</defs>
						<mask
   maskUnits="userSpaceOnUse"
   x="38"
   y="24"
   width="32"
   height="22"
   id="react-mask-934_2_">
							<g
   class="st21"
   id="g14">
								<path
   id="react-path-933_2_"
   class="st2"
   d="M35.1,15.1C36.2,24.6,44.2,32,54,32c9.8,0,17.9-7.4,18.9-17          c0.1-0.8-0.8-2-1.8-2c-14.9,0-26.3,0-34,0C36,13,35,14.2,35.1,15.1z" />
							</g>
						</mask>
						<g
   id="Tongue"
   class="st22"
   mask="url(#react-mask-934_2_)">
							<g
   transform="translate(38.000000, 24.000000)"
   id="g15">
								<circle
   class="st23"
   cx="11"
   cy="11"
   r="11"
   id="circle14" />
								<circle
   class="st23"
   cx="21"
   cy="11"
   r="11"
   id="circle15" />
							</g>
						</g>
					</g>
					<g
   transform="translate(28.000000, 40.000000)"
   id="g17">
						<path
   id="Nose"
   class="st17"
   d="M16,8c0,4.4,5.4,8,12,8l0,0c6.6,0,12-3.6,12-8" />
					</g>
					<g
   transform="translate(0.000000, 8.000000)"
   id="g18">
						<path
   id="Squint"
   class="st24"
   d="M16.2,22.4C18,18.6,22.2,16,27,16c4.8,0,9,2.6,10.8,6.4c0.6,1.1-0.2,2-1,1.4        c-2.5-2.1-5.9-3.4-9.8-3.4c-3.7,0-7.1,1.2-9.6,3.2C16.5,24.3,15.6,23.6,16.2,22.4z" />
						<path
   class="st24"
   d="M74.2,22.4C76,18.6,80.2,16,85,16c4.8,0,9,2.6,10.8,6.4c0.6,1.1-0.2,2-1,1.4c-2.5-2.1-5.9-3.4-9.8-3.4        c-3.7,0-7.1,1.2-9.6,3.2C74.5,24.3,73.6,23.6,74.2,22.4z"
   id="path17" />
					</g>
					<g
   id="g19">
						<path
   id="Eyebrow"
   class="st24"
   d="M26.5,6.1c-5.8,0.3-15.2,4.5-15,10.3c0,0.2,0.3,0.3,0.4,0.1c2.8-3,22.3-5.9,29.2-4.4        c0.6,0.1,1.1-0.5,0.7-0.9C38.5,7.5,31.7,5.9,26.5,6.1" />
						<path
   class="st24"
   d="M86.5,6.1c5.8,0.3,15.2,4.5,15,10.3c0,0.2-0.3,0.3-0.4,0.1c-2.8-3-22.3-5.9-29.2-4.4        c-0.6,0.1-1.1-0.5-0.7-0.9C74.5,7.5,81.3,5.9,86.5,6.1"
   id="path18" />
					</g>
				</g>
				<g
   id="Top">
					<defs
   id="defs19">
						<filter
   id="Adobe_OpacityMaskFilter_8_"
   filterUnits="userSpaceOnUse"
   x="-1"
   y="0"
   width="264"
   height="280">
							<feColorMatrix
   type="matrix"
   values="1 0 0 0 0  0 1 0 0 0  0 0 1 0 0  0 0 0 1 0"
   id="feColorMatrix19" />
						</filter>
					</defs>
					<mask
   maskUnits="userSpaceOnUse"
   x="-1"
   y="0"
   width="264"
   height="280"
   id="react-mask-925_1_">
						<g
   class="st25"
   id="g20">
							<rect
   id="react-path-927_1_"
   class="st2"
   width="264"
   height="280" />
						</g>
					</mask>
					
				<ellipse
   style="fill:#000000;fill-opacity:0.98230088;stroke:#000000;stroke-width:2.33333;stroke-opacity:1"
   id="path53"
   cx="81.474373"
   cy="74.534584"
   rx="16.024956"
   ry="15.556331" /><ellipse
   style="fill:#000000;fill-opacity:0.98230088;stroke:#000000;stroke-width:2.33333;stroke-opacity:1"
   id="path54"
   cx="94.792015"
   cy="58.262749"
   rx="18.151066"
   ry="16.271835" /><ellipse
   style="fill:#000000;fill-opacity:0.98230088;stroke:#000000;stroke-width:2.33333;stroke-opacity:1"
   id="path55"
   cx="115.66446"
   cy="44.146984"
   rx="20.872442"
   ry="20.791908" /><ellipse
   style="fill:#000000;fill-opacity:0.98230088;stroke:#000000;stroke-width:2.33333;stroke-opacity:1"
   id="path56"
   cx="147.05988"
   cy="49.462006"
   rx="13.893212"
   ry="16.643553" /><ellipse
   style="fill:#000000;fill-opacity:0.98230088;stroke:#000000;stroke-width:2.33333;stroke-opacity:1"
   id="path57"
   cx="172"
   cy="74"
   rx="16"
   ry="18" /><ellipse
   style="fill:#000000;fill-opacity:0.98230088;stroke:#000000;stroke-width:2.33333;stroke-opacity:1"
   id="path58"
   cx="165.0296"
   cy="54.404682"
   rx="17.969727"
   ry="21.586231" /><ellipse
   style="fill:#000000;fill-opacity:0.98230088;stroke:#000000;stroke-width:2.33333;stroke-opacity:1"
   id="path59"
   cx="140.97621"
   cy="34.310276"
   rx="19.976879"
   ry="15.151731" /><ellipse
   style="fill:#000000;fill-opacity:0.98230088;stroke:#000000;stroke-width:2.33333;stroke-opacity:1"
   id="path60"
   cx="104.89273"
   cy="40"
   rx="27.107271"
   ry="17.811588" /><ellipse
   style="fill:#000000;fill-opacity:0.98230088;stroke:#000000;stroke-width:2.33333;stroke-opacity:1"
   id="path61"
   cx="86.645782"
   cy="48.878674"
   rx="22.363031"
   ry="17.226885" /><ellipse
   style="fill:#000000;fill-opacity:0.982301;stroke:#000000;stroke-width:2.33333;stroke-opacity:1"
   id="path62"
   cx="64.282753"
   cy="80.640862"
   rx="16.723072"
   ry="17.843117" /><ellipse
   style="fill:#000000;fill-opacity:0.982301;stroke:#000000;stroke-width:2.33333;stroke-opacity:1"
   id="path63"
   cx="59.38781"
   cy="56"
   rx="15.387811"
   ry="17.239334" /><ellipse
   style="fill:#000000;fill-opacity:0.982301;stroke:#000000;stroke-width:2.33333;stroke-opacity:1"
   id="path64"
   cx="82.172493"
   cy="31.315798"
   rx="22.332565"
   ry="18.979769" /><ellipse
   style="fill:#000000;fill-opacity:0.98230088;stroke:#000000;stroke-width:2.33333;stroke-opacity:1"
   id="path65"
   cx="141.11493"
   cy="21.990913"
   rx="22.890173"
   ry="20" /><ellipse
   style="fill:#000000;fill-opacity:0.982301;stroke:#000000;stroke-width:2.2482;stroke-opacity:1"
   id="path66"
   cx="198.1535"
   cy="56.644924"
   rx="20.471275"
   ry="21.628799" /><ellipse
   style="fill:#000000;fill-opacity:0.982301;stroke:#000000;stroke-width:1.94007;stroke-opacity:1"
   id="path67"
   cx="192.51915"
   cy="80.640862"
   rx="17.976494"
   ry="15.29668" /><ellipse
   style="fill:#000000;fill-opacity:0.982301;stroke:#000000;stroke-width:1.94007;stroke-opacity:1"
   id="path67-2"
   cx="198.1535"
   cy="103.28984"
   rx="17.976494"
   ry="15.29668" /><ellipse
   style="fill:#000000;fill-opacity:0.982301;stroke:#000000;stroke-width:1.94007;stroke-opacity:1"
   id="path67-2-3"
   cx="64.282753"
   cy="103.28984"
   rx="17.976494"
   ry="15.29668" /><ellipse
   style="fill:#000000;fill-opacity:0.982301;stroke:#000000;stroke-width:1.94007;stroke-opacity:1"
   id="path67-2-3-7"
   cx="57.591602"
   cy="80.640862"
   rx="17.976494"
   ry="15.29668" /><ellipse
   style="fill:#000000;fill-opacity:0.982301;stroke:#000000;stroke-width:1.94007;stroke-opacity:1"
   id="path67-2-3-5"
   cx="202.89081"
   cy="80.640862"
   rx="17.976494"
   ry="15.29668" /><ellipse
   style="fill:#000000;fill-opacity:0.982301;stroke:#000000;stroke-width:2.33333;stroke-opacity:1"
   id="path68"
   cx="176.55812"
   cy="34.115059"
   rx="24.797691"
   ry="20" /><ellipse
   style="fill:#000000;fill-opacity:0.98230088;stroke:#000000;stroke-width:2.33333;stroke-opacity:1"
   id="path69"
   cx="122.34174"
   cy="17.404682"
   rx="24.718134"
   ry="15.41377" /><ellipse
   style="fill:#000000;fill-opacity:0.98230088;stroke:#000000;stroke-width:2.33333;stroke-opacity:1"
   id="path70"
   cx="127.94603"
   cy="66.901253"
   rx="23.053299"
   ry="9.0896626" /></g>
			</g>
		</g>
	</g>
</g>
</svg>
