<?xml version="1.0" encoding="UTF-8"?>
<svg version="1.1" xmlns="http://www.w3.org/2000/svg" width="900" height="650">
<path d="M0 0 C297 0 594 0 900 0 C900 214.5 900 429 900 650 C603 650 306 650 0 650 C0 435.5 0 221 0 0 Z " fill="#42AD97" transform="translate(0,0)"/>
<path d="M0 0 C0.75729401 0.00182281 1.51458801 0.00364563 2.29483032 0.00552368 C72.95445681 0.28947558 135.20123898 28.41403322 186.1875 76.3125 C186.84363281 76.92609375 187.49976563 77.5396875 188.17578125 78.171875 C193.32846932 83.14688417 197.72797983 88.72029021 202.1875 94.3125 C203.06453605 95.38718263 203.94215554 96.46138935 204.8203125 97.53515625 C211.97616132 106.36378423 218.25817027 115.62184328 224.1875 125.3125 C224.58179199 125.95380859 224.97608398 126.59511719 225.38232422 127.25585938 C259.05263411 182.67905604 267.7747523 254.58594284 253.1875 317.3125 C252.02381487 322.04280448 250.67871105 326.67537861 249.1875 331.3125 C248.95724121 332.03308594 248.72698242 332.75367188 248.48974609 333.49609375 C235.46670695 373.76282828 213.06331434 408.52818892 183.1875 438.3125 C182.16664704 439.36590825 181.14720398 440.42068399 180.12890625 441.4765625 C133.29899957 489.67483044 68.14572083 511.53544145 2.00927734 512.60009766 C-47.03814525 512.91968607 -96.24617593 499.34962512 -136.8125 471.3125 C-137.40482422 470.91111816 -137.99714844 470.50973633 -138.60742188 470.09619141 C-147.49906324 464.05437374 -155.71923793 457.37769905 -163.8125 450.3125 C-164.53953125 449.68601562 -165.2665625 449.05953125 -166.015625 448.4140625 C-167.96200231 446.72878458 -169.88945353 445.02434484 -171.8125 443.3125 C-172.69808594 442.53132813 -173.58367187 441.75015625 -174.49609375 440.9453125 C-179.33154042 436.62818373 -183.92884353 432.30632116 -188.09375 427.3359375 C-189.28522942 425.93324128 -190.51800961 424.56499577 -191.78125 423.2265625 C-203.26593254 411.03449009 -212.65700472 396.90145665 -220.8125 382.3125 C-221.41723145 381.24443115 -221.41723145 381.24443115 -222.03417969 380.15478516 C-253.92363439 323.4229305 -261.87755478 250.99491853 -244.8125 188.3125 C-231.54352121 142.69280796 -205.79862265 96.82176887 -168.765625 65.9609375 C-167.38727617 64.79761109 -166.04620335 63.58941557 -164.734375 62.3515625 C-128.8183092 28.51227602 -80.02336627 9.33310933 -31.8125 2.3125 C-30.68271729 2.13517334 -29.55293457 1.95784668 -28.38891602 1.77514648 C-18.87453644 0.36651428 -9.60327942 -0.04841098 0 0 Z " fill="#FEFEFE" transform="translate(446.8125,68.6875)"/>
<path d="M0 0 C1.05226737 -0.00445784 2.10453474 -0.00891569 3.18868899 -0.01350862 C4.93641097 -0.01323207 4.93641097 -0.01323207 6.71944046 -0.01294994 C7.95014873 -0.01662663 9.180857 -0.02030332 10.44885945 -0.02409142 C13.87604578 -0.03323084 17.30318417 -0.0378307 20.73037815 -0.04048073 C24.42238805 -0.0443792 28.11438402 -0.05395786 31.80638504 -0.0626936 C40.72816035 -0.08247115 49.64993683 -0.09252593 58.57172859 -0.10142139 C62.77092238 -0.10580224 66.97011491 -0.11116958 71.16930771 -0.11641026 C85.12464893 -0.13342395 99.07998935 -0.1479187 113.03533936 -0.155159 C116.6581688 -0.15706896 120.28099824 -0.15898928 123.90382767 -0.16094494 C124.80428846 -0.16142868 125.70474926 -0.16191242 126.63249674 -0.16241082 C141.22330565 -0.17071325 155.81403263 -0.19605311 170.40480575 -0.22852562 C185.377564 -0.26157715 200.3502806 -0.27960604 215.32307553 -0.28280324 C223.73270194 -0.28497012 232.14220888 -0.29374477 240.55179977 -0.31926441 C247.71307743 -0.34094544 254.87420662 -0.3490347 262.03551337 -0.33929763 C265.68996753 -0.3347453 269.34411518 -0.33669279 272.99852753 -0.35605907 C276.95950028 -0.37686883 280.92004823 -0.36672983 284.88106155 -0.35352612 C286.6153992 -0.36997998 286.6153992 -0.36997998 288.38477397 -0.38676625 C294.55203717 -0.33696791 298.40713505 -0.09460265 303.05421829 4.13422108 C304.68051214 7.38680878 304.20218212 10.96686057 304.20138931 14.54127979 C304.205066 15.42150812 304.20874269 16.30173645 304.21253079 17.20863837 C304.22359648 20.17578177 304.22741633 23.14289018 304.23122025 26.11005116 C304.23748266 28.23028647 304.24412926 30.35052068 304.25113297 32.47075367 C304.26856206 38.2435103 304.27909968 44.01625864 304.2873385 49.78903508 C304.29248403 53.39289034 304.29855993 56.996743 304.30484962 60.60059643 C304.32390603 71.86824864 304.33813686 83.13589427 304.34646159 94.40355951 C304.35624016 107.4252129 304.38257408 120.44669658 304.42296249 133.46829015 C304.45308391 143.52352859 304.46792665 153.57871826 304.47124261 163.63400096 C304.47359742 169.64420445 304.48261394 175.65422674 304.50770378 181.66438198 C304.53092029 187.3171959 304.53524358 192.96970847 304.5249424 198.62255764 C304.52444538 200.69905567 304.53081442 202.77556822 304.54449844 204.85202122 C304.56211813 207.68378247 304.55516019 210.51445057 304.54196548 213.34621143 C304.55841935 214.58298601 304.55841935 214.58298601 304.57520562 215.84474593 C304.53099952 219.76587981 304.31941655 221.70443929 302.21123409 225.12097168 C299.21122027 227.92103277 296.82021366 228.25929342 292.87443638 228.25726891 C292.01851471 228.25925995 291.16259305 228.261251 290.28073436 228.26330239 C289.3400815 228.26038954 288.39942864 228.2574767 287.43027115 228.25447559 C286.4313211 228.25533002 285.43237105 228.25618444 284.40314978 228.25706476 C281.04048342 228.25871789 277.67786643 228.25320087 274.31520462 228.24774647 C271.91085181 228.24746453 269.50649891 228.24762245 267.10214615 228.24818897 C261.91783352 228.24841703 256.73353215 228.24557218 251.54922295 228.23995113 C244.05355229 228.2318293 236.55788772 228.22922021 229.06221315 228.22796314 C216.901423 228.2257737 204.74063956 228.21911653 192.57985306 228.20966053 C180.7657258 228.20048363 168.95160035 228.19340415 157.13747025 228.18915272 C156.40943149 228.18888999 155.68139274 228.18862727 154.93129221 228.18835659 C151.27899074 228.18705156 147.62668926 228.18578785 143.97438776 228.18454468 C113.66765875 228.17417543 83.36094203 228.15573892 53.05421829 228.13422108 C53.05421829 211.30422108 53.05421829 194.47422108 53.05421829 177.13422108 C31.60421829 177.13422108 10.15421829 177.13422108 -11.94578171 177.13422108 C-12.05861435 154.92493728 -12.15073412 132.71588524 -12.20484257 110.50638771 C-12.23063292 100.19432095 -12.2657994 89.8824448 -12.32297897 79.57050037 C-12.37278841 70.58343193 -12.40506667 61.59650152 -12.41622418 52.60929888 C-12.42274711 47.84981685 -12.43809507 43.09072973 -12.47443199 38.33137417 C-12.50835264 33.85223768 -12.51884267 29.37365904 -12.51132011 24.89440632 C-12.51269643 23.25005468 -12.52265262 21.60568452 -12.54180908 19.9614439 C-12.56668765 17.71604846 -12.56070839 15.47275908 -12.54705429 13.22731495 C-12.55166326 11.97091111 -12.55627222 10.71450727 -12.56102085 9.42003059 C-11.7793756 5.24549549 -10.18368457 3.78616898 -6.94578171 1.13422108 C-4.45488764 -0.11122596 -2.78798339 0.00545932 0 0 Z " fill="#F8D986" transform="translate(302.9457817077637,154.86577892303467)"/>
<path d="M0 0 C82.83 0 165.66 0 251 0 C251 45 251 45 247 50 C244.24970556 50.91676481 242.65053543 51.12450002 239.82021809 51.12304783 C238.96429642 51.12503888 238.10837475 51.12702993 237.22651607 51.12908131 C236.28586321 51.12616847 235.34521035 51.12325563 234.37605286 51.12025452 C233.37710281 51.12110894 232.37815276 51.12196337 231.34893149 51.12284368 C227.98626512 51.12449682 224.62364814 51.11897979 221.26098633 51.11352539 C218.85663352 51.11324346 216.45228062 51.11340137 214.04792786 51.1139679 C208.86361522 51.11419595 203.67931385 51.1113511 198.49500465 51.10573006 C190.999334 51.09760822 183.50366943 51.09499913 176.00799485 51.09374207 C163.84720471 51.09155262 151.68642127 51.08489545 139.52563477 51.07543945 C127.7115075 51.06626255 115.89738206 51.05918308 104.08325195 51.05493164 C103.3552132 51.05466892 102.62717445 51.05440619 101.87707392 51.05413551 C98.22477245 51.05283049 94.57247097 51.05156677 90.92016947 51.05032361 C60.61344046 51.03995435 30.30672374 51.02151784 0 51 C0 34.17 0 17.34 0 0 Z " fill="#FB686C" transform="translate(356,332)"/>
<path d="M0 0 C21.45 0 42.9 0 65 0 C65 16.83 65 33.66 65 51 C57.41705746 51.10499459 49.83676194 51.20514065 42.25372314 51.25875092 C38.72221636 51.2851045 35.1913141 51.32029107 31.66015625 51.37719727 C27.60410873 51.44214979 23.54869677 51.46622357 19.4921875 51.48828125 C18.23260223 51.51408768 16.97301697 51.5398941 15.67526245 51.56648254 C5.8898208 51.5696123 5.8898208 51.5696123 2.19335938 49.12890625 C-0.99216558 44.58464002 -0.75804927 40.87480501 -0.5859375 35.44921875 C-0.57989502 34.54997681 -0.57385254 33.65073486 -0.56762695 32.72424316 C-0.53633042 29.37819237 -0.45256086 26.03279815 -0.375 22.6875 C-0.25125 15.200625 -0.1275 7.71375 0 0 Z " fill="#EAEEF1" transform="translate(291,332)"/>
<path d="M0 0 C104.28 0 208.56 0 316 0 C316 3.3 316 6.6 316 10 C211.72 10 107.44 10 0 10 C0 6.7 0 3.4 0 0 Z " fill="#F1C976" transform="translate(291,322)"/>
<path d="M0 0 C5.39398903 2.57551527 9.51679885 6.11515037 13.82617188 10.20385742 C20.86560502 16.72030691 26.54429418 17.59119351 35.98608398 17.28100586 C37.65034605 17.19764692 39.31367929 17.08635972 40.97314453 16.93505859 C43 17 43 17 46 19 C46.375 21.5 46.375 21.5 46 24 C39.49622998 28.33584668 29.69484664 27.29998416 22.14208984 26.63916016 C14.39582209 25.06342364 8.41041015 19.65227919 2.72558594 14.42041016 C0.91489903 12.92994943 -0.87093983 11.9677016 -3 11 C-4.7744606 13.22636058 -6.54462467 15.45591967 -8.3125 17.6875 C-8.81201172 18.31333984 -9.31152344 18.93917969 -9.82617188 19.58398438 C-12.47804842 22.93834478 -14.90358349 26.25793231 -17 30 C-16.47664063 30.21527344 -15.95328125 30.43054688 -15.4140625 30.65234375 C-12.04364826 32.53388568 -9.26737953 35.03404131 -6.375 37.5625 C-5.52615234 38.29436523 -5.52615234 38.29436523 -4.66015625 39.04101562 C-3.45164008 40.08741377 -2.25545443 41.14817328 -1.07006836 42.22070312 C1.04366385 44.09086213 1.04366385 44.09086213 3.66186523 45.90429688 C7.70697315 48.99463427 10.55050742 51.24710883 11.84472656 56.29418945 C12.09115835 60.03706236 12.02352895 63.63068818 11.8125 67.375 C11.79251953 68.64472656 11.77253906 69.91445313 11.75195312 71.22265625 C11.4856869 80.33380218 11.4856869 80.33380218 9.61987305 82.89306641 C8 84 8 84 5.4375 83.8125 C3 83 3 83 1 81 C0.87158203 78.65258789 0.87158203 78.65258789 1.0078125 75.72265625 C1.87151497 63.25040276 1.87151497 63.25040276 -2.484375 52.07421875 C-5.34330474 49.24126271 -8.57610845 47.10826735 -12 45 C-14.3512607 43.35751495 -16.67276908 41.67654419 -19 40 C-18.94779297 41.89685547 -18.94779297 41.89685547 -18.89453125 43.83203125 C-18.86639323 45.49217423 -18.83909309 47.15233156 -18.8125 48.8125 C-18.78736328 49.64587891 -18.76222656 50.47925781 -18.73632812 51.33789062 C-18.72666016 52.14033203 -18.71699219 52.94277344 -18.70703125 53.76953125 C-18.6913208 54.50792236 -18.67561035 55.24631348 -18.65942383 56.00708008 C-19.1032828 58.60437096 -19.97528123 59.35306787 -22 61 C-24.97739136 61.29841479 -27.74118211 61.42027068 -30.71875 61.3984375 C-31.57303589 61.40130768 -32.42732178 61.40417786 -33.30749512 61.40713501 C-35.11304385 61.40917581 -36.91861469 61.40364483 -38.72412109 61.39111328 C-41.48976012 61.37505944 -44.25393775 61.39096099 -47.01953125 61.41015625 C-48.77344073 61.40817382 -50.5273493 61.40433015 -52.28125 61.3984375 C-53.10943237 61.40451019 -53.93761475 61.41058289 -54.79089355 61.4168396 C-60.55268045 61.34616084 -60.55268045 61.34616084 -62.75769043 59.63980103 C-64 58 -64 58 -63.75 55.375 C-63 53 -63 53 -62 52 C-59.47905924 51.91152257 -56.98569107 51.88472699 -54.46484375 51.90234375 C-53.33496788 51.90446617 -53.33496788 51.90446617 -52.18226624 51.90663147 C-49.7673044 51.91224624 -47.35243399 51.92480117 -44.9375 51.9375 C-43.30403779 51.9425131 -41.67057414 51.94707634 -40.03710938 51.95117188 C-36.02470415 51.96222046 -32.01236759 51.97949494 -28 52 C-28.04189453 51.25951416 -28.08378906 50.51902832 -28.12695312 49.75610352 C-28.29457704 46.35880177 -28.39769331 42.96237068 -28.5 39.5625 C-28.56703125 38.39783203 -28.6340625 37.23316406 -28.703125 36.03320312 C-28.84688701 29.65376395 -28.53982887 25.79877055 -24.1875 20.9375 C-22.79590821 19.62050371 -21.4001663 18.30787662 -20 17 C-17.90770067 14.39233431 -15.96710116 11.7047641 -14 9 C-20.27 8.67 -26.54 8.34 -33 8 C-33.66 9.32 -34.32 10.64 -35 12 C-36.953125 14.32421875 -36.953125 14.32421875 -39.25 16.6875 C-39.99765625 17.47511719 -40.7453125 18.26273438 -41.515625 19.07421875 C-44.42878287 21.33237415 -46.33791649 21.86343059 -50 22 C-52 20 -52 20 -52.44921875 17.86328125 C-51.47997097 11.68538021 -47.3081456 7.24481184 -42.71484375 3.2265625 C-31.62629773 -4.35029614 -12.52105979 -3.41507055 0 0 Z " fill="#5E6274" transform="translate(458,202)"/>
<path d="M0 0 C0.33 0 0.66 0 1 0 C1.10911227 1.56091166 1.18609398 3.12408492 1.25 4.6875 C1.29640625 5.55761719 1.3428125 6.42773438 1.390625 7.32421875 C0.8419912 11.08236027 -0.18771913 12.42557543 -3 15 C-6.26525902 15.75078248 -9.48257788 15.65268206 -12.82012939 15.60127258 C-14.33208676 15.60768077 -14.33208676 15.60768077 -15.87458873 15.61421841 C-19.26221789 15.62247382 -22.64861715 15.59492 -26.03613281 15.56762695 C-28.46033702 15.56621704 -30.88454337 15.56700734 -33.30874634 15.56983948 C-38.5329916 15.57097915 -43.75695721 15.55677079 -48.98111725 15.52865028 C-56.53434721 15.48801936 -64.08742619 15.47499354 -71.6407536 15.46871033 C-83.8953536 15.45776646 -96.14978722 15.42448987 -108.40429688 15.37719727 C-120.30858528 15.33130399 -132.2128285 15.29591099 -144.1171875 15.2746582 C-144.85093752 15.27334459 -145.58468754 15.27203097 -146.3406724 15.27067754 C-150.02167111 15.26415237 -153.70267014 15.25783383 -157.38366938 15.25161803 C-187.92256537 15.19978216 -218.4612596 15.11134288 -249 15 C-249 12.03 -249 9.06 -249 6 C-247.75225202 5.99761165 -246.50450403 5.99522329 -245.2189455 5.99276257 C-215.60758544 5.93541699 -185.99630676 5.86269665 -156.38503497 5.77101372 C-152.74130946 5.7597454 -149.09758357 5.74860697 -145.45385742 5.73754883 C-144.72844958 5.73534514 -144.00304175 5.73314146 -143.25565185 5.730871 C-131.50612901 5.6954875 -119.75660623 5.67062932 -108.00704984 5.64965298 C-95.95314073 5.62789929 -83.89930083 5.59485302 -71.84545058 5.55129844 C-65.07404481 5.52715575 -58.30270799 5.50825364 -51.53125954 5.50238609 C-45.16111308 5.49635507 -38.79116304 5.47642699 -32.42108917 5.44572449 C-30.08015746 5.43691243 -27.73920012 5.43322819 -25.39825249 5.43499184 C-22.20743684 5.43663712 -19.0172253 5.42000855 -15.82649231 5.39872742 C-14.43008797 5.40599878 -14.43008797 5.40599878 -13.00547343 5.41341704 C-8.20395276 5.36039895 -4.87123759 5.17925752 -1 2 C-0.67 1.34 -0.34 0.68 0 0 Z " fill="#EC6267" transform="translate(606,367)"/>
<path d="M0 0 C2.31279611 1.15639806 4.17409828 2.17409828 6 4 C7.46271382 4.10341801 8.93036385 4.13794792 10.39671326 4.14476013 C11.34599701 4.15165863 12.29528076 4.15855713 13.27333069 4.16566467 C14.32322678 4.16827805 15.37312286 4.17089142 16.45483398 4.17358398 C18.10346436 4.1836145 18.10346436 4.1836145 19.78540039 4.19384766 C22.18083508 4.20793544 24.57628348 4.21981749 26.97173882 4.22979546 C30.75717524 4.2461416 34.54250973 4.26937578 38.32789612 4.29469299 C49.09362908 4.36565151 59.8593996 4.42571724 70.62524414 4.47680664 C77.20110315 4.50809605 83.77685063 4.54977735 90.35261726 4.59700203 C92.86571222 4.61306815 95.37883407 4.62536824 97.89196587 4.63390923 C101.40002208 4.64600372 104.90780212 4.67012844 108.41577148 4.69702148 C109.46364334 4.69761063 110.5115152 4.69819977 111.59114075 4.69880676 C112.54324432 4.70852509 113.4953479 4.71824341 114.4763031 4.72825623 C115.30646155 4.73248816 116.13662001 4.7367201 116.99193478 4.74108028 C119 5 119 5 121 7 C121.25 9.5 121.25 9.5 121 12 C118.53912995 14.46087005 117.87228352 14.25160557 114.48976135 14.25828552 C113.06594147 14.26852753 113.06594147 14.26852753 111.61335754 14.27897644 C110.56862778 14.27642349 109.52389801 14.27387054 108.44750977 14.27124023 C107.34988312 14.27646698 106.25225647 14.28169373 105.12136841 14.28707886 C102.731959 14.29734063 100.34252711 14.30310303 97.95309639 14.30496025 C94.17564978 14.30860897 90.39846925 14.32529408 86.62107849 14.34571838 C77.23807018 14.39425008 67.855032 14.4258005 58.47192383 14.44702148 C50.54894297 14.46496818 42.62620208 14.49430454 34.70332146 14.54106331 C32.19663424 14.55274442 29.68991336 14.55864393 27.18319893 14.55874443 C23.68255986 14.55893567 20.18244307 14.57714303 16.68188477 14.59936523 C15.63917923 14.59478806 14.59647369 14.59021088 13.52217102 14.585495 C12.57013794 14.59514282 11.61810486 14.60479065 10.63722229 14.61473083 C9.80928445 14.61674216 8.98134661 14.61875349 8.12831974 14.62082577 C5.50379006 15.08840308 4.7166508 16.02203168 3 18 C-0.4366186 19.7183093 -4.2344225 19.38792805 -8 19 C-10.5625 17.625 -10.5625 17.625 -12 16 C-12 15.34 -12 14.68 -12 14 C-12.85777542 14.00666183 -13.71555084 14.01332367 -14.59931946 14.02018738 C-22.67751797 14.08026362 -30.75564161 14.12595661 -38.83401203 14.15543652 C-42.98733857 14.17110189 -47.14048075 14.19235582 -51.29370117 14.22631836 C-55.30075585 14.2588811 -59.30763304 14.27684645 -63.3148098 14.28463173 C-64.84466535 14.29018082 -66.37451103 14.30101676 -67.90429115 14.31719017 C-70.04488855 14.33892415 -72.18474973 14.34196872 -74.32543945 14.34057617 C-75.54455521 14.34723801 -76.76367096 14.35389984 -78.01972961 14.36076355 C-81 14 -81 14 -82.92887878 12.60762024 C-84 11 -84 11 -83.8125 8.9375 C-83 7 -83 7 -81 5 C-78.13998413 4.75949097 -78.13998413 4.75949097 -74.43896484 4.77294922 C-73.76567642 4.77265717 -73.092388 4.77236511 -72.3986969 4.77206421 C-70.16931346 4.77345953 -67.94026268 4.78902984 -65.7109375 4.8046875 C-64.16680077 4.80841692 -62.62266167 4.81126423 -61.07852173 4.81326294 C-57.01124557 4.82090501 -52.94411189 4.84055832 -48.87689209 4.8626709 C-44.7278435 4.88311704 -40.57877193 4.89226201 -36.4296875 4.90234375 C-28.28639289 4.92380375 -20.14321416 4.95794651 -12 5 C-11.67 4.01 -11.34 3.02 -11 2 C-7.54459558 -0.52510323 -4.14929662 -0.36397339 0 0 Z " fill="#C9B6BF" transform="translate(464,348)"/>
<path d="M0 0 C3.25 2 3.25 2 6 4 C9.21018491 4.26204871 9.21018491 4.26204871 12.25 2 C15.95218364 -0.19475444 18.66317942 -0.56218044 23 0 C26.7023357 1.68287986 28.92336181 3.51575218 31 7 C31.34057617 10.11621094 31.34057617 10.11621094 31.29296875 13.734375 C31.2784668 15.67763672 31.2784668 15.67763672 31.26367188 17.66015625 C31.23860783 19.02344354 31.21321302 20.38672479 31.1875 21.75 C31.17244518 23.12889184 31.15875817 24.50779935 31.14648438 25.88671875 C31.11111909 29.25820915 31.06175904 32.62890654 31 36 C27.37 36 23.74 36 20 36 C19.505 23.625 19.505 23.625 19 11 C12.46304618 9.61698649 12.46304618 9.61698649 8 11 C8 19.25 8 27.5 8 36 C4.37 36 0.74 36 -3 36 C-3.495 23.13 -3.495 23.13 -4 10 C-10.55535135 9.71704177 -10.55535135 9.71704177 -15 11 C-15 19.25 -15 27.5 -15 36 C-18.63 36 -22.26 36 -26 36 C-26 24.45 -26 12.9 -26 1 C-22.37 1 -18.74 1 -15 1 C-14.67 1.99 -14.34 2.98 -14 4 C-12.4840625 3.01 -12.4840625 3.01 -10.9375 2 C-7.13547593 -0.14630391 -4.40321363 -0.64046744 0 0 Z " fill="#030303" transform="translate(396,423)"/>
<path d="M0 0 C4.95 0 9.9 0 15 0 C17.28489722 6.06659962 19.5633905 12.13555027 21.8359375 18.20678711 C22.61021427 20.27255364 23.38624845 22.33766235 24.1640625 24.40209961 C25.28065362 27.36662054 26.39093909 30.33343633 27.5 33.30078125 C27.84998047 34.2258699 28.19996094 35.15095856 28.56054688 36.1040802 C28.88087891 36.96474594 29.20121094 37.82541168 29.53125 38.7121582 C29.81548828 39.46938675 30.09972656 40.2266153 30.39257812 41.00679016 C31 43 31 43 31 46 C27.04 46 23.08 46 19 46 C18.01 43.36 17.02 40.72 16 38 C10.06 37.67 4.12 37.34 -2 37 C-2.66 39.97 -3.32 42.94 -4 46 C-7.96 46 -11.92 46 -16 46 C-14.73543124 39.74499788 -13.04743747 33.97044496 -10.7421875 28.02734375 C-10.43427277 27.21882462 -10.12635803 26.41030548 -9.80911255 25.57728577 C-8.83689228 23.02842078 -7.85611732 20.4829517 -6.875 17.9375 C-6.20906376 16.19618205 -5.54369392 14.45464739 -4.87890625 12.71289062 C-3.25913426 8.47272952 -1.63168856 4.23558889 0 0 Z " fill="#060606" transform="translate(265,413)"/>
<path d="M0 0 C3.75236396 2.39529987 6.08718642 5.01441361 7.79296875 9.14453125 C8.80953452 16.51253275 8.67966733 22.66977035 4.79296875 29.14453125 C1.01637338 33.38438898 -2.62595713 34.90554291 -8.16015625 35.41796875 C-14.63220997 35.61734481 -19.38774905 35.52392788 -24.6875 31.57421875 C-28.55060381 27.93952468 -29.9666516 23.94587876 -30.41015625 18.77734375 C-30.50961418 13.45634454 -30.37221256 9.63704666 -27.20703125 5.14453125 C-19.71803254 -2.37987644 -10.03107032 -4.52949361 0 0 Z " fill="#060606" transform="translate(559.20703125,424.85546875)"/>
<path d="M0 0 C1.63671875 1.16796875 1.63671875 1.16796875 3.63671875 4.16796875 C3.86376953 7.1706543 3.86376953 7.1706543 3.83203125 10.8046875 C3.82558594 12.10341797 3.81914062 13.40214844 3.8125 14.74023438 C3.79578935 16.11198182 3.77885946 17.48372661 3.76171875 18.85546875 C3.75168549 20.23892593 3.74256024 21.62239002 3.734375 23.00585938 C3.71076842 26.39340327 3.67783912 29.78059947 3.63671875 33.16796875 C0.00671875 33.16796875 -3.62328125 33.16796875 -7.36328125 33.16796875 C-7.69328125 32.50796875 -8.02328125 31.84796875 -8.36328125 31.16796875 C-9.33265625 31.66296875 -10.30203125 32.15796875 -11.30078125 32.66796875 C-15.63918145 34.50716883 -19.70908455 34.9625877 -24.36328125 34.16796875 C-27.83388293 32.10037626 -30.14053518 30.05852442 -31.36328125 26.16796875 C-31.79501765 22.2103851 -31.78255054 19.93662911 -29.86328125 16.41796875 C-26.64468411 13.52123133 -23.4781198 12.35741427 -19.36328125 11.16796875 C-18.7084375 10.97847656 -18.05359375 10.78898437 -17.37890625 10.59375 C-15.22951455 10.13971183 -13.30698644 10.068907 -11.11328125 10.10546875 C-9.25703125 10.13640625 -9.25703125 10.13640625 -7.36328125 10.16796875 C-7.69328125 9.17796875 -8.02328125 8.18796875 -8.36328125 7.16796875 C-13.97282805 4.36319535 -22.35599902 6.27800101 -28.36328125 7.16796875 C-28.36328125 4.52796875 -28.36328125 1.88796875 -28.36328125 -0.83203125 C-19.23182356 -4.33873543 -8.82066976 -4.38513297 0 0 Z " fill="#080808" transform="translate(466.36328125,425.83203125)"/>
<path d="M0 0 C3.31806691 2.3149304 4.15854427 4.15143579 5.6875 7.875 C6.02807617 11.03466797 6.02807617 11.03466797 5.98046875 14.3671875 C5.9659668 16.16542969 5.9659668 16.16542969 5.95117188 18 C5.92603516 19.2375 5.90089844 20.475 5.875 21.75 C5.85469727 23.64105469 5.85469727 23.64105469 5.83398438 25.5703125 C5.79873725 28.67205907 5.74493361 31.77358492 5.6875 34.875 C1.7275 34.875 -2.2325 34.875 -6.3125 34.875 C-6.8075 22.5 -6.8075 22.5 -7.3125 9.875 C-10.05155345 8.50547327 -12.28337332 8.74878639 -15.3125 8.875 C-16.3025 9.37 -16.3025 9.37 -17.3125 9.875 C-17.6425 18.125 -17.9725 26.375 -18.3125 34.875 C-21.9425 34.875 -25.5725 34.875 -29.3125 34.875 C-29.3125 23.325 -29.3125 11.775 -29.3125 -0.125 C-25.6825 -0.125 -22.0525 -0.125 -18.3125 -0.125 C-18.3125 0.865 -18.3125 1.855 -18.3125 2.875 C-17.3225 2.215 -16.3325 1.555 -15.3125 0.875 C-10.06424475 -2.10431258 -5.75274431 -1.95376222 0 0 Z " fill="#080808" transform="translate(605.3125,424.125)"/>
<path d="M0 0 C3.06998972 2.07045818 4.08770444 3.49518752 5.6875 6.8125 C6.02807617 9.95043945 6.02807617 9.95043945 5.98046875 13.42578125 C5.9659668 15.2965332 5.9659668 15.2965332 5.95117188 17.20507812 C5.92603516 18.49865234 5.90089844 19.79222656 5.875 21.125 C5.85469727 23.09436523 5.85469727 23.09436523 5.83398438 25.10351562 C5.79867443 28.34026077 5.7493528 31.57617105 5.6875 34.8125 C2.0575 34.8125 -1.5725 34.8125 -5.3125 34.8125 C-5.34988281 33.18699219 -5.38726562 31.56148438 -5.42578125 29.88671875 C-5.49143106 27.75778904 -5.55787874 25.62888383 -5.625 23.5 C-5.64755859 22.42814453 -5.67011719 21.35628906 -5.69335938 20.25195312 C-5.7465332 18.70991211 -5.7465332 18.70991211 -5.80078125 17.13671875 C-5.82696533 16.18885498 -5.85314941 15.24099121 -5.88012695 14.2644043 C-6.38226095 11.41689908 -6.97628877 10.47778519 -9.3125 8.8125 C-12.40751208 8.55984595 -14.51379973 8.41314987 -17.3125 9.8125 C-17.6425 18.0625 -17.9725 26.3125 -18.3125 34.8125 C-21.9425 34.8125 -25.5725 34.8125 -29.3125 34.8125 C-29.3125 23.2625 -29.3125 11.7125 -29.3125 -0.1875 C-25.6825 -0.1875 -22.0525 -0.1875 -18.3125 -0.1875 C-18.3125 0.8025 -18.3125 1.7925 -18.3125 2.8125 C-17.3225 2.1525 -16.3325 1.4925 -15.3125 0.8125 C-10.06415982 -2.16686079 -5.72930863 -2.05390309 0 0 Z " fill="#040404" transform="translate(332.3125,424.1875)"/>
<path d="M0 0 C0 3.3 0 6.6 0 10 C-0.928125 9.505 -1.85625 9.01 -2.8125 8.5 C-7.73968438 6.340555 -12.72281389 6.74234354 -18 7 C-18.33 8.32 -18.66 9.64 -19 11 C-18.05125 11.103125 -17.1025 11.20625 -16.125 11.3125 C-10.79048888 12.08545977 -4.64200349 13.05941337 -0.234375 16.296875 C1.88059981 19.21500481 1.52597346 22.06510021 1.4140625 25.5546875 C1 28 1 28 -1.125 31 C-6.39500746 34.66609215 -11.15878767 35.27577729 -17.5 35.25 C-18.7684375 35.25515625 -20.036875 35.2603125 -21.34375 35.265625 C-24.90390317 35.00698139 -27.68745385 34.28821239 -31 33 C-31 29.7 -31 26.4 -31 23 C-28.7725 23.99 -28.7725 23.99 -26.5 25 C-21.67267573 26.9405295 -18.16348561 27.4610255 -13 27 C-12.34 26.67 -11.68 26.34 -11 26 C-10.67 25.01 -10.34 24.02 -10 23 C-11.17755859 22.85304688 -11.17755859 22.85304688 -12.37890625 22.703125 C-26.01626365 20.76210235 -26.01626365 20.76210235 -30.4375 15.1875 C-31.28214991 11.90275036 -31.41517191 9.38068555 -31 6 C-23.10160285 -3.6061587 -11.16810544 -3.97088194 0 0 Z " fill="#070707" transform="translate(650,425)"/>
<path d="M0 0 C3.96 0 7.92 0 12 0 C12 3.3 12 6.6 12 10 C15.3 10 18.6 10 22 10 C22 12.64 22 15.28 22 18 C18.37 18 14.74 18 11 18 C11.1404983 20.7920301 11.28715383 23.58349796 11.4375 26.375 C11.47681641 27.1690625 11.51613281 27.963125 11.55664062 28.78125 C11.68893404 33.02601221 11.68893404 33.02601221 13 37 C15.97 37 18.94 37 22 37 C22 39.64 22 42.28 22 45 C16.85620659 46.7145978 11.27936979 46.63046398 6.0625 45.1875 C2.62434938 43.20795873 1.26508269 41.79524808 0 38 C-0.08106686 36.44578271 -0.10756898 34.88832973 -0.09765625 33.33203125 C-0.09443359 32.43935547 -0.09121094 31.54667969 -0.08789062 30.62695312 C-0.07951172 29.69818359 -0.07113281 28.76941406 -0.0625 27.8125 C-0.05798828 26.87212891 -0.05347656 25.93175781 -0.04882812 24.96289062 C-0.03704626 22.64186288 -0.02059558 20.32096356 0 18 C-1.32 18 -2.64 18 -4 18 C-4 15.36 -4 12.72 -4 10 C-2.68 10 -1.36 10 0 10 C0 6.7 0 3.4 0 0 Z " fill="#080808" transform="translate(481,414)"/>
<path d="M0 0 C0.598125 0.639375 1.19625 1.27875 1.8125 1.9375 C5.21266675 5.14337151 8.08529473 5.13597586 12.57299805 5.20532227 C13.71395432 5.22526749 14.85491058 5.24521271 16.03044128 5.26576233 C17.26176285 5.28247482 18.49308441 5.29918732 19.76171875 5.31640625 C21.65311333 5.3475779 21.65311333 5.3475779 23.5827179 5.37937927 C26.93145458 5.43372122 30.28020205 5.48396166 33.62902832 5.53222656 C37.04766229 5.58250357 40.46620826 5.63815724 43.88476562 5.69335938 C50.58977362 5.800535 57.29484753 5.90230512 64 6 C64 9.3 64 12.6 64 16 C56.54153868 16.11609586 49.08327369 16.20481645 41.62409019 16.25906086 C38.16003775 16.28510226 34.69660562 16.32039692 31.23291016 16.37719727 C27.24649606 16.44215686 23.26032894 16.46622587 19.2734375 16.48828125 C18.03572601 16.51408768 16.79801453 16.5398941 15.52279663 16.56648254 C5.91838887 16.56960738 5.91838887 16.56960738 2.20703125 13.65039062 C-0.39642687 10.52393694 -0.66442545 9.19121876 -0.375 5.1875 C-0.32085937 4.21167969 -0.26671875 3.23585938 -0.2109375 2.23046875 C-0.14132812 1.49441406 -0.07171875 0.75835937 0 0 Z " fill="#DDE8F1" transform="translate(291,367)"/>
<path d="M0 0 C1.80535721 0.00666183 1.80535721 0.00666183 3.64718628 0.01345825 C4.31072113 0.0131662 4.97425598 0.01287415 5.65789795 0.01257324 C7.85481772 0.01396847 10.05139985 0.02953836 12.2482605 0.04519653 C13.76997696 0.04892599 15.29169581 0.05177328 16.81341553 0.05377197 C20.82150891 0.0614138 24.8294577 0.0810669 28.8374939 0.10317993 C32.92621911 0.12362659 37.01496766 0.13277116 41.10372925 0.14285278 C49.12853524 0.16431236 57.15322364 0.19845483 65.177948 0.24050903 C65.177948 3.21050903 65.177948 6.18050903 65.177948 9.24050903 C56.36370108 9.30997871 47.54954821 9.36330469 38.73508739 9.39594555 C34.64229357 9.41161049 30.54968686 9.43286362 26.45700073 9.46682739 C22.50830048 9.49939171 18.55978035 9.5173558 14.61095619 9.52514076 C13.10342892 9.53068958 11.59591164 9.54152498 10.08846092 9.5576992 C7.97899341 9.57943533 5.87027291 9.58247768 3.76071167 9.58108521 C2.55936081 9.58774704 1.35800995 9.59440887 0.12025452 9.60127258 C-2.822052 9.24050903 -2.822052 9.24050903 -4.74519348 7.84812927 C-5.822052 6.24050903 -5.822052 6.24050903 -5.634552 4.17800903 C-4.31565014 1.03293536 -3.41686216 0.29120166 0 0 Z " fill="#BBDC95" transform="translate(385.8220520019531,352.7594909667969)"/>
<path d="M0 0 C3.06026147 2.12109981 4.90266431 3.84423084 6.99609375 6.984375 C7.42756809 10.95848072 6.95224522 14.5501478 4.71484375 17.90625 C1.40702468 21.18286323 -1.4131353 22.39147258 -6.06640625 22.609375 C-10.66505733 22.31539731 -13.52314946 21.11705611 -17.00390625 17.984375 C-19.59497909 14.56886989 -19.50678931 11.15112036 -19.00390625 6.984375 C-15.01854431 0.01396109 -7.64346928 -3.87388306 0 0 Z " fill="#5C6174" transform="translate(474.00390625,176.015625)"/>
<path d="M0 0 C3.96 0 7.92 0 12 0 C12 11.55 12 23.1 12 35 C8.04 35 4.08 35 0 35 C0 23.45 0 11.9 0 0 Z " fill="#101010" transform="translate(348,424)"/>
<path d="M0 0 C3.63 0 7.26 0 11 0 C11 11.55 11 23.1 11 35 C7.37 35 3.74 35 0 35 C0 23.45 0 11.9 0 0 Z " fill="#010101" transform="translate(510,424)"/>
<path d="M0 0 C3.59624391 1.63465632 6.21453934 3.42907867 8 7 C7.92806179 11.02853967 7.63067947 13.22690903 5.0625 16.375 C1.45655883 19.21604455 -1.2457017 19.38498453 -5.73828125 19.36328125 C-9.29566317 18.7918883 -10.85459738 16.7487971 -13 14 C-13.33 13.67 -13.66 13.34 -14 13 C-14.375 9.75 -14.375 9.75 -14 6 C-9.5871552 0.65813524 -6.862333 -0.46524292 0 0 Z " fill="#EBECEF" transform="translate(464,348)"/>
<path d="M0 0 C4.28894509 2.09884547 7.53164542 5.12673273 10.9375 8.4375 C10.46346629 12.94082029 9.03765873 14.82841822 5.6875 17.8125 C4.91921875 18.52148438 4.1509375 19.23046875 3.359375 19.9609375 C0.9375 21.4375 0.9375 21.4375 -1.55859375 21.41796875 C-4.6226112 20.21817408 -6.48214438 18.62499856 -8.875 16.375 C-9.66519531 15.64152344 -10.45539062 14.90804688 -11.26953125 14.15234375 C-11.86121094 13.58644531 -12.45289063 13.02054687 -13.0625 12.4375 C-12.3780607 7.46689984 -9.07052356 5.13195518 -5.3984375 2.0390625 C-3.0625 0.4375 -3.0625 0.4375 0 0 Z " fill="#FB6B6C" transform="translate(569.0625,288.5625)"/>
<path d="M0 0 C2.74383475 1.05701499 4.49124802 2.29613463 6.68359375 4.25 C7.369375 4.84425781 8.05515625 5.43851562 8.76171875 6.05078125 C10.53810344 8.05543968 11.0408722 9.32128142 11.43359375 11.9375 C9.88878962 13.47630489 8.32202435 14.99308825 6.74609375 16.5 C5.87597656 17.34691406 5.00585938 18.19382812 4.109375 19.06640625 C1.43359375 20.9375 1.43359375 20.9375 -1.09765625 20.953125 C-4.04326399 19.74132435 -6.00497447 18.24697219 -8.37890625 16.125 C-9.16910156 15.43792969 -9.95929688 14.75085938 -10.7734375 14.04296875 C-12.56640625 11.9375 -12.56640625 11.9375 -12.56640625 7.9375 C-10.5546875 5.76171875 -10.5546875 5.76171875 -7.87890625 3.625 C-7.00878906 2.90699219 -6.13867188 2.18898438 -5.2421875 1.44921875 C-2.56640625 -0.0625 -2.56640625 -0.0625 0 0 Z " fill="#FB6B6C" transform="translate(330.56640625,289.0625)"/>
<path d="M0 0 C3.31041646 0.48276907 4.6909649 1.04294508 7 3.4375 C8.72673477 8.83642406 9.00681984 14.38190949 6.5 19.5 C3.91848076 21.50067741 3.0700428 21.83751074 -0.0625 22.0625 C-4 21.4375 -4 21.4375 -5.71875 19.27734375 C-7.15649403 16.09063671 -7.43309544 13.85900401 -7.4375 10.375 C-7.45683594 9.35277344 -7.47617187 8.33054687 -7.49609375 7.27734375 C-6.69688131 2.70232451 -4.55810523 0.66472368 0 0 Z " fill="#F7F7F7" transform="translate(548,430.5625)"/>
<path d="M0 0 C2.40829792 2.40829792 2.25602579 2.99283556 2.265625 6.28125 C2.26820313 7.12300781 2.27078125 7.96476562 2.2734375 8.83203125 C2.26570313 9.71246094 2.25796875 10.59289062 2.25 11.5 C2.25773437 12.38042969 2.26546875 13.26085937 2.2734375 14.16796875 C2.27085937 15.00972656 2.26828125 15.85148437 2.265625 16.71875 C2.26336914 17.49154297 2.26111328 18.26433594 2.25878906 19.06054688 C2 21 2 21 0 23 C-3 23.25 -3 23.25 -6 23 C-8.7633734 20.2366266 -8.28850252 18.34452557 -8.32226562 14.57226562 C-8.31904297 13.74404297 -8.31582031 12.91582031 -8.3125 12.0625 C-8.32861328 11.23814453 -8.34472656 10.41378906 -8.36132812 9.56445312 C-8.36197266 8.77103516 -8.36261719 7.97761719 -8.36328125 7.16015625 C-8.36626221 6.43449463 -8.36924316 5.70883301 -8.37231445 4.96118164 C-7.48100121 0.2661526 -4.33745708 -0.55608424 0 0 Z " fill="#61667B" transform="translate(316,346)"/>
<path d="M0 0 C2.5 0.25 2.5 0.25 4.5 2.25 C4.75878906 4.18945312 4.75878906 4.18945312 4.765625 6.53125 C4.76820313 7.37300781 4.77078125 8.21476562 4.7734375 9.08203125 C4.76570313 9.96246094 4.75796875 10.84289062 4.75 11.75 C4.75773437 12.63042969 4.76546875 13.51085937 4.7734375 14.41796875 C4.77085937 15.25972656 4.76828125 16.10148437 4.765625 16.96875 C4.76336914 17.74154297 4.76111328 18.51433594 4.75878906 19.31054688 C4.5 21.25 4.5 21.25 2.5 23.25 C0 23.5 0 23.5 -2.5 23.25 C-4.90829792 20.84170208 -4.75602579 20.25716444 -4.765625 16.96875 C-4.76820313 16.12699219 -4.77078125 15.28523438 -4.7734375 14.41796875 C-4.76183594 13.09732422 -4.76183594 13.09732422 -4.75 11.75 C-4.75773437 10.86957031 -4.76546875 9.98914063 -4.7734375 9.08203125 C-4.77085937 8.24027344 -4.76828125 7.39851563 -4.765625 6.53125 C-4.76336914 5.75845703 -4.76111328 4.98566406 -4.75878906 4.18945312 C-4.33380336 1.00446592 -3.08523435 0.30852343 0 0 Z " fill="#595F75" transform="translate(332.5,345.75)"/>
<path d="M0 0 C0.125 3.375 0.125 3.375 0 7 C-2 9 -2 9 -4.12890625 9.23046875 C-4.93199219 9.21628906 -5.73507812 9.20210938 -6.5625 9.1875 C-7.77099609 9.17783203 -7.77099609 9.17783203 -9.00390625 9.16796875 C-11 9 -11 9 -12 8 C-12.3125 5.625 -12.3125 5.625 -12 3 C-8.70976944 -0.97569526 -4.75485572 -0.23774279 0 0 Z " fill="#F7F7F7" transform="translate(459,443)"/>
<path d="M0 0 C1.59138909 2.38708364 2.61345508 4.24907025 3.625 6.875 C3.88539063 7.53242188 4.14578125 8.18984375 4.4140625 8.8671875 C5 11 5 11 5 16 C1.7 16 -1.6 16 -5 16 C-3.85388265 10.26941324 -2.47605477 5.28975338 0 0 Z " fill="#EBEBEB" transform="translate(272,425)"/>
<path d="M0 0 C3.96 0 7.92 0 12 0 C12 2.64 12 5.28 12 8 C8.04 8 4.08 8 0 8 C0 5.36 0 2.72 0 0 Z " fill="#040404" transform="translate(348,411)"/>
<path d="M0 0 C3.63 0 7.26 0 11 0 C11 2.64 11 5.28 11 8 C7.37 8 3.74 8 0 8 C0 5.36 0 2.72 0 0 Z " fill="#000000" transform="translate(510,411)"/>
<path d="M0 0 C0.99 0.66 1.98 1.32 3 2 C2.25 6.75 2.25 6.75 0 9 C-3.1642235 9.33661952 -5.18513382 9.49943411 -7.9375 7.8125 C-9 6 -9 6 -8.8125 3.375 C-7.31900387 -0.99060407 -4.11719401 -0.2520731 0 0 Z " fill="#FB736E" transform="translate(442,295)"/>
<path d="M0 0 C0.99 0.66 1.98 1.32 3 2 C2.25 6.75 2.25 6.75 0 9 C-3.1642235 9.33661952 -5.18513382 9.49943411 -7.9375 7.8125 C-9 6 -9 6 -8.8125 3.375 C-7.31900387 -0.99060407 -4.11719401 -0.2520731 0 0 Z " fill="#FB726E" transform="translate(462,295)"/>
<path d="M0 0 C3.0625 0.25 3.0625 0.25 6.0625 2.25 C6.4375 4.75 6.4375 4.75 6.0625 7.25 C2.59326119 9.56282587 1.14044425 9.67478586 -2.9375 9.25 C-4.875 8 -4.875 8 -5.9375 6.25 C-5.56625621 2.16631835 -4.19907629 0.35736819 0 0 Z " fill="#FB726E" transform="translate(418.9375,294.75)"/>
<path d="M0 0 C3.625 0.25 3.625 0.25 5.625 1.5 C6.625 3.25 6.625 3.25 6.5 5.3125 C5.625 7.25 5.625 7.25 2.625 9.25 C-0.26663378 9.61145422 -1.7680447 9.63440503 -4.25 8.0625 C-5.375 6.25 -5.375 6.25 -5.125 3.625 C-3.98400587 0.01185192 -3.99789106 0.29614008 0 0 Z " fill="#FB716E" transform="translate(478.375,294.75)"/>
<path d="M0 0 C3.5 0.25 3.5 0.25 5.5 2.25 C5.8125 4.75 5.8125 4.75 5.5 7.25 C2.5 9.25 2.5 9.25 -1.125 8.9375 C-4.5 8.25 -4.5 8.25 -5.5 7.25 C-5.6875 4.8125 -5.6875 4.8125 -5.5 2.25 C-3.5 0.25 -3.5 0.25 0 0 Z " fill="#FB716E" transform="translate(518.5,294.75)"/>
<path d="M0 0 C3.5 0.25 3.5 0.25 5.5 2.25 C5.8125 4.75 5.8125 4.75 5.5 7.25 C2.5 9.25 2.5 9.25 -1.125 8.9375 C-4.5 8.25 -4.5 8.25 -5.5 7.25 C-5.6875 4.8125 -5.6875 4.8125 -5.5 2.25 C-3.5 0.25 -3.5 0.25 0 0 Z " fill="#FB716E" transform="translate(498.5,294.75)"/>
<path d="M0 0 C3.0625 0.25 3.0625 0.25 6.0625 2.25 C6.4375 4.75 6.4375 4.75 6.0625 7.25 C2.61004176 9.55163882 1.11511287 9.59490322 -2.9375 9.25 C-4.9375 7.25 -4.9375 7.25 -5.1875 4.75 C-4.80794286 0.95442855 -3.73304166 0.31770567 0 0 Z " fill="#FB716E" transform="translate(398.9375,294.75)"/>
<path d="M0 0 C3.5 0.25 3.5 0.25 5.5 2.25 C5.8125 4.75 5.8125 4.75 5.5 7.25 C2.5 9.25 2.5 9.25 -1.125 8.9375 C-4.5 8.25 -4.5 8.25 -5.5 7.25 C-5.6875 4.8125 -5.6875 4.8125 -5.5 2.25 C-3.5 0.25 -3.5 0.25 0 0 Z " fill="#FB716E" transform="translate(379.5,294.75)"/>
<path d="M0 0 C3.5 0.25 3.5 0.25 5.5 2.25 C5.8125 4.75 5.8125 4.75 5.5 7.25 C2.5 9.25 2.5 9.25 -1.125 8.9375 C-4.5 8.25 -4.5 8.25 -5.5 7.25 C-5.6875 4.8125 -5.6875 4.8125 -5.5 2.25 C-3.5 0.25 -3.5 0.25 0 0 Z " fill="#FB706D" transform="translate(359.5,294.75)"/>
<path d="M0 0 C3.0625 0.25 3.0625 0.25 6.0625 2.25 C6.4375 4.75 6.4375 4.75 6.0625 7.25 C3.0625 9.25 3.0625 9.25 -0.5625 8.9375 C-3.9375 8.25 -3.9375 8.25 -4.9375 7.25 C-5.125 4.8125 -5.125 4.8125 -4.9375 2.25 C-2.9375 0.25 -2.9375 0.25 0 0 Z " fill="#FB706D" transform="translate(537.9375,294.75)"/>
</svg>
