<?xml version="1.0" encoding="UTF-8" standalone="no"?>
<svg
   version="1.1"
   width="900"
   height="650"
   id="svg25"
   sodipodi:docname="EyesProject.svg"
   inkscape:version="1.3.2 (091e20e, 2023-11-25)"
   xml:space="preserve"
   inkscape:export-filename="EyesProject.png"
   inkscape:export-xdpi="96"
   inkscape:export-ydpi="96"
   xmlns:inkscape="http://www.inkscape.org/namespaces/inkscape"
   xmlns:sodipodi="http://sodipodi.sourceforge.net/DTD/sodipodi-0.dtd"
   xmlns="http://www.w3.org/2000/svg"
   xmlns:svg="http://www.w3.org/2000/svg"><defs
     id="defs25"><filter
       style="color-interpolation-filters:sRGB;"
       inkscape:label="Greyscale"
       id="filter25"
       x="0"
       y="0"
       width="1"
       height="1"><feColorMatrix
         values="0.21 7.46914 7.16049 0.51 0 0.21 7.46914 7.16049 0.51 0 0.21 7.46914 7.16049 0.51 0 0 0 0 1 0 "
         id="feColorMatrix25" /></filter></defs><sodipodi:namedview
     id="namedview25"
     pagecolor="#ffffff"
     bordercolor="#666666"
     borderopacity="1.0"
     inkscape:showpageshadow="2"
     inkscape:pageopacity="0.0"
     inkscape:pagecheckerboard="0"
     inkscape:deskcolor="#d1d1d1"
     inkscape:zoom="0.50666667"
     inkscape:cx="450"
     inkscape:cy="324.67105"
     inkscape:window-width="1400"
     inkscape:window-height="800"
     inkscape:window-x="0"
     inkscape:window-y="34"
     inkscape:window-maximized="0"
     inkscape:current-layer="svg25" /><path
     d="M0 0 C297 0 594 0 900 0 C900 214.5 900 429 900 650 C603 650 306 650 0 650 C0 435.5 0 221 0 0 Z "
     fill="#42AE96"
     transform="translate(0,0)"
     id="path1"
     style="fill:#3bafda;fill-opacity:1" /><path
     d="M0 0 C1.09900635 0.53512207 1.09900635 0.53512207 2.22021484 1.08105469 C18.64205291 9.17168755 33.8259769 19.43755483 48 31 C48.55606934 31.45310547 49.11213867 31.90621094 49.68505859 32.37304688 C62.71956989 43.08272141 74.59307409 54.7011299 85 68 C85.62777344 68.74894531 86.25554687 69.49789062 86.90234375 70.26953125 C97.51220736 83.005707 106.33548307 97.32945277 114 112 C114.59095459 113.11689209 114.59095459 113.11689209 115.19384766 114.25634766 C126.7151252 136.29883942 134.53223173 160.55677504 139 185 C139.16081055 185.82193848 139.32162109 186.64387695 139.48730469 187.49072266 C151.65505928 251.65367598 134.325038 321.49029126 98 375 C94.8426524 379.48068807 91.47192603 383.75783156 88 388 C87.26394531 388.92683594 86.52789063 389.85367187 85.76953125 390.80859375 C74.49207353 404.88046577 62.1412636 417.79023693 48 429 C46.92761957 429.87406123 45.85602952 430.7490929 44.78515625 431.625 C0.92087611 467.22009826 -55.67643095 486.5532529 -112.05224609 486.26074219 C-114.49992613 486.25000032 -116.94687274 486.26073762 -119.39453125 486.2734375 C-134.81623563 486.28854003 -150.0432447 485.01272583 -165.125 481.6875 C-166.14013672 481.46731201 -167.15527344 481.24712402 -168.20117188 481.02026367 C-224.03695638 468.64615678 -279.62534503 436.44527746 -315 391 C-315.78761719 390.02933594 -316.57523438 389.05867188 -317.38671875 388.05859375 C-339.42501011 360.41558779 -352.98200258 327.92630707 -362 294 C-362.20995605 293.21399414 -362.41991211 292.42798828 -362.63623047 291.61816406 C-367.33259046 273.7284012 -370.08200702 255.12136628 -370.23828125 236.62109375 C-370.2480751 235.65929703 -370.25786896 234.69750031 -370.26795959 233.70655823 C-370.5873366 194.25703859 -370.5873366 194.25703859 -366 175 C-365.78569336 174.04416016 -365.57138672 173.08832031 -365.35058594 172.10351562 C-355.5943752 129.01713517 -333.62825249 89.78830037 -303.46875 57.65625 C-301.48747998 55.52450377 -299.60792973 53.36209906 -297.75 51.125 C-258.68135195 6.40898813 -196.2163415 -21.29263582 -137.72021484 -25.7890625 C-89.71657879 -28.51088568 -43.43762078 -21.28120976 0 0 Z "
     fill="#FEFEFE"
     transform="translate(564,95)"
     id="path2" /><g
     transform="matrix(0.16259104,0,0,-0.15225318,204.43178,588.53422)"
     fill="#000000"
     stroke="none"
     id="g5"
     style="stroke-width:0.847437;filter:url(#filter25)"><path
       d="m 1840,2761 c -140,-77 -261,-144 -267,-151 -10,-8 -13,-85 -13,-320 v -308 l 258,-141 c 141,-77 265,-143 274,-146 12,-5 105,40 282,137 l 265,143 3,314 3,313 -25,17 c -39,27 -506,281 -516,281 -5,0 -124,-63 -264,-139 z m 240,-195 v -275 l -177,-97 c -98,-53 -204,-112 -236,-130 l -57,-34 2,277 3,276 230,128 c 127,70 231,127 233,128 1,1 2,-122 2,-273 z m 290,139 c 118,-64 218,-120 223,-124 4,-4 6,-129 5,-277 l -3,-271 -230,128 -230,127 -5,272 c -3,149 -3,274 -1,276 2,2 9,0 15,-5 6,-5 108,-61 226,-126 z m -154,-516 c 60,-33 164,-90 232,-126 68,-36 121,-67 118,-70 -5,-5 -458,-253 -462,-253 -14,0 -458,252 -454,257 5,8 438,250 451,252 3,1 55,-26 115,-60 z"
       id="path1-3"
       style="stroke-width:0.847437" /><path
       d="m 1264,2842 c -6,-4 -27,-47 -47,-97 -19,-49 -126,-310 -236,-579 -111,-269 -201,-495 -201,-503 0,-9 8,-13 21,-11 17,2 60,99 260,587 240,584 259,642 203,603 z"
       id="path2-8"
       style="stroke-width:0.847437" /><path
       d="m 1316,1601 c -120,-120 -167,-174 -163,-185 4,-9 12,-16 19,-16 7,0 89,76 182,169 120,120 167,174 163,185 -4,9 -12,16 -19,16 -7,0 -89,-76 -182,-169 z"
       id="path3"
       style="stroke-width:0.847437" /><path
       d="m 362,1731 c -9,-5 -12,-149 -10,-567 l 3,-559 h 560 c 553,0 560,0 560,20 0,18 -8,20 -87,23 l -87,3 -6,57 c -43,367 -275,665 -615,786 -74,27 -255,60 -271,50 -5,-3 -9,37 -9,89 0,95 -8,117 -38,98 z m 148,-241 c 36,-6 99,-22 140,-35 l 75,-25 v -88 c 1,-113 33,-188 111,-262 81,-77 149,-105 256,-105 h 87 l 15,-40 c 23,-62 46,-158 52,-224 l 7,-61 H 826 400 v 425 425 h 23 c 12,0 51,-5 87,-10 z m 475,-245 c 50,-49 109,-120 132,-157 l 41,-66 -26,-5 c -40,-8 -128,9 -180,35 -108,52 -173,153 -180,281 l -5,79 63,-39 c 35,-21 104,-78 155,-128 z"
       id="path4"
       style="stroke-width:0.847437" /><path
       d="m 2540,1541 c -8,-5 -265,-111 -570,-236 -305,-125 -562,-234 -570,-241 -20,-19 1,-39 32,-30 13,3 277,111 588,239 472,195 565,236 565,252 0,22 -22,29 -45,16 z"
       id="path5"
       style="stroke-width:0.847437" /></g></svg>
