<?xml version="1.0" encoding="UTF-8" standalone="no"?>
<svg
   version="1.1"
   width="900"
   height="650"
   id="svg31"
   sodipodi:docname="Hands.svg"
   xml:space="preserve"
   inkscape:version="1.3.2 (091e20e, 2023-11-25)"
   inkscape:export-filename="Hands.png"
   inkscape:export-xdpi="96"
   inkscape:export-ydpi="96"
   xmlns:inkscape="http://www.inkscape.org/namespaces/inkscape"
   xmlns:sodipodi="http://sodipodi.sourceforge.net/DTD/sodipodi-0.dtd"
   xmlns="http://www.w3.org/2000/svg"
   xmlns:svg="http://www.w3.org/2000/svg"><defs
     id="defs31"><clipPath
       clipPathUnits="userSpaceOnUse"
       id="clipPath52"><path
         d="m 356.28343,10.778091 c 1.41737,0.281778 1.41737,0.281778 2.86338,0.569248 49.88108,10.304603 94.66936,33.695708 132.37488,66.819587 0.71221,0.625239 1.42442,1.250488 2.1582,1.894674 7.88089,6.955934 15.55309,13.900706 22.32938,21.89757 0.88098,0.9647 1.76196,1.9294 2.66964,2.92333 28.4809,31.34562 48.33779,70.13398 58.54933,110.63058 0.20052,0.7643 0.40103,1.52861 0.60762,2.31606 17.6594,68.22848 5.55297,145.32854 -30.85188,205.88722 -6.67945,10.81791 -13.84927,21.03824 -22.07013,30.80065 -0.80637,0.98979 -1.61274,1.97959 -2.44354,2.99938 -6.58775,8.00659 -13.67694,15.52151 -20.93098,22.9558 -1.18802,1.2233 -1.18802,1.2233 -2.40006,2.47132 -5.81835,5.8269 -12.22805,10.85089 -18.74831,15.91359 -0.84224,0.68729 -1.68447,1.37457 -2.55224,2.08267 -38.00917,30.70075 -85.89421,49.35072 -134.28606,57.12758 -0.77462,0.12529 -1.54925,0.25059 -2.34734,0.37968 -74.18708,10.98003 -150.3093,-8.47832 -210.45813,-51.41134 -7.22849,-5.35687 -14.16827,-11.01648 -21.00923,-16.83031 -0.56245,-0.4766 -1.12491,-0.95321 -1.7044,-1.44424 -15.419461,-13.15281 -28.578177,-27.83591 -40.592344,-43.97732 -0.494649,-0.66428 -0.989309,-1.32856 -1.498951,-2.01297 -19.772691,-26.90458 -32.82246,-57.12153 -41.91086,-88.83016 -0.237997,-0.81901 -0.476006,-1.63804 -0.721215,-2.48187 -1.320605,-4.56262 -2.563183,-9.13785 -3.731074,-13.74011 -0.225263,-0.87967 -0.450538,-1.75933 -0.682625,-2.66564 -3.818905,-16.56965 -4.224965,-33.82543 -4.187065,-50.73173 2.34e-4,-0.98112 4.67e-4,-1.96224 7.12e-4,-2.97307 0.06032,-25.38243 3.309297,-50.01233 10.434339,-74.48692 0.231719,-0.80194 0.46345,-1.60389 0.702192,-2.43013 11.713303,-39.41224 34.9329,-76.34545 63.54729,-106.29942 2.266615,-2.379797 4.463375,-4.799793 6.639297,-7.257651 6.261594,-6.979305 13.088134,-13.248086 20.383134,-19.196018 0.82538,-0.679355 0.82538,-0.679355 1.66744,-1.372423 11.74735,-9.612143 24.25191,-17.799585 37.29008,-25.66422 0.6923,-0.423621 1.38461,-0.847253 2.09789,-1.283711 26.28315,-15.971562 56.72289,-25.361135 86.94788,-31.160262 0.85623,-0.167115 1.71246,-0.33423 2.59463,-0.506409 34.68342,-6.5783988 74.51889,-7.8528748 109.26912,-0.913015 z"
         fill="#ebeeee"
         id="path52"
         style="stroke-width:1" /></clipPath><filter
       style="color-interpolation-filters:sRGB;"
       inkscape:label="Greyscale"
       id="filter52"
       x="0"
       y="0"
       width="1"
       height="1"><feColorMatrix
         values="10 2.28395 7.16049 -4.75309 0 10 2.28395 7.16049 -4.75309 0 10 2.28395 7.16049 -4.75309 0 0 0 0 1 0 "
         id="feColorMatrix52"
         result="fbSourceGraphic" /><feColorMatrix
         result="fbSourceGraphicAlpha"
         in="fbSourceGraphic"
         values="0 0 0 -1 0 0 0 0 -1 0 0 0 0 -1 0 0 0 0 1 0"
         id="feColorMatrix69" /><feColorMatrix
         id="feColorMatrix70"
         values="10 2.28395 7.16049 -4.75309 0 10 2.28395 7.16049 -4.75309 0 10 2.28395 7.16049 -4.75309 0 0 0 0 1 0 "
         in="fbSourceGraphic"
         result="fbSourceGraphic" /><feColorMatrix
         result="fbSourceGraphicAlpha"
         in="fbSourceGraphic"
         values="0 0 0 -1 0 0 0 0 -1 0 0 0 0 -1 0 0 0 0 1 0"
         id="feColorMatrix532" /><feColorMatrix
         id="feColorMatrix533"
         values="10 3.76543 -5.24691 0.555556 0 10 3.76543 -5.24691 0.555556 0 10 3.76543 -5.24691 0.555556 0 0 0 0 1 0 "
         in="fbSourceGraphic" /></filter><filter
       style="color-interpolation-filters:sRGB;"
       inkscape:label="Greyscale"
       id="filter53"
       x="0"
       y="0"
       width="1"
       height="1"><feColorMatrix
         values="10 2.28395 7.16049 -4.75309 0 10 2.28395 7.16049 -4.75309 0 10 2.28395 7.16049 -4.75309 0 0 0 0 1 0 "
         id="feColorMatrix53"
         result="fbSourceGraphic" /><feColorMatrix
         result="fbSourceGraphicAlpha"
         in="fbSourceGraphic"
         values="0 0 0 -1 0 0 0 0 -1 0 0 0 0 -1 0 0 0 0 1 0"
         id="feColorMatrix71" /><feColorMatrix
         id="feColorMatrix72"
         values="10 2.28395 7.16049 -4.75309 0 10 2.28395 7.16049 -4.75309 0 10 2.28395 7.16049 -4.75309 0 0 0 0 1 0 "
         in="fbSourceGraphic"
         result="fbSourceGraphic" /><feColorMatrix
         result="fbSourceGraphicAlpha"
         in="fbSourceGraphic"
         values="0 0 0 -1 0 0 0 0 -1 0 0 0 0 -1 0 0 0 0 1 0"
         id="feColorMatrix534" /><feColorMatrix
         id="feColorMatrix535"
         values="10 3.76543 -5.24691 0.555556 0 10 3.76543 -5.24691 0.555556 0 10 3.76543 -5.24691 0.555556 0 0 0 0 1 0 "
         in="fbSourceGraphic" /></filter><filter
       style="color-interpolation-filters:sRGB;"
       inkscape:label="Greyscale"
       id="filter54"
       x="0"
       y="0"
       width="1"
       height="1"><feColorMatrix
         values="10 2.28395 7.16049 -4.75309 0 10 2.28395 7.16049 -4.75309 0 10 2.28395 7.16049 -4.75309 0 0 0 0 1 0 "
         id="feColorMatrix54"
         result="fbSourceGraphic" /><feColorMatrix
         result="fbSourceGraphicAlpha"
         in="fbSourceGraphic"
         values="0 0 0 -1 0 0 0 0 -1 0 0 0 0 -1 0 0 0 0 1 0"
         id="feColorMatrix73" /><feColorMatrix
         id="feColorMatrix74"
         values="10 2.28395 7.16049 -4.75309 0 10 2.28395 7.16049 -4.75309 0 10 2.28395 7.16049 -4.75309 0 0 0 0 1 0 "
         in="fbSourceGraphic"
         result="fbSourceGraphic" /><feColorMatrix
         result="fbSourceGraphicAlpha"
         in="fbSourceGraphic"
         values="0 0 0 -1 0 0 0 0 -1 0 0 0 0 -1 0 0 0 0 1 0"
         id="feColorMatrix536" /><feColorMatrix
         id="feColorMatrix537"
         values="10 3.76543 -5.24691 0.555556 0 10 3.76543 -5.24691 0.555556 0 10 3.76543 -5.24691 0.555556 0 0 0 0 1 0 "
         in="fbSourceGraphic" /></filter><filter
       style="color-interpolation-filters:sRGB;"
       inkscape:label="Greyscale"
       id="filter55"
       x="0"
       y="0"
       width="1"
       height="1"><feColorMatrix
         values="10 2.28395 7.16049 -4.75309 0 10 2.28395 7.16049 -4.75309 0 10 2.28395 7.16049 -4.75309 0 0 0 0 1 0 "
         id="feColorMatrix55"
         result="fbSourceGraphic" /><feColorMatrix
         result="fbSourceGraphicAlpha"
         in="fbSourceGraphic"
         values="0 0 0 -1 0 0 0 0 -1 0 0 0 0 -1 0 0 0 0 1 0"
         id="feColorMatrix75" /><feColorMatrix
         id="feColorMatrix76"
         values="10 2.28395 7.16049 -4.75309 0 10 2.28395 7.16049 -4.75309 0 10 2.28395 7.16049 -4.75309 0 0 0 0 1 0 "
         in="fbSourceGraphic"
         result="fbSourceGraphic" /><feColorMatrix
         result="fbSourceGraphicAlpha"
         in="fbSourceGraphic"
         values="0 0 0 -1 0 0 0 0 -1 0 0 0 0 -1 0 0 0 0 1 0"
         id="feColorMatrix538" /><feColorMatrix
         id="feColorMatrix539"
         values="10 3.76543 -5.24691 0.555556 0 10 3.76543 -5.24691 0.555556 0 10 3.76543 -5.24691 0.555556 0 0 0 0 1 0 "
         in="fbSourceGraphic" /></filter><filter
       style="color-interpolation-filters:sRGB;"
       inkscape:label="Greyscale"
       id="filter56"
       x="0"
       y="0"
       width="1"
       height="1"><feColorMatrix
         values="10 2.28395 7.16049 -4.75309 0 10 2.28395 7.16049 -4.75309 0 10 2.28395 7.16049 -4.75309 0 0 0 0 1 0 "
         id="feColorMatrix56"
         result="fbSourceGraphic" /><feColorMatrix
         result="fbSourceGraphicAlpha"
         in="fbSourceGraphic"
         values="0 0 0 -1 0 0 0 0 -1 0 0 0 0 -1 0 0 0 0 1 0"
         id="feColorMatrix77" /><feColorMatrix
         id="feColorMatrix78"
         values="10 2.28395 7.16049 -4.75309 0 10 2.28395 7.16049 -4.75309 0 10 2.28395 7.16049 -4.75309 0 0 0 0 1 0 "
         in="fbSourceGraphic"
         result="fbSourceGraphic" /><feColorMatrix
         result="fbSourceGraphicAlpha"
         in="fbSourceGraphic"
         values="0 0 0 -1 0 0 0 0 -1 0 0 0 0 -1 0 0 0 0 1 0"
         id="feColorMatrix540" /><feColorMatrix
         id="feColorMatrix541"
         values="10 3.76543 -5.24691 0.555556 0 10 3.76543 -5.24691 0.555556 0 10 3.76543 -5.24691 0.555556 0 0 0 0 1 0 "
         in="fbSourceGraphic" /></filter><filter
       style="color-interpolation-filters:sRGB;"
       inkscape:label="Greyscale"
       id="filter57"
       x="0"
       y="0"
       width="1"
       height="1"><feColorMatrix
         values="10 2.28395 7.16049 -4.75309 0 10 2.28395 7.16049 -4.75309 0 10 2.28395 7.16049 -4.75309 0 0 0 0 1 0 "
         id="feColorMatrix57"
         result="fbSourceGraphic" /><feColorMatrix
         result="fbSourceGraphicAlpha"
         in="fbSourceGraphic"
         values="0 0 0 -1 0 0 0 0 -1 0 0 0 0 -1 0 0 0 0 1 0"
         id="feColorMatrix79" /><feColorMatrix
         id="feColorMatrix80"
         values="10 2.28395 7.16049 -4.75309 0 10 2.28395 7.16049 -4.75309 0 10 2.28395 7.16049 -4.75309 0 0 0 0 1 0 "
         in="fbSourceGraphic"
         result="fbSourceGraphic" /><feColorMatrix
         result="fbSourceGraphicAlpha"
         in="fbSourceGraphic"
         values="0 0 0 -1 0 0 0 0 -1 0 0 0 0 -1 0 0 0 0 1 0"
         id="feColorMatrix542" /><feColorMatrix
         id="feColorMatrix543"
         values="10 3.76543 -5.24691 0.555556 0 10 3.76543 -5.24691 0.555556 0 10 3.76543 -5.24691 0.555556 0 0 0 0 1 0 "
         in="fbSourceGraphic" /></filter><filter
       style="color-interpolation-filters:sRGB;"
       inkscape:label="Greyscale"
       id="filter58"
       x="0"
       y="0"
       width="1"
       height="1"><feColorMatrix
         values="10 2.28395 7.16049 -4.75309 0 10 2.28395 7.16049 -4.75309 0 10 2.28395 7.16049 -4.75309 0 0 0 0 1 0 "
         id="feColorMatrix58"
         result="fbSourceGraphic" /><feColorMatrix
         result="fbSourceGraphicAlpha"
         in="fbSourceGraphic"
         values="0 0 0 -1 0 0 0 0 -1 0 0 0 0 -1 0 0 0 0 1 0"
         id="feColorMatrix81" /><feColorMatrix
         id="feColorMatrix82"
         values="10 2.28395 7.16049 -4.75309 0 10 2.28395 7.16049 -4.75309 0 10 2.28395 7.16049 -4.75309 0 0 0 0 1 0 "
         in="fbSourceGraphic"
         result="fbSourceGraphic" /><feColorMatrix
         result="fbSourceGraphicAlpha"
         in="fbSourceGraphic"
         values="0 0 0 -1 0 0 0 0 -1 0 0 0 0 -1 0 0 0 0 1 0"
         id="feColorMatrix544" /><feColorMatrix
         id="feColorMatrix545"
         values="10 3.76543 -5.24691 0.555556 0 10 3.76543 -5.24691 0.555556 0 10 3.76543 -5.24691 0.555556 0 0 0 0 1 0 "
         in="fbSourceGraphic" /></filter><filter
       style="color-interpolation-filters:sRGB;"
       inkscape:label="Greyscale"
       id="filter59"
       x="0"
       y="0"
       width="1"
       height="1"><feColorMatrix
         values="10 2.28395 7.16049 -4.75309 0 10 2.28395 7.16049 -4.75309 0 10 2.28395 7.16049 -4.75309 0 0 0 0 1 0 "
         id="feColorMatrix59"
         result="fbSourceGraphic" /><feColorMatrix
         result="fbSourceGraphicAlpha"
         in="fbSourceGraphic"
         values="0 0 0 -1 0 0 0 0 -1 0 0 0 0 -1 0 0 0 0 1 0"
         id="feColorMatrix83" /><feColorMatrix
         id="feColorMatrix84"
         values="10 2.28395 7.16049 -4.75309 0 10 2.28395 7.16049 -4.75309 0 10 2.28395 7.16049 -4.75309 0 0 0 0 1 0 "
         in="fbSourceGraphic"
         result="fbSourceGraphic" /><feColorMatrix
         result="fbSourceGraphicAlpha"
         in="fbSourceGraphic"
         values="0 0 0 -1 0 0 0 0 -1 0 0 0 0 -1 0 0 0 0 1 0"
         id="feColorMatrix546" /><feColorMatrix
         id="feColorMatrix547"
         values="10 3.76543 -5.24691 0.555556 0 10 3.76543 -5.24691 0.555556 0 10 3.76543 -5.24691 0.555556 0 0 0 0 1 0 "
         in="fbSourceGraphic" /></filter><filter
       style="color-interpolation-filters:sRGB;"
       inkscape:label="Greyscale"
       id="filter60"
       x="0"
       y="0"
       width="1"
       height="1"><feColorMatrix
         values="10 2.28395 7.16049 -4.75309 0 10 2.28395 7.16049 -4.75309 0 10 2.28395 7.16049 -4.75309 0 0 0 0 1 0 "
         id="feColorMatrix60"
         result="fbSourceGraphic" /><feColorMatrix
         result="fbSourceGraphicAlpha"
         in="fbSourceGraphic"
         values="0 0 0 -1 0 0 0 0 -1 0 0 0 0 -1 0 0 0 0 1 0"
         id="feColorMatrix85" /><feColorMatrix
         id="feColorMatrix86"
         values="10 2.28395 7.16049 -4.75309 0 10 2.28395 7.16049 -4.75309 0 10 2.28395 7.16049 -4.75309 0 0 0 0 1 0 "
         in="fbSourceGraphic"
         result="fbSourceGraphic" /><feColorMatrix
         result="fbSourceGraphicAlpha"
         in="fbSourceGraphic"
         values="0 0 0 -1 0 0 0 0 -1 0 0 0 0 -1 0 0 0 0 1 0"
         id="feColorMatrix548" /><feColorMatrix
         id="feColorMatrix549"
         values="10 3.76543 -5.24691 0.555556 0 10 3.76543 -5.24691 0.555556 0 10 3.76543 -5.24691 0.555556 0 0 0 0 1 0 "
         in="fbSourceGraphic" /></filter><filter
       style="color-interpolation-filters:sRGB;"
       inkscape:label="Greyscale"
       id="filter61"
       x="0"
       y="0"
       width="1"
       height="1"><feColorMatrix
         values="10 2.28395 7.16049 -4.75309 0 10 2.28395 7.16049 -4.75309 0 10 2.28395 7.16049 -4.75309 0 0 0 0 1 0 "
         id="feColorMatrix61"
         result="fbSourceGraphic" /><feColorMatrix
         result="fbSourceGraphicAlpha"
         in="fbSourceGraphic"
         values="0 0 0 -1 0 0 0 0 -1 0 0 0 0 -1 0 0 0 0 1 0"
         id="feColorMatrix87" /><feColorMatrix
         id="feColorMatrix88"
         values="10 2.28395 7.16049 -4.75309 0 10 2.28395 7.16049 -4.75309 0 10 2.28395 7.16049 -4.75309 0 0 0 0 1 0 "
         in="fbSourceGraphic"
         result="fbSourceGraphic" /><feColorMatrix
         result="fbSourceGraphicAlpha"
         in="fbSourceGraphic"
         values="0 0 0 -1 0 0 0 0 -1 0 0 0 0 -1 0 0 0 0 1 0"
         id="feColorMatrix550" /><feColorMatrix
         id="feColorMatrix551"
         values="10 3.76543 -5.24691 0.555556 0 10 3.76543 -5.24691 0.555556 0 10 3.76543 -5.24691 0.555556 0 0 0 0 1 0 "
         in="fbSourceGraphic" /></filter><filter
       style="color-interpolation-filters:sRGB;"
       inkscape:label="Greyscale"
       id="filter62"
       x="0"
       y="0"
       width="1"
       height="1"><feColorMatrix
         values="10 2.28395 7.16049 -4.75309 0 10 2.28395 7.16049 -4.75309 0 10 2.28395 7.16049 -4.75309 0 0 0 0 1 0 "
         id="feColorMatrix62"
         result="fbSourceGraphic" /><feColorMatrix
         result="fbSourceGraphicAlpha"
         in="fbSourceGraphic"
         values="0 0 0 -1 0 0 0 0 -1 0 0 0 0 -1 0 0 0 0 1 0"
         id="feColorMatrix89" /><feColorMatrix
         id="feColorMatrix90"
         values="10 2.28395 7.16049 -4.75309 0 10 2.28395 7.16049 -4.75309 0 10 2.28395 7.16049 -4.75309 0 0 0 0 1 0 "
         in="fbSourceGraphic"
         result="fbSourceGraphic" /><feColorMatrix
         result="fbSourceGraphicAlpha"
         in="fbSourceGraphic"
         values="0 0 0 -1 0 0 0 0 -1 0 0 0 0 -1 0 0 0 0 1 0"
         id="feColorMatrix552" /><feColorMatrix
         id="feColorMatrix553"
         values="10 3.76543 -5.24691 0.555556 0 10 3.76543 -5.24691 0.555556 0 10 3.76543 -5.24691 0.555556 0 0 0 0 1 0 "
         in="fbSourceGraphic" /></filter><filter
       style="color-interpolation-filters:sRGB;"
       inkscape:label="Greyscale"
       id="filter63"
       x="0"
       y="0"
       width="1"
       height="1"><feColorMatrix
         values="10 2.28395 7.16049 -4.75309 0 10 2.28395 7.16049 -4.75309 0 10 2.28395 7.16049 -4.75309 0 0 0 0 1 0 "
         id="feColorMatrix63"
         result="fbSourceGraphic" /><feColorMatrix
         result="fbSourceGraphicAlpha"
         in="fbSourceGraphic"
         values="0 0 0 -1 0 0 0 0 -1 0 0 0 0 -1 0 0 0 0 1 0"
         id="feColorMatrix91" /><feColorMatrix
         id="feColorMatrix92"
         values="10 2.28395 7.16049 -4.75309 0 10 2.28395 7.16049 -4.75309 0 10 2.28395 7.16049 -4.75309 0 0 0 0 1 0 "
         in="fbSourceGraphic"
         result="fbSourceGraphic" /><feColorMatrix
         result="fbSourceGraphicAlpha"
         in="fbSourceGraphic"
         values="0 0 0 -1 0 0 0 0 -1 0 0 0 0 -1 0 0 0 0 1 0"
         id="feColorMatrix554" /><feColorMatrix
         id="feColorMatrix555"
         values="10 3.76543 -5.24691 0.555556 0 10 3.76543 -5.24691 0.555556 0 10 3.76543 -5.24691 0.555556 0 0 0 0 1 0 "
         in="fbSourceGraphic" /></filter><filter
       style="color-interpolation-filters:sRGB;"
       inkscape:label="Greyscale"
       id="filter64"
       x="0"
       y="0"
       width="1"
       height="1"><feColorMatrix
         values="10 2.28395 7.16049 -4.75309 0 10 2.28395 7.16049 -4.75309 0 10 2.28395 7.16049 -4.75309 0 0 0 0 1 0 "
         id="feColorMatrix64"
         result="fbSourceGraphic" /><feColorMatrix
         result="fbSourceGraphicAlpha"
         in="fbSourceGraphic"
         values="0 0 0 -1 0 0 0 0 -1 0 0 0 0 -1 0 0 0 0 1 0"
         id="feColorMatrix93" /><feColorMatrix
         id="feColorMatrix94"
         values="10 2.28395 7.16049 -4.75309 0 10 2.28395 7.16049 -4.75309 0 10 2.28395 7.16049 -4.75309 0 0 0 0 1 0 "
         in="fbSourceGraphic"
         result="fbSourceGraphic" /><feColorMatrix
         result="fbSourceGraphicAlpha"
         in="fbSourceGraphic"
         values="0 0 0 -1 0 0 0 0 -1 0 0 0 0 -1 0 0 0 0 1 0"
         id="feColorMatrix556" /><feColorMatrix
         id="feColorMatrix557"
         values="10 3.76543 -5.24691 0.555556 0 10 3.76543 -5.24691 0.555556 0 10 3.76543 -5.24691 0.555556 0 0 0 0 1 0 "
         in="fbSourceGraphic" /></filter><filter
       style="color-interpolation-filters:sRGB;"
       inkscape:label="Greyscale"
       id="filter65"
       x="0"
       y="0"
       width="1"
       height="1"><feColorMatrix
         values="10 2.28395 7.16049 -4.75309 0 10 2.28395 7.16049 -4.75309 0 10 2.28395 7.16049 -4.75309 0 0 0 0 1 0 "
         id="feColorMatrix65"
         result="fbSourceGraphic" /><feColorMatrix
         result="fbSourceGraphicAlpha"
         in="fbSourceGraphic"
         values="0 0 0 -1 0 0 0 0 -1 0 0 0 0 -1 0 0 0 0 1 0"
         id="feColorMatrix95" /><feColorMatrix
         id="feColorMatrix96"
         values="10 2.28395 7.16049 -4.75309 0 10 2.28395 7.16049 -4.75309 0 10 2.28395 7.16049 -4.75309 0 0 0 0 1 0 "
         in="fbSourceGraphic"
         result="fbSourceGraphic" /><feColorMatrix
         result="fbSourceGraphicAlpha"
         in="fbSourceGraphic"
         values="0 0 0 -1 0 0 0 0 -1 0 0 0 0 -1 0 0 0 0 1 0"
         id="feColorMatrix558" /><feColorMatrix
         id="feColorMatrix559"
         values="10 3.76543 -5.24691 0.555556 0 10 3.76543 -5.24691 0.555556 0 10 3.76543 -5.24691 0.555556 0 0 0 0 1 0 "
         in="fbSourceGraphic" /></filter><filter
       style="color-interpolation-filters:sRGB;"
       inkscape:label="Greyscale"
       id="filter66"
       x="0"
       y="0"
       width="1"
       height="1"><feColorMatrix
         values="10 2.28395 7.16049 -4.75309 0 10 2.28395 7.16049 -4.75309 0 10 2.28395 7.16049 -4.75309 0 0 0 0 1 0 "
         id="feColorMatrix66"
         result="fbSourceGraphic" /><feColorMatrix
         result="fbSourceGraphicAlpha"
         in="fbSourceGraphic"
         values="0 0 0 -1 0 0 0 0 -1 0 0 0 0 -1 0 0 0 0 1 0"
         id="feColorMatrix97" /><feColorMatrix
         id="feColorMatrix98"
         values="10 2.28395 7.16049 -4.75309 0 10 2.28395 7.16049 -4.75309 0 10 2.28395 7.16049 -4.75309 0 0 0 0 1 0 "
         in="fbSourceGraphic"
         result="fbSourceGraphic" /><feColorMatrix
         result="fbSourceGraphicAlpha"
         in="fbSourceGraphic"
         values="0 0 0 -1 0 0 0 0 -1 0 0 0 0 -1 0 0 0 0 1 0"
         id="feColorMatrix560" /><feColorMatrix
         id="feColorMatrix561"
         values="10 3.76543 -5.24691 0.555556 0 10 3.76543 -5.24691 0.555556 0 10 3.76543 -5.24691 0.555556 0 0 0 0 1 0 "
         in="fbSourceGraphic" /></filter><filter
       style="color-interpolation-filters:sRGB;"
       inkscape:label="Greyscale"
       id="filter67"
       x="0"
       y="0"
       width="1"
       height="1"><feColorMatrix
         values="10 2.28395 7.16049 -4.75309 0 10 2.28395 7.16049 -4.75309 0 10 2.28395 7.16049 -4.75309 0 0 0 0 1 0 "
         id="feColorMatrix67"
         result="fbSourceGraphic" /><feColorMatrix
         result="fbSourceGraphicAlpha"
         in="fbSourceGraphic"
         values="0 0 0 -1 0 0 0 0 -1 0 0 0 0 -1 0 0 0 0 1 0"
         id="feColorMatrix99" /><feColorMatrix
         id="feColorMatrix100"
         values="10 2.28395 7.16049 -4.75309 0 10 2.28395 7.16049 -4.75309 0 10 2.28395 7.16049 -4.75309 0 0 0 0 1 0 "
         in="fbSourceGraphic"
         result="fbSourceGraphic" /><feColorMatrix
         result="fbSourceGraphicAlpha"
         in="fbSourceGraphic"
         values="0 0 0 -1 0 0 0 0 -1 0 0 0 0 -1 0 0 0 0 1 0"
         id="feColorMatrix562" /><feColorMatrix
         id="feColorMatrix563"
         values="10 3.76543 -5.24691 0.555556 0 10 3.76543 -5.24691 0.555556 0 10 3.76543 -5.24691 0.555556 0 0 0 0 1 0 "
         in="fbSourceGraphic" /></filter><filter
       style="color-interpolation-filters:sRGB;"
       inkscape:label="Greyscale"
       id="filter68"
       x="0"
       y="0"
       width="1"
       height="1"><feColorMatrix
         values="10 2.28395 7.16049 -4.75309 0 10 2.28395 7.16049 -4.75309 0 10 2.28395 7.16049 -4.75309 0 0 0 0 1 0 "
         id="feColorMatrix68"
         result="fbSourceGraphic" /><feColorMatrix
         result="fbSourceGraphicAlpha"
         in="fbSourceGraphic"
         values="0 0 0 -1 0 0 0 0 -1 0 0 0 0 -1 0 0 0 0 1 0"
         id="feColorMatrix101" /><feColorMatrix
         id="feColorMatrix102"
         values="10 2.28395 7.16049 -4.75309 0 10 2.28395 7.16049 -4.75309 0 10 2.28395 7.16049 -4.75309 0 0 0 0 1 0 "
         in="fbSourceGraphic"
         result="fbSourceGraphic" /><feColorMatrix
         result="fbSourceGraphicAlpha"
         in="fbSourceGraphic"
         values="0 0 0 -1 0 0 0 0 -1 0 0 0 0 -1 0 0 0 0 1 0"
         id="feColorMatrix564" /><feColorMatrix
         id="feColorMatrix565"
         values="10 3.76543 -5.24691 0.555556 0 10 3.76543 -5.24691 0.555556 0 10 3.76543 -5.24691 0.555556 0 0 0 0 1 0 "
         in="fbSourceGraphic" /></filter></defs><sodipodi:namedview
     id="namedview31"
     pagecolor="#ffffff"
     bordercolor="#666666"
     borderopacity="1.0"
     inkscape:showpageshadow="2"
     inkscape:pageopacity="0.0"
     inkscape:pagecheckerboard="0"
     inkscape:deskcolor="#d1d1d1"
     inkscape:zoom="0.67777778"
     inkscape:cx="450"
     inkscape:cy="324.59016"
     inkscape:window-width="1296"
     inkscape:window-height="839"
     inkscape:window-x="0"
     inkscape:window-y="34"
     inkscape:window-maximized="0"
     inkscape:current-layer="g52" /><path
     d="M0 0 C297 0 594 0 900 0 C900 214.5 900 429 900 650 C603 650 306 650 0 650 C0 435.5 0 221 0 0 Z "
     fill="#42AE97"
     transform="translate(0,0)"
     id="path1"
     style="fill:#3bafda;fill-opacity:1" /><g
     id="g52"
     transform="matrix(0.8984144,0,0,0.92467098,180.40984,62.721312)"
     style="stroke-width:1.09715"
     clip-path="url(#clipPath52)"><path
       d="m 0,0 c 201.3,0 402.6,0 610,0 0,187.44 0,374.88 0,568 -201.3,0 -402.6,0 -610,0 C 0,380.56 0,193.12 0,0 Z"
       fill="#f3f3f5"
       id="path1-8"
       style="stroke-width:1.09715;fill:#ffffff;fill-opacity:1" /><path
       d="m 0,0 c 3.6784571,0.72220764 5.115691,1.7389962 7.7745514,4.3560944 0.8378906,0.8108203 1.6757812,1.6216406 2.5390626,2.4570312 1.372851,1.3825195 1.372851,1.3825195 2.773437,2.7929688 1.089901,1.0676786 2.181094,2.1340396 3.273438,3.1992186 9.477934,9.309009 9.477934,9.309009 10.164062,13.425781 -0.630754,4.865823 -3.316597,7.715371 -6.4375,11.375 0.554297,0.243633 1.108594,0.487266 1.679688,0.738282 2.78974,1.516979 4.998499,3.424149 7.445312,5.449218 4.961588,3.884935 10.072266,6.473452 15.9375,8.75 0.718814,0.281902 1.437627,0.563804 2.178223,0.854248 9.356603,3.442127 18.85292,4.480321 28.763184,4.70044 2.060565,0.06583 4.121111,0.132259 6.18164,0.199219 3.19446,0.0948 6.388832,0.183885 9.583741,0.262207 3.120593,0.07997 6.239806,0.182849 9.359621,0.288574 0.94194,0.01683 1.88389,0.03366 2.85438,0.051 6.94757,0.255597 14.21278,1.467463 19.67346,6.117676 4.57335,5.197754 5.88617,10.12205 5.71435,16.893829 -0.77652,5.639987 -2.99266,10.712519 -7.41407,14.398437 -1.94665,1.233942 -3.87637,2.309366 -5.95703,3.296875 -0.99,0.494991 -0.99,0.494991 -2,0.999991 -2.02946,0.22288 -4.0649,0.3924 -6.10156,0.53516 -1.21172,0.087 -2.42344,0.17402 -3.67188,0.26367 -1.27101,0.087 -2.54203,0.17403 -3.85156,0.26367 -1.918124,0.13632 -1.918124,0.13632 -3.874999,0.27539 -3.16642,0.2245 -6.333066,0.44502 -9.5,0.66211 6.740078,7.7171 13.849949,15.00572 21.104739,22.23512 1.85756,1.85212 3.7096,3.70962 5.56128,5.56762 1.18262,1.18197 2.36555,2.36361 3.54883,3.54492 0.55203,0.55406 1.10407,1.10813 1.67283,1.67897 2.79157,2.83679 2.79157,2.83679 6.11232,4.97337 -0.0464,-1.0132 -0.0928,-2.0264 -0.14062,-3.07031 -0.0376,-1.35153 -0.0739,-2.7031 -0.10938,-4.05469 -0.0335,-0.66515 -0.067,-1.33031 -0.10156,-2.01562 -0.12736,-6.49525 2.55767,-9.89006 6.81102,-14.55934 0.91757,-0.91314 1.83515,-1.82627 2.78053,-2.76708 0.50949,-0.50978 1.01899,-1.01956 1.54392,-1.5448 1.67019,-1.66881 3.34734,-3.33044 5.02469,-4.99206 1.17101,-1.16728 2.34158,-2.33501 3.51173,-3.50316 3.07282,-3.06521 6.15159,-6.124363 9.23167,-9.182262 3.12494,-3.104502 6.24425,-6.21464 9.36402,-9.324341 5.49471,-5.475616 10.99432,-10.946275 16.49754,-16.413345 1.76631,-1.757118 3.52966,-3.517213 5.29044,-5.279877 9.7471,-9.734794 18.97947,-15.722518 32.07335,-20.125137 3.74005,-1.355485 6.8449,-3.095259 10.22265,-5.167969 0.66,0 1.32,0 2,0 -1.61269,-2.712246 -3.24902,-5.373528 -5,-8 -0.62818,-3.001297 -0.63595,-4.995858 1.03906,-7.640625 1.88855,-2.227516 3.91121,-4.277958 5.96094,-6.359375 1.18745,-1.281397 2.37352,-2.564062 3.5586,-3.847656 1.31208,-1.385747 2.6259,-2.7698447 3.9414,-4.1523436 0.6285,-0.6837671 1.257,-1.3675342 1.90454,-2.0720215 2.99213,-3.0738665 4.84109,-4.7376862 9.06421,-5.80297854 9.05705,2.24422454 16.18418,12.39606964 22.63672,18.88281264 1.05254,1.054409 2.1053,2.108594 3.15828,3.162567 2.7506,2.754384 5.49818,5.511756 8.2451,8.269806 2.79145,2.801704 5.58575,5.600565 8.37982,8.399658 4.91614,4.925658 9.8298,9.853771 14.74163,14.783722 1.67514,1.679903 3.35444,3.355676 5.03665,5.028503 2.31709,2.331867 4.48291,4.747949 6.64555,7.222931 3.44545,3.864648 7.03461,7.281015 10.98828,10.613282 2.1939,1.95181 3.86682,4.221216 5.69922,6.511718 2.60618,2.405707 5.29963,4.701289 8,7 1,1 1,1 1.71094,4.378907 -0.0753,5.813454 -4.14825,8.899424 -8.07813,12.740224 -1.00238,0.9397 -2.00498,1.87915 -3.00781,2.81836 -0.99656,0.96498 -1.99137,1.93176 -2.98437,2.90039 -8.26139,7.97281 -8.26139,7.97281 -12.82813,8.59961 -5.07933,-0.58287 -7.32952,-2.88042 -10.8125,-6.4375 -0.25394,0.56332 -0.50789,1.12664 -0.76953,1.70704 -1.39096,2.59204 -3.08165,4.68236 -4.91797,6.98046 -3.4149,4.65669 -5.90358,9.29903 -8.125,14.625 -0.27739,0.64993 -0.55478,1.29986 -0.84057,1.96949 -6.37159,15.99958 -5.98131,32.57352 -6.20459,49.52124 -0.0494,3.32449 -0.13455,6.6466 -0.22437,9.97021 -0.003,1.00848 -0.007,2.01697 -0.0102,3.05601 -0.26507,8.46705 -3.39589,12.83429 -9.40776,18.54555 -5.40675,3.51439 -9.8308,3.98338 -16.10937,3.15625 -6.2515,-1.38921 -10.96168,-6.30519 -14.39063,-11.53125 -1.69624,-4.31305 -2.23933,-7.8703 -2.19531,-12.49217 0.006,-1.19883 0.0129,-2.39766 0.0195,-3.63283 0.0168,-1.2375 0.0335,-2.47499 0.0508,-3.75 0.0135,-1.89105 0.0135,-1.89105 0.0273,-3.82031 0.0235,-3.10176 0.0564,-6.20312 0.0977,-9.30469 -0.66,0 -1.32,0 -2,0 -0.25526,0.58059 -0.51053,1.16117 -0.77353,1.75935 -1.35318,2.47215 -2.85215,4.10699 -4.85,6.09125 -0.74062,0.74046 -1.48124,1.48093 -2.2443,2.24384 -0.799,0.78868 -1.59801,1.57737 -2.42123,2.38995 -0.81842,0.81558 -1.63685,1.63119 -2.48007,2.4715 -2.61397,2.60276 -5.2348,5.1985 -7.85587,7.79411 -1.77389,1.76387 -3.54734,3.52819 -5.32031,5.29297 -4.34634,4.3243 -8.69834,8.64283 -13.05469,12.95703 0.99,-0.33 1.98,-0.65999 3,-1 7.36268,-0.66933 13.30135,-0.0775 19.09602,4.74405 6.93574,6.27189 13.60651,12.77803 20.2282,19.37706 0.56682,0.56399 1.13364,1.12798 1.71763,1.70906 2.99336,2.97851 5.98394,5.95976 8.97207,8.94353 3.05922,3.05372 6.12763,6.09803 9.19826,9.14028 2.38762,2.36888 4.76839,4.74456 7.14742,7.12206 1.12766,1.12466 2.25778,2.24687 3.39056,3.36638 6.48334,6.41271 12.35759,12.845 17.24984,20.59759 0.39487,0.61979 0.78974,1.23958 1.19658,1.87815 2.91942,4.83036 4.68796,9.94522 6.51436,15.24881 1.59284,4.45738 3.51023,8.03419 6.28906,11.87304 2.468,-1.15173 4.04784,-2.04783 6,-4 4.17792,-0.51971 6.28079,-0.48367 9.81421,1.89258 0.88502,0.87076 1.77004,1.74153 2.68189,2.63867 0.4784,0.46934 0.95681,0.93868 1.44972,1.42225 1.00257,0.99346 1.99638,1.99586 2.98167,3.00647 1.50497,1.53489 3.04567,3.0256 4.594,4.5166 0.97312,0.97415 1.9439,1.95064 2.91211,2.92968 0.87712,0.87979 1.75425,1.75957 2.65795,2.66602 1.98733,3.04875 2.57614,5.06371 2.46736,8.69777 -1.19761,4.77829 -5.17986,7.87034 -8.62116,11.18455 -1.28507,1.28441 -1.28507,1.28441 -2.59609,2.59476 -2.34568,2.33685 -4.70762,4.65459 -7.07849,6.9657 -2.47786,2.42401 -4.93259,4.87122 -7.38977,7.31616 -4.65453,4.62453 -9.32864,9.22872 -14.01053,13.82553 -6.36467,6.25084 -12.70176,12.52948 -19.03918,18.80793 -1.52037,1.50622 -3.04084,3.01234 -4.56137,4.5184 -0.4928,0.48814 -0.9856,0.97628 -1.49333,1.47922 -2.93361,2.90463 -5.87216,5.80415 -8.81532,8.6991 -1.38763,1.36506 -2.77414,2.73126 -4.16062,4.09749 -1.69264,1.66759 -3.38722,3.33322 -5.08403,4.99656 -0.74182,0.73163 -1.48364,1.46326 -2.24794,2.21707 -0.64802,0.63671 -1.29604,1.27341 -1.9637,1.92942 -1.58896,1.54356 -1.58896,1.54356 -2.49738,3.59807 -3.24213,0.63392 -4.85479,0.82504 -8,0 -4.08043,-3.02429 -7.47601,-6.67908 -10.9375,-10.375 -0.96497,-0.99656 -1.93175,-1.99137 -2.90039,-2.98437 -8.01038,-8.30032 -8.01038,-8.30032 -8.53711,-12.95313 0.46486,-4.5711 1.90611,-5.82567 5.375,-8.6875 -1.51723,-3.96609 -3.88694,-5.65673 -7.3125,-8.0625 -0.94488,-0.6716 -1.88976,-1.3432 -2.86328,-2.03515 -16.91141,-11.39123 -35.76743,-12.95742 -55.63672,-13.15235 -3.32646,-0.0532 -6.65222,-0.11612 -9.97819,-0.19427 -2.04326,-0.046 -4.08692,-0.0773 -6.13065,-0.0904 -6.80547,-0.12611 -13.66428,-0.81175 -19.19975,-5.11372 -0.65162,-0.85464 -0.65162,-0.85464 -1.31641,-1.72656 -0.45246,-0.56462 -0.90492,-1.12921 -1.37109,-1.71094 -3.62396,-5.82209 -3.77948,-11.22358 -3.19141,-17.91406 1.71081,-6.41555 5.60611,-10.33506 11,-14 3.56152,-1.2113 6.99777,-1.11404 10.73438,-1.09765 1.2955,0.003 2.59101,0.006 3.92578,0.01 1.36328,0.008 2.72656,0.0168 4.08984,0.0254 1.37891,0.005 2.75781,0.01 4.13672,0.0137 3.37114,0.0118 6.74219,0.0282 10.11328,0.0488 0,-0.66001 0,-1.32 0,-2 -0.58437,-0.25905 -1.16874,-0.5181 -1.77081,-0.78501 -2.3986,-1.30732 -3.9746,-2.71943 -5.89618,-4.65494 -0.70042,-0.70057 -1.40085,-1.40115 -2.1225,-2.12295 -1.1174,-1.13289 -1.1174,-1.13289 -2.25738,-2.28867 -0.77121,-0.77403 -1.54241,-1.54806 -2.33698,-2.34555 -2.46012,-2.4713 -4.91319,-4.94948 -7.36615,-7.42789 -1.66751,-1.67754 -3.33547,-3.35463 -5.0039,-5.03125 -4.08732,-4.10935 -8.16888,-8.22437 -12.2461,-12.34375 -0.0604,1.43654 -0.0604,1.43654 -0.12207,2.9021 -0.102,1.88731 -0.102,1.88731 -0.20605,3.81275 -0.0914,1.86966 -0.0914,1.86966 -0.18457,3.7771 -0.70985,5.11014 -2.90454,7.96492 -6.48731,11.50806 -3.3947,3.38848 -6.77651,6.78929 -10.15063,10.19824 -4.98609,5.03526 -9.979926,10.06277 -14.978154,15.08598 -3.011978,3.02758 -6.021102,6.05789 -9.023802,9.09468 -2.923288,2.95624 -5.854162,5.90477 -8.790114,8.84843 -1.106426,1.11189 -2.210247,2.22639 -3.311176,3.34373 -8.767746,8.89319 -17.916253,17.76967 -29.500029,22.86253 -1.12084,0.50338 -2.24168,1.00676 -3.396484,1.52539 -1.125996,0.48791 -2.251992,0.97582 -3.41211,1.47852 -2.293812,1.01764 -4.586821,2.03708 -6.878906,3.0586 -0.99717,0.43498 -1.994341,0.86995 -3.021728,1.31811 -2.692922,1.18137 -2.692922,1.18137 -5.536866,3.18579 1.203815,2.49362 2.454288,4.68144 4,7 -0.144039,5.76873 -1.666186,8.43801 -5.664062,12.4961 -0.470296,0.47841 -0.940593,0.95681 -1.42514,1.44972 -0.992921,1.00134 -1.993473,1.99517 -3.00113,2.98167 -1.532933,1.50831 -3.02797,3.04817 -4.522949,4.594 -0.9731695,0.9728 -1.9483663,1.94357 -2.9257811,2.91211 -1.3179859,1.31569 -1.3179859,1.31569 -2.6625977,2.65796 -3.5914433,2.44934 -5.53090813,2.56915 -9.7983398,1.90844 -2.4594727,-1.66479 -2.4594727,-1.66479 -4.6640625,-3.98046 -1.2181639,-1.25201 -1.2181639,-1.25201 -2.4609379,-2.5293 -0.825,-0.88365 -1.65,-1.76731 -2.5,-2.67774 -0.832734,-0.86431 -1.665468,-1.72864 -2.523437,-2.61915 -1.601796,-1.66428 -3.196856,-3.33508 -4.78418,-5.01317 -2.313683,-2.43991 -4.674641,-4.81811 -7.067383,-7.18018 -10.333333,-10.33333 -20.666666,-20.66666 -31,-31 -1.194961,-1.17755 -1.194961,-1.17755 -2.414062,-2.3789 -2.579353,-2.61442 -5.022693,-5.31265 -7.460938,-8.0586 -3.375448,-3.74212 -6.776772,-7.12789 -10.679687,-10.30469 -2.113131,-1.839 -3.698249,-4.07398 -5.445313,-6.25781 -1.833569,-1.60636 -3.702407,-3.14961 -5.609375,-4.66796 -0.458906,-0.43957 -0.917812,-0.87915 -1.390625,-1.33204 0,-0.66001 0,-1.32 0,-2 -0.66,0 -1.32,0 -2,0 -0.654466,-3.25296 -0.829385,-4.83785 0,-8 2.651288,-3.70237 5.745958,-6.85503 9.014893,-10.00293 1.546086,-1.49559 3.047991,-3.02723 4.549561,-4.56738 0.977435,-0.96855 1.957181,-1.93478 2.939453,-2.89844 0.885022,-0.87077 1.770044,-1.74152 2.681884,-2.63867 3.553156,-2.38952 5.609326,-2.39196 9.814209,-1.89258 3.4375,1.875 3.4375,1.875 6,4 0,0.66 0,1.32 0,2 0.66,0 1.32,0 2,0 0.271509,-0.59402 0.543018,-1.18804 0.822754,-1.80005 1.152694,-2.15407 2.348928,-3.62725 4.013184,-5.39917 3.394824,-3.87818 5.601819,-7.9693 7.789062,-12.61329 0.553008,-1.08571 0.553008,-1.08571 1.117188,-2.19336 8.089153,-16.96158 7.801442,-34.86706 7.597656,-53.22338 -0.02674,-3.08167 -0.01707,-6.16169 -0.0039,-9.24341 -0.02164,-0.92515 -0.04328,-1.8503 -0.06558,-2.80348 0.05281,-6.99842 2.179711,-11.42971 6.729644,-16.72387 4.623011,-4.34864 8.656451,-5.37574 15,-5.6875 6.6890234,0.2435 10.447785,1.8479 15.00000039,6.6875 0.78375,0.825 1.56750001,1.65 2.37500001,2.5 3.0481375,4.68945 3.8749474,9.24823 4.0390625,14.77344 0.038672,1.15371 0.077344,2.30742 0.1171875,3.4961 0.030938,1.1898 0.061875,2.3796 0.09375,3.60546 0.038672,1.21301 0.077344,2.42602 0.1171875,3.67579 0.09395,2.98292 0.1796206,5.96584 0.2578125,8.94921 5.3969616,-5.37167 10.7900486,-10.7472 16.1804196,-16.12548 1.835366,-1.83033 3.671627,-3.65976 5.508789,-5.48829 2.635889,-2.6238 5.268573,-5.25077 7.900635,-7.87841 0.826042,-0.82088 1.652085,-1.64177 2.503159,-2.48752 0.760713,-0.76064 1.521426,-1.52128 2.305191,-2.30496 0.672845,-0.67063 1.34569,-1.34125 2.038925,-2.0322 1.64527,-1.61384 1.64527,-1.61384 2.562881,-3.68314 -0.66,0.33 -1.32,0.66 -2,1 -2.6875,0.34375 -2.6875,0.34375 -6,0.5 -1.0725,0.0722 -2.145,0.14438 -3.25,0.21875 C 24.18931,219.28433 16.036317,208.99989 8.6495594,201.56733 7.47755,200.39735 6.3050962,199.22781 5.1322254,198.0587 c -2.4454103,-2.44102 -4.88538343,-4.8873 -7.3215332,-7.33756 -3.0891864,-3.10622 -6.1915742,-6.19884 -9.2982632,-9.28755 -2.42161,-2.41064 -4.835882,-4.82854 -7.248154,-7.24853 -1.139437,-1.14141 -2.281024,-2.28068 -3.424988,-3.41755 -12.308014,-12.24842 -22.982116,-24.80042 -28.705353,-41.43065 -1.592348,-4.15318 -3.755919,-7.92785 -6.046875,-11.73047 -3.878519,-0.42504 -3.878519,-0.42504 -5.8125,1.5 -3.383586,2.32018 -5.122353,2.15736 -9.1875,1.5 -3.442148,-2.53244 -6.274774,-5.57306 -9.1875,-8.6875 -0.793418,-0.81662 -1.586836,-1.63324 -2.404296,-2.47461 -2.171435,-2.25165 -4.31712,-4.51142 -6.408204,-6.83789 -0.744191,-0.7719 -1.488383,-1.54381 -2.255127,-2.33911 -2.410667,-3.6762 -2.4373,-5.294823 -1.744873,-9.660881 2.332441,-3.3941 5.220575,-6.176323 8.150635,-9.056396 0.866577,-0.878844 1.733155,-1.757687 2.625992,-2.663162 2.376001,-2.40151 4.766667,-4.78623 7.166471,-7.163818 2.510995,-2.493245 5.004836,-5.003557 7.501467,-7.51117 4.195176,-4.207903 8.404877,-8.40085 12.623062,-12.585678 4.873389,-4.835294 9.721046,-9.695291 14.556105,-14.568889 4.155366,-4.187155 8.324248,-8.360486 12.504683,-12.522613 2.495276,-2.484375 4.985611,-4.973209 7.463842,-7.474597 2.763926,-2.787943 5.555939,-5.54665 8.351347,-8.3030419 0.816399,-0.8305691 1.632799,-1.6611383 2.473938,-2.5168762 C -4.864021,0.75341028 -4.864021,0.75341028 0,0 Z"
       fill="#050505"
       transform="translate(174.91295,73.393906)"
       id="path2-6"
       style="stroke-width:1.09715;filter:url(#filter52)" /><path
       d="M 0,0 C 2.3624227,1.6819743 4.1337447,3.1518204 6.125,5.1875 6.8733008,5.9116309 6.8733008,5.9116309 7.6367187,6.6503906 9.1096348,8.0829265 10.556934,9.53746 12,11 c 0.873984,0.872695 1.747969,1.745391 2.648438,2.644531 C 15.424453,14.421836 16.200469,15.199141 17,16 c 0.608437,0.608437 1.216875,1.216875 1.84375,1.84375 C 28.5625,27.5625 38.28125,37.28125 48,47 c 0.79793,0.795352 1.595859,1.590703 2.417969,2.410156 10.826679,10.859438 18.705379,21.128811 23.503906,35.851563 1.71513,4.356181 4.251863,8.186688 6.785156,12.109375 C 82,100 82,100 81.909195,101.81464 c -1.345337,3.23368 -3.701798,5.36959 -6.163345,7.78009 -0.819519,0.82017 -0.819519,0.82017 -1.655594,1.65692 -1.805617,1.80353 -3.621623,3.5962 -5.437912,5.38898 -1.254758,1.24916 -2.508854,2.49898 -3.762314,3.74945 -3.299475,3.28802 -6.60786,6.56694 -9.918167,9.84405 -3.376898,3.3462 -6.74531,6.70092 -10.114441,10.05493 C 38.246569,146.86775 31.626273,153.43685 25,160 c -3.411452,-1.61628 -5.763755,-3.51533 -8.5625,-6.0625 -4.993402,-4.15446 -10.1318223,-7.0461 -16,-9.8125 -0.77867432,-0.36875 -1.5573486,-0.7375 -2.3596191,-1.11743 -12.5329189,-5.70943 -25.2930169,-8.30671 -39.0388179,-8.24585 -2.037768,-0.0154 -4.075528,-0.0317 -6.113282,-0.0488 -3.166655,-0.0165 -6.332816,-0.0253 -9.499511,-0.0183 -3.087959,0.003 -6.174446,-0.0254 -9.262207,-0.0579 -0.94588,0.0102 -1.89176,0.0204 -2.866303,0.0309 -4.578834,-0.0682 -6.651225,-0.17932 -10.401764,-3.01213 C -81,129 -81,129 -81.5,125.875 c 0.558706,-3.21256 0.979653,-3.93057 3.5,-5.875 2.080185,-0.4165 2.080185,-0.4165 4.499756,-0.47656 1.361726,-0.0452 1.361726,-0.0452 2.750961,-0.0913 0.978162,-0.0189 1.956324,-0.0377 2.964127,-0.0571 1.51093,-0.0495 1.51093,-0.0495 3.052383,-0.1001 3.223182,-0.10533 6.446434,-0.19229 9.670273,-0.2749 4.238965,-0.1088 8.476768,-0.23615 12.714844,-0.375 0.976137,-0.0189 1.952275,-0.0377 2.957992,-0.0571 0.91097,-0.0301 1.821939,-0.0603 2.760514,-0.0913 0.799254,-0.0198 1.598508,-0.0396 2.421981,-0.0601 2.76336,-0.52146 4.173505,-1.49608 6.207169,-3.4165 0.724976,-2.88714 0.724976,-2.88714 0,-6 -1.978144,-2.95782 -1.978144,-2.95782 -4.6875,-5.625 -0.870117,-0.92039 -1.740234,-1.84078 -2.636719,-2.78906 -2.592445,-2.586156 -2.592445,-2.586156 -5.289062,-4.675784 C -42.874967,94.100067 -44.642251,92.275149 -46.5,90.0625 -49.213108,86.89429 -52.012092,83.915032 -55,81 c -1.334697,-1.331968 -2.667912,-2.665422 -4,-4 -0.692227,-0.690938 -1.384453,-1.381875 -2.097656,-2.09375 -1.456229,-1.459219 -2.900687,-2.930192 -4.339844,-4.40625 -2.266586,-2.211303 -4.598652,-4.251343 -7,-6.3125 C -82.701672,55.090491 -82.701672,55.090491 -83.25,49.410156 -83,47 -83,47 -81.4375,44.625 -79,43 -79,43 -75.785156,42.984375 -70.726055,44.341822 -68.482584,46.852513 -65,50.625 c 0.639375,0.662095 1.27875,1.324189 1.9375,2.006348 2.723888,2.821644 5.410772,5.677596 8.101563,8.530761 1.974588,2.083229 3.96705,4.148153 5.960937,6.212891 0.598125,0.647915 1.19625,1.29583 1.8125,1.963379 3.962565,4.098557 6.444667,5.50047 12.1875,5.661621 0.495,-1.485 0.495,-1.485 1,-3 0.66,0 1.32,0 2,0 -0.251076,-6.993447 -1.922562,-9.925715 -6.941406,-14.660156 -0.601101,-0.593568 -1.202202,-1.187136 -1.821518,-1.798691 -1.917324,-1.88496 -3.857783,-3.743945 -5.799576,-5.603653 -1.278245,-1.251672 -2.554954,-2.504915 -3.830078,-3.759766 C -56.431427,40.260705 -62.543707,34.463017 -69,29 -77.464241,21.701997 -77.464241,21.701997 -78.707031,17.753906 -78.866402,14.536971 -78.36875,12.468029 -76.375,9.9375 -73.149082,8.6641112 -71.339217,9.131191 -68,10 c 2.351563,1.783936 2.351563,1.783936 4.625,4.136719 0.861094,0.87761 1.722187,1.755219 2.609375,2.659424 0.450527,0.471122 0.901055,0.942244 1.365234,1.427642 1.418477,1.482619 2.852285,2.948757 4.291016,4.411713 3.568269,3.634932 7.108763,7.296538 10.650391,10.957398 2.997655,3.096449 6.005436,6.182366 9.027343,9.255157 1.409735,1.442039 2.803513,2.898339 4.197266,4.355804 0.861094,0.87761 1.722188,1.75522 2.609375,2.659424 0.750234,0.776419 1.500469,1.552837 2.273438,2.352783 C -23.517865,54.365755 -21.523591,54.784288 -18,55 c 2.481052,-0.902358 2.481052,-0.902358 4,-3 0.921196,-2.781065 0.921196,-2.781065 0,-6 -3.620634,-5.152939 -8.438516,-9.447159 -12.96875,-13.785156 -0.528732,-0.509235 -1.057464,-1.01847 -1.602219,-1.543137 -3.301946,-3.180985 -3.301946,-3.180985 -6.635086,-6.329178 -1.647988,-1.545048 -3.269117,-3.114428 -4.887695,-4.690185 -0.508173,-0.463746 -1.016345,-0.927491 -1.539917,-1.405289 C -43.021484,16.87085 -43.021484,16.87085 -45,14 c 0.08789,-3.763428 0.08789,-3.763428 1,-7 2.188346,-1.8641468 3.879078,-1.980145 6.70166,-2.4436035 4.924105,0.6622575 7.056939,3.4689878 10.384278,6.9787595 0.660614,0.671476 1.321228,1.342952 2.001861,2.034775 2.110329,2.150479 4.199143,4.320479 6.287201,6.492569 2.084992,2.142748 4.174249,4.28122 6.265778,6.417587 1.298186,1.328842 2.5919447,2.662031 3.8803096,4.000397 3.7653139,3.887184 7.66633847,7.519447 11.7821351,11.034409 1.9257051,1.685476 3.6274852,3.506754 5.3217773,5.422607 2.419101,2.45224 3.125562,3.009734 6.625,3.75 2.806712,-0.473423 2.806712,-0.473423 4.625,-2.375 C 21.291376,45.40106 21.55174,44.220595 21,41 19.097257,38.3987 16.797886,36.24171 14.472656,34.019531 13.809147,33.365468 13.145637,32.711405 12.462021,32.037521 10.340317,29.950417 8.2022134,27.881122 6.0625,25.8125 3.9299,23.729813 1.800789,21.643648 -0.3263092,19.555344 -1.6511625,18.256955 -2.9798761,16.962493 -4.3127289,15.672318 -4.9132759,15.087984 -5.5138229,14.503651 -6.1325684,13.901611 -6.6632945,13.388187 -7.1940207,12.874762 -7.7408295,12.345779 -9.7307972,10.218937 -9.9993577,9.0075468 -10.25,6.0625 -10,3 -10,3 -8.9375,1.125 -5.8416315,-0.67260108 -3.5219398,-0.3693831 0,0 Z"
       fill="#f0f0f2"
       transform="translate(390,308)"
       id="path3"
       style="stroke-width:1.09715;filter:url(#filter53)" /><path
       d="M 0,0 C 2.4965417,0.14226616 3.8014258,0.32580199 6,1.5625 7.601487,4.5652881 7.5726817,6.0286802 7,9.4375 4.5876853,12.61924 1.7219049,15.27615 -1.1875,18 c -0.7689258,0.741855 -1.5378516,1.483711 -2.3300781,2.248047 -1.491068,1.437313 -2.9877164,2.868864 -4.4904785,4.293945 C -10.380606,26.79968 -12.694606,29.111449 -15,31.4375 c -0.643242,0.631641 -1.286484,1.263281 -1.949219,1.914062 -0.573633,0.56461 -1.147265,1.129219 -1.738281,1.710938 -0.581367,0.569766 -1.162734,1.139531 -1.761719,1.726562 -1.7533,1.772268 -1.7533,1.772268 -3.550781,4.648438 0.23213,5.040014 0.23213,5.040014 3,9 4.469223,0.0332 7.171634,-0.799572 10.4375,-3.740479 1.2031079,-1.197327 2.3898699,-2.411235 3.5625,-3.638427 0.639375,-0.645493 1.27875,-1.290986 1.9375,-1.95604 C -3.0271775,39.040383 -1.0138851,36.958088 1,34.875 2.3528255,33.500632 3.7069804,32.127571 5.0625,30.755859 10.664919,25.05979 16.167263,19.33663 21.373047,13.272354 28.094933,5.691509 28.094933,5.691509 33.75,4.9375 c 3.25,0.5 3.25,0.5 6.25,2.5 0.689118,3.445589 0.755777,5.817696 -1.183594,8.851562 C 36.966921,18.444578 35.019072,20.439279 33,22.4375 31.644551,23.812285 31.644551,23.812285 30.261719,25.214844 27.529127,27.977464 24.765949,30.708267 22,33.4375 c -0.770295,0.773921 -1.540591,1.547842 -2.334229,2.345215 -2.625484,2.614664 -5.290069,5.182284 -7.966552,7.744629 -1.494239,1.450055 -2.9856387,2.902963 -4.4758303,4.357177 -1.0276554,0.997272 -2.0605991,1.989122 -3.0986328,2.975586 -1.5103881,1.437524 -3.0004601,2.893666 -4.48803715,4.354737 -0.88985595,0.858435 -1.77971195,1.71687 -2.69653325,2.601318 C -5.4150847,60.998311 -5.5618056,62.562397 -5,66.4375 c 0.99,1.485 0.99,1.485 2,3 3.28835553,0.79982 3.28835553,0.79982 7,0 2.6813146,-1.852504 4.7611518,-4.150674 6.9375,-6.5625 1.231251,-1.299905 2.464307,-2.598103 3.699219,-3.894531 0.583139,-0.620845 1.166279,-1.24169 1.76709,-1.881348 2.4023,-2.500773 5.005124,-4.711334 7.666503,-6.927246 3.390669,-3.047484 6.395049,-6.499039 9.4375,-9.890625 C 36,38.4375 36,38.4375 39.183594,38.585937 43.56879,39.911836 43.56879,39.911836 45,42.4375 c -0.102983,5.502883 -1.449871,8.129681 -5.202789,11.856918 -0.878018,0.826861 -0.878018,0.826861 -1.773774,1.670426 -0.603472,0.592611 -1.206945,1.185222 -1.828704,1.795791 -1.926195,1.886173 -3.871822,3.750652 -5.819733,5.614365 -2.538793,2.462392 -5.069892,4.932633 -7.601563,7.402344 -0.606554,0.588371 -1.213108,1.176743 -1.838043,1.782943 C 17.209412,76.190814 13.684221,79.915729 10.32959,83.89624 8.5741823,85.931108 6.6214099,87.704809 4.625,89.5 c -2.8091219,2.76557 -3.5936993,3.831425 -4.75,7.75 -0.14636339,3.3456 -0.14636339,3.3456 2.125,6.1875 3.2421052,0.83787 3.2421052,0.83787 7,0 5.088928,-3.476423 9.315853,-8.28317 13.601562,-12.679688 0.489492,-0.501838 0.978983,-1.003676 1.483307,-1.520721 2.032203,-2.087318 4.063231,-4.175242 6.075287,-6.282013 1.489842,-1.556522 2.995198,-3.096553 4.503906,-4.634766 0.881236,-0.913784 1.762471,-1.827568 2.670411,-2.769042 C 40.363064,73.149589 42.157021,72.526382 46,72.4375 c 2.9375,2.0625 2.9375,2.0625 5,5 -0.03572,4.763883 -1.623874,7.204447 -4.917801,10.562119 -0.555802,0.540968 -1.111605,1.081936 -1.68425,1.639297 -0.875804,0.881719 -0.875804,0.881719 -1.769302,1.78125 -1.929402,1.936103 -3.876134,3.853688 -5.82396,5.77124 -1.350384,1.346132 -2.699806,2.693228 -4.048309,4.041244 -2.828858,2.82269 -5.665779,5.63693 -8.509308,8.44484 -3.633239,3.58808 -7.251145,7.19113 -10.863725,10.79999 -2.787441,2.783 -5.5802894,5.56051 -8.3750404,8.33616 -1.3349939,1.32615 -2.6689453,2.65336 -4.0018082,3.98165 -1.87100137,1.86189 -3.7485168,3.71695 -5.6280784,5.57019 -0.5436571,0.54299 -1.0873142,1.08598 -1.6474457,1.64543 -4.7563133,4.66533 -9.8664003,8.9864 -16.1489413,11.41878 -1.161002,0.46394 -1.161002,0.46394 -2.345459,0.93725 -0.799944,0.31204 -1.599887,0.62407 -2.424072,0.94556 -6.886367,2.77733 -13.177218,5.80574 -19.464844,9.77734 -3.905045,2.24167 -3.905045,2.24167 -6.347656,2.34766 -2.117426,-1.63608 -3.840872,-3.20927 -5.686523,-5.1189 -0.834807,-0.83371 -0.834807,-0.83371 -1.686478,-1.68426 -1.840885,-1.84438 -3.663423,-3.70584 -5.486374,-5.56793 -1.271145,-1.28047 -2.543397,-2.55984 -3.816711,-3.83815 -3.351693,-3.37081 -6.688103,-6.75635 -10.021607,-10.14513 -3.402907,-3.45401 -6.819976,-6.89395 -10.235901,-10.33508 C -96.636376,121.99161 -103.32311,115.21952 -110,108.4375 c 1.39041,-2.89891 2.72214,-4.85809 5,-7.125 19.38767,-21.66379 20.23931,-48.30086 21.029053,-75.743896 0.09127,-3.068991 0.199918,-6.136987 0.310791,-9.205323 0.02199,-0.938493 0.04398,-1.876986 0.06664,-2.843918 0.244863,-6.4023227 0.244863,-6.4023227 1.919937,-9.6670681 C -80,2.4375 -80,2.4375 -76.5625,1.875 -73,2.4375 -73,2.4375 -70.811035,4.3630371 c 2.538571,4.3095482 2.377594,7.9115989 2.350098,12.8283689 0.01179,0.937869 0.02358,1.875737 0.03574,2.842026 0.03523,2.989026 0.04443,5.977352 0.0502,8.966568 0.01635,2.992577 0.03839,5.984842 0.07162,8.97728 0.01961,1.859669 0.02897,3.719482 0.02692,5.579254 0.007,0.844452 0.01392,1.688903 0.02109,2.558945 0.0013,0.739926 0.0025,1.479853 0.0038,2.242202 0.296683,2.452919 0.889241,4.018521 2.251556,6.079819 3.274343,1.266235 3.274343,1.266235 7,1 3.339366,-2.226244 5.409733,-4.252329 7.875,-7.375 1.92376,-2.37641 3.809297,-4.151099 6.125,-6.125 3.076269,-2.623043 5.482443,-5.33275 8,-8.5 1.129212,-0.998289 2.276771,-1.976038 3.4375,-2.9375 2.33905,-1.941759 4.088815,-3.694079 6.0625,-6.0625 2.419692,-2.903631 4.914738,-5.102256 7.808594,-7.496094 C -17.165408,14.695426 -15.155393,12.035024 -13,9.4375 -11.977645,8.5400125 -10.935514,7.6645591 -9.875,6.8125 -6.9719426,4.6861389 -6.9719426,4.6861389 -5.625,2.125 -3.6185115,0.04133888 -2.8274263,0.11309705 0,0 Z"
       fill="#f0f0f2"
       transform="translate(236,301.5625)"
       id="path4"
       style="stroke-width:1.09715;filter:url(#filter54)" /><path
       d="M 0,0 C 3.3368494,1.6684247 5.7047539,3.3509431 8.5158691,5.7321777 21.472626,16.605784 39.978093,25.029523 57.109863,25.157715 c 0.990977,0.01026 1.981954,0.02052 3.00296,0.0311 1.587708,0.01095 1.587708,0.01095 3.207489,0.02213 2.248706,0.02805 4.497404,0.05671 6.746094,0.08594 3.539876,0.04138 7.079607,0.07828 10.619629,0.104492 3.420055,0.02751 6.839468,0.07336 10.259277,0.12207 1.06252,0.0033 2.12504,0.0065 3.219758,0.0099 1.477008,0.02485 1.477008,0.02485 2.983856,0.0502 0.866502,0.0081 1.733003,0.01617 2.625763,0.02451 C 102.46889,26.082597 103.35358,26.853992 105,29 c 0.66957,2.673189 0.77363,5.23825 1,8 -2.93747,2.526267 -4.76274,3.379408 -8.62915,3.460693 -1.366454,0.04036 -1.366454,0.04036 -2.760514,0.08153 -0.976137,0.01572 -1.952275,0.03143 -2.957992,0.04762 -2.069668,0.06294 -4.139329,0.126096 -6.208985,0.189453 -3.261046,0.08248 -6.522124,0.158556 -9.783447,0.229248 -3.149043,0.07332 -6.296738,0.169977 -9.445068,0.268799 -1.467243,0.02054 -1.467243,0.02054 -2.964127,0.04149 -0.907817,0.03006 -1.815634,0.06011 -2.750961,0.09108 -0.798459,0.0176 -1.596917,0.0352 -2.419571,0.05333 -2.24936,0.383931 -2.24936,0.383931 -3.849701,2.40567 C 52.804028,45.9797 52.804028,45.9797 52.8125,48.6875 55.487173,56.14843 62.282421,61.437521 68.195312,66.453125 70.596929,68.511654 72.792456,70.735853 75,73 c 1.165314,1.168018 2.332078,2.33459 3.5,3.5 1.166667,1.166667 2.333333,2.333333 3.5,3.5 0.785039,0.773437 1.570078,1.546875 2.378906,2.34375 3.255152,3.298812 6.348276,6.733667 9.427735,10.195312 2.334008,2.582307 4.692113,4.946369 7.388669,7.152344 3.10092,2.552424 4.97849,4.729234 6.80469,8.308594 0,3.61168 -0.32336,5.25086 -2.75,7.9375 -3.0583,1.4442 -4.04478,1.19507 -7.25,0.0625 -2.542989,-2.04995 -4.756064,-4.3814 -7,-6.75 -0.603281,-0.62133 -1.206563,-1.24266 -1.828125,-1.88281 -1.183223,-1.21924 -2.36301,-2.44182 -3.539063,-3.66797 C 82.53156,100.47184 79.439626,97.366355 76,94.5 73.15176,92.126467 70.50861,89.729958 68,87 c 0,-0.66 0,-1.32 0,-2 -5.585006,0.198987 -5.585006,0.198987 -10,3 -0.645828,3.013866 -0.61908,5.031985 1.074219,7.679687 4.585286,5.382223 9.814393,10.272623 14.861816,15.220703 2.723573,2.682 5.344454,5.36368 7.763184,8.32617 1.90568,2.29717 3.699895,4.13713 5.988281,6.02344 15.06586,12.85198 15.06586,12.85198 15.5625,18.6875 C 103,147 103,147 101.9375,148.875 98.873764,150.65394 96.482239,150.32886 93,150 c -2.84375,-1.90625 -2.84375,-1.90625 -5.5,-4.5 -0.946172,-0.91652 -1.892344,-1.83305 -2.867188,-2.77734 -2.735562,-2.82892 -5.3524,-5.71296 -7.890625,-8.71875 C 72.342662,128.94347 67.541109,124.2117 62.375,119.9375 59.769736,117.77748 57.616654,115.46424 55.4375,112.875 52.585889,109.55873 49.988576,106.95186 46,105 c -3.221358,-0.103 -3.221358,-0.103 -6,1 -2.496341,3.73513 -2.496341,3.73513 -2,8 1.99368,2.61809 4.375731,4.78737 6.78125,7.02344 1.412978,1.36436 2.825732,2.72895 4.238281,4.09375 2.23981,2.13413 4.48509,4.26217 6.73584,6.38476 2.169404,2.05468 4.316908,4.13041 6.463379,6.20899 0.678087,0.62627 1.356174,1.25254 2.05481,1.89779 3.276665,3.18868 4.619478,4.55465 5.216674,9.22574 C 69,152 69,152 67.9375,153.9375 64.883575,155.61223 62.424727,155.30208 59,155 c -2.503052,-1.70837 -2.503052,-1.70837 -4.814453,-4.13086 -0.877811,-0.90093 -1.755623,-1.80187 -2.660034,-2.7301 -0.685814,-0.72906 -0.685814,-0.72906 -1.385483,-1.47286 -1.439348,-1.52912 -2.899852,-3.0349 -4.367691,-4.53666 -3.638679,-3.73203 -7.238203,-7.5011 -10.839417,-11.26923 -3.048336,-3.18663 -6.110734,-6.35842 -9.193161,-9.5121 -1.436843,-1.48209 -2.850933,-2.9837 -4.265274,-4.48723 -0.877811,-0.90093 -1.755622,-1.80187 -2.660034,-2.7301 -0.762762,-0.79942 -1.525525,-1.59884 -2.311401,-2.42249 C 13.150257,109.42004 10.972187,109.46743 7,110 c -2.4083209,3.61248 -2.7236086,4.73875 -2,9 3.5441591,5.06478 8.276622,9.29754 12.714844,13.56641 0.756299,0.73062 0.756299,0.73062 1.527878,1.47599 3.143878,3.03551 3.143878,3.03551 6.315139,6.04232 1.568758,1.47778 3.114008,2.97706 4.656983,4.48169 0.919021,0.87599 1.838042,1.75199 2.784912,2.65454 2.52156,3.50334 2.476079,5.55189 2.000244,9.77905 -1.125,1.9375 -1.125,1.9375 -3,3 -2.6875,0.625 -2.6875,0.625 -6,0 -7.227171,-5.16936 -13.337248,-12.15643 -19.6210938,-18.41797 -0.8161361,-0.81189 -0.8161361,-0.81189 -1.6487598,-1.64019 -2.8789678,-2.86407 -5.7551212,-5.73094 -8.628828,-8.60029 -2.9357628,-2.93029 -5.8806887,-5.85118 -8.8279104,-8.76994 -2.295093,-2.27628 -4.583271,-4.55943 -6.869739,-6.84437 -1.081344,-1.07836 -2.165139,-2.15427 -3.251629,-3.22744 C -43.097361,92.480971 -43.097361,92.480971 -46.25,79.375 -47.780454,73.965214 -50.426652,69.517071 -53.378906,64.761719 -55,62 -55,62 -57,57 -38.19,38.19 -19.38,19.38 0,0 Z"
       fill="#f0f0f2"
       transform="translate(184,120)"
       id="path5"
       style="stroke-width:1.09715;filter:url(#filter55)" /><path
       d="m 0,0 c 4.3189952,0.27514106 6.7421509,3.3411589 9.5947266,6.2541504 0.5467844,0.546346 1.0935684,1.0926919 1.6569214,1.6555939 1.803529,1.8056167 3.596202,3.6216227 5.388977,5.4379117 1.249162,1.254758 2.498988,2.508854 3.749451,3.762314 3.288025,3.299475 6.566941,6.60786 9.844055,9.918167 3.346199,3.376898 6.700916,6.74531 10.054931,10.114441 C 46.86775,43.753431 53.436847,50.373727 60,57 58.374603,60.393381 56.451313,63.081823 54.0625,66 52.705279,67.664181 51.350941,69.330718 50,71 49.224629,71.928125 49.224629,71.928125 48.433594,72.875 46.491636,75.753543 45.307748,78.786675 44,82 c -0.506602,1.157578 -1.013203,2.315156 -1.535156,3.507812 -0.504024,1.193672 -1.008047,2.387344 -1.527344,3.617188 -0.506602,1.178203 -1.013203,2.356406 -1.535156,3.570312 -5.122049,14.355848 -4.010279,30.766448 -4.355957,45.781978 -0.07921,3.29086 -0.182186,6.58029 -0.288575,9.87037 -0.01683,1.01038 -0.03366,2.02077 -0.05099,3.06178 -0.245983,6.93778 -0.245983,6.93778 -2.566681,10.22508 C 29.183853,163.52073 27.44055,163.57343 24,163 c -2.156006,-1.41626 -2.156006,-1.41626 -4,-4 -0.587885,-3.27701 -0.533255,-6.51809 -0.503906,-9.83984 -0.0094,-0.95911 -0.01884,-1.91822 -0.02855,-2.90639 -0.02867,-3.06397 -0.03173,-6.12717 -0.03005,-9.19127 -0.0036,-3.06041 -0.01315,-6.12026 -0.04076,-9.18056 -0.01678,-1.90311 -0.01967,-3.80641 -0.007,-5.70956 -0.02985,-3.76231 -0.23304,-6.72155 -1.475448,-10.29567 -1.862946,-2.20179 -1.862946,-2.20179 -5.175675,-2.30956 -4.5776708,0.52999 -6.4667872,2.25018 -9.4710539,5.48168 -0.5262245,0.53644 -1.052449,1.07289 -1.5946197,1.62559 -1.1362079,1.16278 -2.26425902,2.33356 -3.3848877,3.51136 -1.7754576,1.86505 -3.5721112,3.70711 -5.3758392,5.54481 C -10.91183,129.63455 -14.707762,133.56516 -18.5,137.5 c -4.395372,4.56066 -8.801599,9.10961 -13.238419,13.62999 -1.769057,1.81438 -3.515701,3.64855 -5.262435,5.48439 -1.087858,1.11329 -2.176714,2.22561 -3.266724,3.33679 -0.478127,0.51429 -0.956253,1.02858 -1.448868,1.55846 -2.728067,2.73098 -4.125516,3.47422 -8.020737,3.87233 C -53,165 -53,165 -54.9375,163.9375 -56.677366,160.7648 -56.443955,158.57174 -56,155 c 1.817615,-2.7137 4.127045,-4.80167 6.527344,-7 0.663509,-0.63938 1.327019,-1.27875 2.010635,-1.9375 2.117168,-2.03843 4.255417,-4.05245 6.399521,-6.0625 2.139646,-2.01084 4.273106,-4.02647 6.388809,-6.0625 1.314587,-1.26495 2.642963,-2.51576 3.98642,-3.75 3.163409,-3.04201 4.546962,-4.64258 5.669937,-9.00391 0.274472,-3.08663 0.274472,-3.08663 -1.045166,-5.12109 -3.033767,-1.66368 -4.496497,-1.71175 -7.9375,-1.0625 -6.240976,4.51851 -11.514205,10.47429 -16.847656,15.99609 -1.672918,1.70988 -3.346774,3.41884 -5.021485,5.12696 -2.611254,2.66698 -5.216694,5.33866 -7.806884,8.02612 -2.520338,2.61104 -5.062324,5.19923 -7.609131,7.78442 -0.769978,0.80925 -1.539957,1.61849 -2.333267,2.45226 -5.450941,5.47882 -5.450941,5.47882 -10.305161,6.18471 C -87,160 -87,160 -88.9375,158.9375 -90.612233,155.88357 -90.302085,153.42473 -90,150 c 1.708374,-2.50305 1.708374,-2.50305 4.130859,-4.81445 0.900934,-0.87781 1.801868,-1.75563 2.730103,-2.66004 0.729063,-0.68581 0.729063,-0.68581 1.472855,-1.38548 1.529128,-1.43935 3.034898,-2.89985 4.536666,-4.36769 3.732028,-3.63868 7.501101,-7.2382 11.269226,-10.83942 3.186632,-3.04833 6.358423,-6.11073 9.512101,-9.19316 1.48209,-1.43684 2.983696,-2.85093 4.487228,-4.26527 0.900934,-0.87781 1.801868,-1.75563 2.730103,-2.66004 0.79942,-0.76276 1.59884,-1.52552 2.422485,-2.3114 C -44.420036,104.15026 -44.467429,101.97219 -45,98 c -3.814004,-2.542669 -5.474534,-2.645822 -10,-2 -2.710968,1.836635 -4.801617,4.15062 -7,6.5625 -0.639375,0.66588 -1.27875,1.33176 -1.9375,2.01782 -2.038518,2.12387 -4.052825,4.26852 -6.0625,6.41968 -2.646384,2.8327 -5.315123,5.64132 -8,8.4375 -0.598125,0.65621 -1.19625,1.31243 -1.8125,1.98853 -3.106818,3.23121 -4.416045,4.47121 -9,5.08178 C -92,126 -92,126 -94,124.4375 c -1.451278,-3.53749 -0.889535,-5.74281 0,-9.4375 2.328125,-2.91406 2.328125,-2.91406 5.25,-5.625 0.953906,-0.89977 1.907813,-1.79953 2.890625,-2.72656 0.943594,-0.87399 1.887187,-1.74797 2.859375,-2.64844 0.843047,-0.84691 1.686094,-1.69383 2.554688,-2.56641 2.364288,-2.352954 4.809114,-4.5518 7.320312,-6.74609 3.704073,-3.3113 7.013413,-6.705081 10.191406,-10.515625 3.31412,-3.722527 7.026356,-7.070055 10.675782,-10.460938 C -49.713003,70.655405 -49.161657,68.933658 -49,65 c -0.33,-0.99 -0.66,-1.98 -1,-3 -3.380011,-0.290268 -6.627881,-0.426176 -10,0 -2.436667,2.108229 -2.436667,2.108229 -4,5 -4.150053,4.340692 -8.606502,8.349382 -13.045166,12.389648 -3.279498,3.003852 -6.373122,6.09051 -9.392334,9.360352 -2.490808,2.517027 -3.258022,3.179736 -6.8125,4 -3.392303,-0.925174 -4.729357,-1.87447 -6.75,-4.75 -0.4521,-2.254547 -0.4521,-2.254547 0,-5 1.801246,-2.289455 3.542386,-4.215739 5.608643,-6.239746 0.596805,-0.603961 1.193611,-1.207922 1.808502,-1.830185 1.980209,-1.99714 3.978068,-3.97551 5.977386,-5.953507 1.386928,-1.387756 2.77304,-2.776329 4.158371,-4.165679 2.91188,-2.914742 5.832365,-5.820495 8.759354,-8.720063 3.729412,-3.695536 7.438668,-7.410532 11.141759,-11.132421 2.8641,-2.874742 5.737981,-5.739545 8.614869,-8.601484 1.369741,-1.364598 2.73672,-2.731974 4.100742,-4.102288 C -40.778221,23.176446 -32.039716,14.609362 -19.5625,10.5 -12.97893,8.1346454 -5.0385147,5.0385147 0,0 Z"
       fill="#f1f1f3"
       transform="translate(413,121)"
       id="path6"
       style="stroke-width:1.09715;filter:url(#filter56)" /><path
       d="M 0,0 C 0.33,0 0.66,0 1,0 1.0747656,0.556875 1.1495312,1.11375 1.2265625,1.6875 2.5796259,9.5405736 6.3758503,14.526947 12,20 10.990885,21.72526 9.9817708,23.450521 8.9726563,25.175781 6.2754675,30.234364 6.2994191,35.669272 7.4609375,41.191406 9.542098,47.643004 13.475248,50.570895 19.3125,53.875 25.553122,55.778919 30.585851,54.899886 36.375,52 37.001484,51.649375 37.627969,51.29875 38.273437,50.9375 40,50 40,50 43,49 c 0.556875,0.9075 1.11375,1.815 1.6875,2.75 2.20188,3.094534 4.256397,5.042815 7.3125,7.25 -0.773438,0.06316 -1.546875,0.126328 -2.34375,0.191406 -7.012542,0.824495 -11.09063,2.13534 -16.035156,7.25 C 32,68 32,68 29,69 27.214511,68.026097 25.431219,67.045519 23.691406,65.992187 19.645907,63.619077 15.616963,63.615253 11,64 4.745401,66.008246 0.76133796,69.715906 -3,75 c -1.585869,3.171738 -1.3786644,6.635138 -1.5625,10.125 -0.064775,1.131152 -0.064775,1.131152 -0.1308594,2.285156 C -4.7994832,89.273219 -4.90025,91.136585 -5,93 c 0.99,0.33 1.98,0.66 3,1 1.6875,2.0625 1.6875,2.0625 3,4 -1.55904675,3.82675 -4.0316609,6.18008 -7,9 -0.66,0.66 -1.32,1.32 -2,2 -0.097969,-0.65227 -0.1959375,-1.30453 -0.296875,-1.97656 C -9.6889405,98.887055 -12.154371,93.944065 -19,89 c 0.268125,-0.495 0.53625,-0.99 0.8125,-1.5 3.80671,-8.014125 5.689568,-14.493105 3.0625,-23.25 C -18.598014,58.23011 -23.474542,55.13765 -30,53 -36.382528,52.176448 -39.668594,53.509224 -45.019531,57.003906 -45.999863,57.496973 -45.999863,57.496973 -47,58 c -4.713542,-1.571181 -7.292124,-4.938186 -10,-9 0.580078,-0.09797 1.160156,-0.195938 1.757813,-0.296875 6.407284,-1.226477 11.277399,-2.821437 15.117187,-8.453125 0.37125,-0.7425 0.7425,-1.485 1.125,-2.25 1.986098,0.975473 3.941247,1.96618 5.859375,3.070312 C -28.472566,43.674395 -24.386042,45.000409 -19,44 c 5.822175,-1.799581 9.4675158,-3.913223 13,-9 0.66,0 1.32,0 2,0 0,-1.32 0,-2.64 0,-4 0.66,0 1.32,0 2,0 C -2.456496,22.436765 -3.8786777,15.608595 -8,8 -6.5026042,6.7955729 -5.0052083,5.5911458 -3.5078125,4.3867187 -1.7470789,2.8772945 -1.7470789,2.8772945 0,0 Z"
       fill="#ececee"
       transform="translate(303,240)"
       id="path7"
       style="stroke-width:1.09715;filter:url(#filter57)" /><path
       d="M 0,0 C 3.6449955,0.42949105 5.2641864,1.933274 7.75,4.5625 8.3635938,5.2031641 8.9771875,5.8438281 9.609375,6.5039062 10.068281,6.9976172 10.527188,7.4913281 11,8 9.6755461,10.929449 8.2366341,13.018013 5.9770813,15.297073 5.0476572,16.24146 5.0476572,16.24146 4.0994568,17.204926 3.4209769,17.88407 2.742497,18.563215 2.043457,19.262939 c -0.7156311,0.723955 -1.43126218,1.44791 -2.16857907,2.193802 -2.36690053,2.390996 -4.74139263,4.774263 -7.11706543,7.15654 -1.6467357,1.655699 -3.2933915,3.311477 -4.9399715,4.967331 -3.451343,3.467832 -6.907055,6.931245 -10.365204,10.392288 -4.439698,4.445097 -8.862999,8.906139 -13.28253,13.371274 -3.393841,3.423508 -6.798805,6.835783 -10.207007,10.244989 -1.636424,1.640644 -3.268708,3.285429 -4.896812,4.93433 -2.272066,2.298776 -4.559234,4.581383 -6.850956,6.86054 -0.674431,0.689266 -1.348863,1.378532 -2.043732,2.088684 -0.625255,0.615492 -1.250511,1.230984 -1.894714,1.865128 -0.539417,0.541428 -1.078833,1.082856 -1.634596,1.640691 C -65,86 -65,86 -67.084688,85.768191 -69.566297,84.77287 -70.919571,83.373531 -72.75,81.4375 -73.363594,80.796836 -73.977187,80.156172 -74.609375,79.496094 -75.068281,79.002383 -75.527187,78.508672 -76,78 c 1.573265,-3.86165 4.043906,-6.103686 7,-9 1.066662,-1.073812 2.131156,-2.149782 3.193863,-3.227509 0.581669,-0.588895 1.163339,-1.17779 1.762634,-1.78453 0.620941,-0.628796 1.241881,-1.257591 1.881638,-1.905441 6.774067,-6.855599 13.560732,-13.698584 20.354722,-20.534438 4.106676,-4.132878 8.208508,-8.270346 12.300063,-12.418199 3.963031,-4.017195 7.938009,-8.022195 11.921705,-12.018894 1.51669,-1.525946 3.028964,-3.056295 4.536762,-4.591027 2.101895,-2.137981 4.2187072,-4.2600101 6.3398728,-6.3788487 0.6229646,-0.640941 1.2459292,-1.281882 1.8877716,-1.9422455 C -3.0668793,2.4656067 -3.0668793,2.4656067 0,0 Z"
       fill="#e9e9eb"
       transform="translate(490,411)"
       id="path8"
       style="stroke-width:1.09715;filter:url(#filter58)" /><path
       d="M 0,0 C 2.9420984,1.3271026 5.0161443,2.7678999 7.2903442,5.0498352 7.9184903,5.6752319 8.5466364,6.3006287 9.1938171,6.9449768 10.210177,7.972123 10.210177,7.972123 11.24707,9.0200195 c 0.722349,0.7220563 1.444697,1.4441125 2.188935,2.1880495 2.385478,2.386871 4.763794,4.780747 7.14212,7.174743 1.652945,1.656676 3.306332,3.31291 4.960144,4.96872 4.351092,4.358727 8.696144,8.723427 13.039978,13.089386 4.433837,4.454297 8.873342,8.902936 13.312378,13.352051 C 60.599317,58.523109 69.30164,67.259567 78,76 75.95933,80.266155 73.41447,82.733985 70,86 67.057902,84.672897 64.983856,83.2321 62.709656,80.950165 62.08151,80.324768 61.453364,79.699371 60.806183,79.055023 59.789823,78.027877 59.789823,78.027877 58.75293,76.97998 58.030581,76.257924 57.308233,75.535868 56.563995,74.791931 54.178517,72.40506 51.800201,70.011184 49.421875,67.617187 47.76893,65.960512 46.115543,64.304278 44.461731,62.648468 40.110639,58.289741 35.765587,53.925041 31.421753,49.559082 26.987916,45.104785 22.548411,40.656146 18.109375,36.207031 9.4006834,27.476891 0.69835992,18.740433 -8,10 -5.9593302,5.733845 -3.41447,3.2660148 0,0 Z"
       fill="#ededef"
       transform="translate(424,92)"
       id="path9"
       style="stroke-width:1.09715;filter:url(#filter59)" /><path
       d="m 0,0 c 4.266155,2.0406698 6.7339852,4.58553 10,8 -1.3271026,2.942098 -2.7678999,5.016144 -5.0498352,7.290344 -0.6253967,0.628146 -1.2507935,1.256292 -1.8951416,1.903473 -1.0271462,1.01636 -1.0271462,1.01636 -2.07504273,2.053253 -0.72205628,0.722349 -1.44411255,1.444697 -2.18804937,2.188935 -2.386871,2.385478 -4.7807473,4.763794 -7.1747436,7.14212 -1.6566755,1.652945 -3.3129095,3.306332 -4.9687195,4.960144 -4.358727,4.351092 -8.723427,8.696144 -13.089386,13.039978 -4.454297,4.433837 -8.902936,8.873342 -13.352051,13.312378 C -48.523109,68.599317 -57.259567,77.30164 -66,86 c -4.266155,-2.04067 -6.733985,-4.58553 -10,-8 1.327103,-2.942098 2.7679,-5.016144 5.049835,-7.290344 0.625397,-0.628146 1.250794,-1.256292 1.895142,-1.903473 0.684764,-0.677574 1.369528,-1.355147 2.075043,-2.053253 0.722056,-0.722349 1.444112,-1.444697 2.188049,-2.188935 2.386871,-2.385478 4.780747,-4.763794 7.174744,-7.14212 1.656675,-1.652945 3.312909,-3.306332 4.968719,-4.960144 4.358727,-4.351092 8.723427,-8.696144 13.089386,-13.039978 4.454297,-4.433837 8.902936,-8.873342 13.352051,-13.312378 C -17.476891,17.400683 -8.7404331,8.6983599 0,0 Z"
       fill="#eeeef0"
       transform="translate(174,91)"
       id="path10"
       style="stroke-width:1.09715;filter:url(#filter60)" /><path
       d="m 0,0 c 4.03082,1.612328 6.7594414,4.462346 9.75,7.5 0.506602,0.4988672 1.013203,0.9977344 1.535156,1.5117188 C 15,12.746589 15,12.746589 15,15 c 0.66,0 1.32,0 2,0 1.287247,1.307251 1.287247,1.307251 2.843994,3.212891 5.211998,6.123176 10.957771,11.712721 16.6521,17.380859 1.200908,1.19904 2.401593,2.398303 3.602066,3.597778 3.136063,3.132274 6.275119,6.261531 9.41484,9.390137 3.213,3.202708 6.423115,6.408304 9.633484,9.613647 C 65.428194,64.466348 71.713074,70.734195 78,77 c -0.957299,1.12588 -1.915879,2.250671 -2.875,3.375 -0.533672,0.626484 -1.067344,1.252969 -1.617188,1.898437 C 72.38568,83.558367 71.20628,84.79372 70,86 66.009588,85.775181 64.016786,83.379591 61.310791,80.651367 60.386256,79.726606 59.461722,78.801844 58.509171,77.84906 57.50726,76.831819 56.505509,75.81442 55.503906,74.796875 54.468508,73.755876 53.432441,72.715541 52.395737,71.675842 49.666932,68.935588 46.947244,66.186455 44.22937,63.435364 41.475346,60.650785 38.712949,57.874542 35.951172,55.097656 31.080253,50.198039 26.216798,45.291137 21.358658,40.378845 19.686178,38.692051 18.007052,37.011835 16.323349,35.336243 14.150526,33.151362 12.132305,30.898803 10.125,28.5625 7.1919846,25.227777 4.1719954,22.356269 0.7421875,19.550781 -2.4939499,16.670184 -5.2276944,13.320026 -8,10 -7.5900781,9.5294922 -7.1801562,9.0589844 -6.7578125,8.5742188 -6.2189844,7.9516016 -5.6801562,7.3289844 -5.125,6.6875 -4.5913281,6.0726172 -4.0576562,5.4577344 -3.5078125,4.8242187 -1.8359553,2.8650179 -1.8359553,2.8650179 0,0 Z"
       fill="#ededee"
       transform="translate(105,409)"
       id="path11"
       style="stroke-width:1.09715;filter:url(#filter61)" /><path
       d="m 0,0 c 0.99,0.495 0.99,0.495 2,1 -21.78,21.78 -43.56,43.56 -66,66 0,-3.57117 0.948407,-4.299321 3.371368,-6.744629 0.497085,-0.486299 0.99417,-0.972598 1.506318,-1.473633 0.518661,-0.519099 1.037322,-1.038199 1.571701,-1.573028 1.722097,-1.720002 3.454594,-3.42912 5.187332,-5.138398 1.199368,-1.193771 2.398075,-2.388208 3.596145,-3.583282 3.162779,-3.151308 6.334452,-6.293515 9.508042,-9.433929 3.213442,-3.182913 6.418565,-6.374176 9.624328,-9.56482 5.189608,-5.163237 10.384204,-10.321388 15.585755,-15.472595 C -11.023979,11.019088 -8.0089257,8.0127674 -5,5 -3.3333333,3.3333333 -1.6666667,1.6666667 0,0 Z"
       fill="#131313"
       transform="translate(367,130)"
       id="path12"
       style="stroke-width:1.09715;filter:url(#filter62)" /><path
       d="M 0,0 C 0.33,0 0.66,0 1,0 1.66,4.29 2.32,8.58 3,13 0.69,11.35 -1.62,9.7 -4,8 -2.6666667,5.3333333 -1.3333333,2.6666667 0,0 Z"
       fill="#bcbcbd"
       transform="translate(293,355)"
       id="path13"
       style="stroke-width:1.09715;filter:url(#filter63)" /><path
       d="M 0,0 C 2.3856408,0.57584432 4.6668278,1.2222759 7,2 7,2.66 7,3.32 7,4 3.37,4.66 -0.26,5.32 -4,6 -2.68,4.02 -1.36,2.04 0,0 Z"
       fill="#afafb1"
       transform="translate(230,284)"
       id="path14"
       style="stroke-width:1.09715;filter:url(#filter64)" /><path
       d="m 0,0 c -1.65,1.65 -3.3,3.3 -5,5 -2.0192034,-1.3040688 -4.0192497,-2.6382342 -6,-4 0,-0.33 0,-0.66 0,-1 1.4573609,-0.19491452 2.9159459,-0.38069358 4.375,-0.5625 0.8121094,-0.10441406 1.6242188,-0.20882813 2.4609375,-0.31640625 C -2,-1 -2,-1 0,0 Z"
       fill="#d3d3d5"
       transform="translate(372,300)"
       id="path15"
       style="stroke-width:1.09715;filter:url(#filter65)" /><path
       d="M 0,0 C 1.98,1.65 3.96,3.3 6,5 4.8482664,7.4680005 3.9521644,9.0478357 2,11 1.34,7.37 0.68,3.74 0,0 Z"
       fill="#cececf"
       transform="translate(304,220)"
       id="path16"
       style="stroke-width:1.09715;filter:url(#filter66)" /><path
       d="M 0,0 C 0,0.33 0,0.66 0,1 -0.94875,1.28875 -1.8975,1.5775 -2.875,1.875 -6.0521158,2.7682511 -6.0521158,2.7682511 -8,5 c -0.6476779,2.5706131 -0.6476779,2.5706131 -1,5 -0.33,0 -0.66,0 -1,0 C -10.216911,6.8186361 -10.250663,4.5603045 -8.9375,1.625 -6.0605244,-0.78794727 -3.623402,-0.2734643 0,0 Z"
       fill="#3b3b3c"
       transform="translate(198,229)"
       id="path17"
       style="stroke-width:1.09715;filter:url(#filter67)" /><path
       d="M 0,0 C -0.28875,0.556875 -0.5775,1.11375 -0.875,1.6875 -2.0413253,4.0849465 -3.0339881,6.5159694 -4,9 -4.33,9 -4.66,9 -5,9 -5.3666667,3.5 -5.3666667,3.5 -3.625,1.125 -2,0 -2,0 0,0 Z"
       fill="#b4b4b6"
       transform="translate(314,428)"
       id="path18"
       style="stroke-width:1.09715;filter:url(#filter68)" /></g></svg>
