<?xml version="1.0" encoding="UTF-8"?>
<svg version="1.1" xmlns="http://www.w3.org/2000/svg" width="900" height="650">
<path d="M0 0 C297 0 594 0 900 0 C900 214.5 900 429 900 650 C603 650 306 650 0 650 C0 435.5 0 221 0 0 Z " fill="#42AE96" transform="translate(0,0)"/>
<path d="M0 0 C0.86447754 0.12938965 1.72895508 0.2587793 2.61962891 0.39208984 C44.63657074 6.86242106 85.74879929 24.56336222 119 51 C119.9075 51.71542969 120.815 52.43085937 121.75 53.16796875 C136.86077263 65.29522235 151.06527579 78.71592157 163 94 C163.77730469 94.96035156 164.55460937 95.92070312 165.35546875 96.91015625 C188.09444838 125.50559805 204.25131797 159.60213938 213 195 C213.28931396 196.15363037 213.28931396 196.15363037 213.58447266 197.33056641 C229.48176398 262.12554194 217.63738886 332.72849805 184 390 C177.36020824 400.81600109 170.01524484 411.16200207 162 421 C161.5575293 421.54543457 161.11505859 422.09086914 160.65917969 422.65283203 C149.44023756 436.37409634 137.06207814 449.1814377 123 460 C121.56720703 461.15822266 121.56720703 461.15822266 120.10546875 462.33984375 C97.31269472 480.48805251 71.47150007 493.57374184 44 503 C42.7637085 503.43650879 42.7637085 503.43650879 41.50244141 503.88183594 C3.62907047 517.19908254 -39.50210839 520.07855078 -79 513 C-79.94536621 512.83902832 -80.89073242 512.67805664 -81.86474609 512.51220703 C-105.63311463 508.38633215 -128.38144825 500.66409063 -150 490 C-150.72832031 489.64470215 -151.45664062 489.2894043 -152.20703125 488.92333984 C-168.6377419 480.83010467 -183.81254271 470.55885014 -198 459 C-198.54543457 458.5575293 -199.09086914 458.11505859 -199.65283203 457.65917969 C-213.37409634 446.44023756 -226.1814377 434.06207814 -237 420 C-237.77214844 419.04480469 -238.54429687 418.08960938 -239.33984375 417.10546875 C-257.25262931 394.6083684 -270.28004952 368.9673814 -280 342 C-280.26393555 341.27844727 -280.52787109 340.55689453 -280.79980469 339.81347656 C-289.03265657 317.1370249 -293.47330219 292.10739753 -294 268 C-294.02578125 267.11151367 -294.0515625 266.22302734 -294.078125 265.30761719 C-295.18809255 222.64323954 -286.81241758 181.36732775 -268 143 C-267.61086426 142.20255371 -267.22172852 141.40510742 -266.82080078 140.58349609 C-258.39752448 123.51264485 -248.01951535 107.75288274 -236 93 C-235.5575293 92.45456543 -235.11505859 91.90913086 -234.65917969 91.34716797 C-223.44023756 77.62590366 -211.06207814 64.8185623 -197 54 C-196.04480469 53.22785156 -195.08960938 52.45570312 -194.10546875 51.66015625 C-161.05673914 25.34588475 -120.66791644 7.70286349 -79 1 C-78.09717285 0.85046875 -77.1943457 0.7009375 -76.26416016 0.546875 C-51.54065008 -3.40004008 -24.76553379 -4.04876198 0 0 Z " fill="#CBCBCA" transform="translate(487,68)"/>
<path d="M0 0 C0.86447754 0.12938965 1.72895508 0.2587793 2.61962891 0.39208984 C44.63657074 6.86242106 85.74879929 24.56336222 119 51 C119.9075 51.71542969 120.815 52.43085937 121.75 53.16796875 C136.86077263 65.29522235 151.06527579 78.71592157 163 94 C163.77730469 94.96035156 164.55460937 95.92070312 165.35546875 96.91015625 C188.09444838 125.50559805 204.25131797 159.60213938 213 195 C213.28931396 196.15363037 213.28931396 196.15363037 213.58447266 197.33056641 C229.48176398 262.12554194 217.63738886 332.72849805 184 390 C177.36020824 400.81600109 170.01524484 411.16200207 162 421 C161.5575293 421.54543457 161.11505859 422.09086914 160.65917969 422.65283203 C149.44023756 436.37409634 137.06207814 449.1814377 123 460 C121.56720703 461.15822266 121.56720703 461.15822266 120.10546875 462.33984375 C97.31269472 480.48805251 71.47150007 493.57374184 44 503 C42.7637085 503.43650879 42.7637085 503.43650879 41.50244141 503.88183594 C3.62907047 517.19908254 -39.50210839 520.07855078 -79 513 C-79.94536621 512.83902832 -80.89073242 512.67805664 -81.86474609 512.51220703 C-105.63311463 508.38633215 -128.38144825 500.66409063 -150 490 C-150.72832031 489.64470215 -151.45664062 489.2894043 -152.20703125 488.92333984 C-168.6377419 480.83010467 -183.81254271 470.55885014 -198 459 C-198.54543457 458.5575293 -199.09086914 458.11505859 -199.65283203 457.65917969 C-213.37409634 446.44023756 -226.1814377 434.06207814 -237 420 C-237.77214844 419.04480469 -238.54429687 418.08960938 -239.33984375 417.10546875 C-257.25262931 394.6083684 -270.28004952 368.9673814 -280 342 C-280.26393555 341.27844727 -280.52787109 340.55689453 -280.79980469 339.81347656 C-289.03265657 317.1370249 -293.47330219 292.10739753 -294 268 C-294.02578125 267.11151367 -294.0515625 266.22302734 -294.078125 265.30761719 C-295.18809255 222.64323954 -286.81241758 181.36732775 -268 143 C-267.61086426 142.20255371 -267.22172852 141.40510742 -266.82080078 140.58349609 C-258.39752448 123.51264485 -248.01951535 107.75288274 -236 93 C-235.5575293 92.45456543 -235.11505859 91.90913086 -234.65917969 91.34716797 C-223.44023756 77.62590366 -211.06207814 64.8185623 -197 54 C-196.04480469 53.22785156 -195.08960938 52.45570312 -194.10546875 51.66015625 C-161.05673914 25.34588475 -120.66791644 7.70286349 -79 1 C-78.09717285 0.85046875 -77.1943457 0.7009375 -76.26416016 0.546875 C-51.54065008 -3.40004008 -24.76553379 -4.04876198 0 0 Z M-51.55078125 34.046875 C-61.85050205 34.26333148 -71.17844363 36.12516824 -81 39 C-81.70253906 39.20173828 -82.40507812 39.40347656 -83.12890625 39.61132812 C-90.75892984 41.82001917 -97.99913888 44.18134848 -105 48 C-106.051875 48.433125 -107.10375 48.86625 -108.1875 49.3125 C-140.46838157 62.94711893 -166.4134396 89.71308256 -182.6875 120.25 C-183.1218335 121.06009521 -183.55616699 121.87019043 -184.00366211 122.70483398 C-184.3981958 123.46739502 -184.79272949 124.22995605 -185.19921875 125.015625 C-185.54815186 125.68883789 -185.89708496 126.36205078 -186.2565918 127.05566406 C-187.23808763 129.27576785 -187.23808763 129.27576785 -187 133 C-187.66 133 -188.32 133 -189 133 C-189.83857688 135.60258324 -190.67103344 138.20685647 -191.5 140.8125 C-191.73847656 141.55048828 -191.97695313 142.28847656 -192.22265625 143.04882812 C-193.19940136 146.13255196 -194 148.74495809 -194 152 C-194.73863281 152.09667969 -195.47726562 152.19335938 -196.23828125 152.29296875 C-199.36662268 153.09385955 -200.8082616 154.16336202 -203.1875 156.3125 C-203.86167969 156.90675781 -204.53585937 157.50101562 -205.23046875 158.11328125 C-208.6539523 161.76348557 -209.24799348 164.68861265 -209.1953125 169.640625 C-209.18886719 170.71054688 -209.18242187 171.78046875 -209.17578125 172.8828125 C-209.15902344 173.99398437 -209.14226562 175.10515625 -209.125 176.25 C-209.11597656 177.37664062 -209.10695313 178.50328125 -209.09765625 179.6640625 C-209.07410658 182.44292365 -209.0412168 185.2213539 -209 188 C-209.99 187.95359375 -210.98 187.9071875 -212 187.859375 C-222.68735351 187.37446199 -222.68735351 187.37446199 -232 192 C-236.37953442 197.28626347 -237.73552334 201.85851861 -237.63110352 208.61572266 C-237.63825882 209.43630661 -237.64541412 210.25689056 -237.65278625 211.1023407 C-237.66957032 213.79016338 -237.65033575 216.47629401 -237.62890625 219.1640625 C-237.62973574 221.04397723 -237.63219815 222.92389187 -237.63621521 224.80380249 C-237.63906594 228.73270648 -237.62444019 232.66103808 -237.59692383 236.58984375 C-237.56279518 241.61816521 -237.56888178 246.64546695 -237.5875864 251.67383766 C-237.59816748 255.55156921 -237.58920929 259.42906454 -237.57420158 263.30677414 C-237.56903062 265.16067172 -237.56948836 267.01459408 -237.57574654 268.86848831 C-237.5812141 271.46055217 -237.56077715 274.05116774 -237.53344727 276.64306641 C-237.54323608 277.78407555 -237.54323608 277.78407555 -237.55322266 278.94813538 C-237.44053684 285.25252133 -235.00749138 288.50794173 -231.1875 293.25 C-224.82911541 298.33670768 -216.70302791 297.20850301 -209 297 C-209.01571045 297.66531738 -209.0314209 298.33063477 -209.04760742 299.01611328 C-209.11025597 302.0523212 -209.14908509 305.08839272 -209.1875 308.125 C-209.21263672 309.17171875 -209.23777344 310.2184375 -209.26367188 311.296875 C-209.32722867 317.99152452 -208.98642489 322.69483834 -204.31640625 327.86328125 C-203.73761719 328.34152344 -203.15882813 328.81976563 -202.5625 329.3125 C-201.98628906 329.80363281 -201.41007812 330.29476563 -200.81640625 330.80078125 C-196.96572231 333.34306075 -192.99106475 333.1181412 -188.484375 333.09765625 C-186.60878906 333.09282227 -186.60878906 333.09282227 -184.6953125 333.08789062 C-183.39335937 333.07951172 -182.09140625 333.07113281 -180.75 333.0625 C-179.43257812 333.05798828 -178.11515625 333.05347656 -176.7578125 333.04882812 C-173.50516259 333.03704316 -170.25260416 333.02059011 -167 333 C-166.95464111 333.63993896 -166.90928223 334.27987793 -166.86254883 334.93920898 C-164.50251057 363.29402479 -144.61100792 389.72694398 -123.77734375 407.890625 C-113.30274132 416.31268207 -101.35559741 422.78681312 -89 428 C-88.98382629 428.56296783 -88.96765259 429.12593567 -88.95098877 429.70596313 C-88.77851559 435.57945223 -88.57950009 441.45162059 -88.36523438 447.32373047 C-88.28879432 449.51360852 -88.219064 451.70373172 -88.15625 453.89404297 C-88.06463977 457.047439 -87.9487141 460.19915779 -87.828125 463.3515625 C-87.80502258 464.32678864 -87.78192017 465.30201477 -87.75811768 466.30679321 C-87.7183783 467.22729462 -87.67863892 468.14779602 -87.63769531 469.09619141 C-87.61104797 469.9000528 -87.58440063 470.70391418 -87.5569458 471.53213501 C-86.73071948 475.19320043 -85.53975225 477.22065782 -83 480 C-79.83963396 480.61707758 -77.43552906 480.82273676 -74.27172852 480.77636719 C-73.39160095 480.7868811 -72.51147339 480.79739502 -71.60467529 480.80822754 C-68.69536328 480.8346351 -65.78824048 480.81715273 -62.87890625 480.796875 C-60.85635457 480.80091676 -58.83380574 480.80673988 -56.81126404 480.81427002 C-52.57172911 480.82311783 -48.33295262 480.8102539 -44.09350586 480.78222656 C-38.66111821 480.74806188 -33.23051035 480.76770819 -27.79818821 480.80366135 C-23.62105424 480.82535368 -19.44434148 480.81843692 -15.26719475 480.80289459 C-13.26453376 480.79889391 -11.26183444 480.80379767 -9.25921822 480.81777191 C-6.45767264 480.83302895 -3.65899792 480.80976512 -0.85766602 480.77636719 C0.38231895 480.79458527 0.38231895 480.79458527 1.64735413 480.81317139 C4.78205222 480.74400456 7.07012238 480.69016774 9.63701344 478.7849865 C12.39028828 475.74084271 13.6237897 473.16237436 13.56762695 469.09619141 C13.5672493 468.17569 13.56687164 467.2551886 13.56648254 466.30679321 C13.54067612 465.33156708 13.51486969 464.35634094 13.48828125 463.3515625 C13.48120651 462.33903412 13.47413177 461.32650574 13.46684265 460.28329468 C13.43895079 457.06309783 13.37622008 453.84466744 13.3125 450.625 C13.28741049 448.4362231 13.26459846 446.24741884 13.24414062 444.05859375 C13.1891416 438.70513088 13.10556775 433.35269166 13 428 C13.668535 427.81189758 14.33707001 427.62379517 15.02586365 427.42999268 C16.35582115 427.04553986 16.35582115 427.04553986 17.71264648 426.65332031 C19.02482399 426.27835419 19.02482399 426.27835419 20.36351013 425.89581299 C24.63082762 424.44588577 28.281113 422.16600058 32.0625 419.75 C32.84834473 419.25693359 33.63418945 418.76386719 34.44384766 418.25585938 C39.89178967 414.79979639 45.12945083 411.24382409 50 407 C50.928125 406.20335937 51.85625 405.40671875 52.8125 404.5859375 C72.87582741 387.00547111 91.0461523 361.10083565 94 334 C94.77601563 333.9906543 95.55203125 333.98130859 96.3515625 333.97167969 C99.90166287 333.91766563 103.45048948 333.83407697 107 333.75 C108.22074219 333.73582031 109.44148438 333.72164063 110.69921875 333.70703125 C118.37802373 333.49949598 124.73497813 333.08593808 130.54663086 327.51831055 C134.24807851 323.31138172 135.12784088 320.13919854 135.09765625 314.67578125 C135.09282227 313.13374023 135.09282227 313.13374023 135.08789062 311.56054688 C135.07951172 310.48869141 135.07113281 309.41683594 135.0625 308.3125 C135.05573242 306.68731445 135.05573242 306.68731445 135.04882812 305.02929688 C135.03703743 302.35280915 135.02058063 299.67643223 135 297 C135.9178125 297.04640625 136.835625 297.0928125 137.78125 297.140625 C148.07408617 297.49962224 148.07408617 297.49962224 157 293 C161.36870083 288.69715898 163.10687058 285.56778544 163.16885376 279.42359924 C163.17154266 278.64540329 163.17423157 277.86720734 163.17700195 277.06542969 C163.18357315 276.24572189 163.19014435 275.4260141 163.19691467 274.58146667 C163.21666722 271.8616019 163.22831532 269.14179242 163.23828125 266.421875 C163.24235678 265.49343025 163.2464323 264.5649855 163.25063133 263.60840607 C163.27150158 258.69320395 163.2857985 253.77802983 163.29516602 248.86279297 C163.30622541 243.78734239 163.34061714 238.71233084 163.38033772 233.63703537 C163.40649459 229.73363433 163.41485708 225.83033797 163.41844749 221.92685699 C163.42331678 220.05617563 163.43494051 218.18549904 163.45348549 216.31490326 C163.47785471 213.69363241 163.47691601 211.07349808 163.4699707 208.45214844 C163.48278076 207.68204941 163.49559082 206.91195038 163.50878906 206.11851501 C163.45868581 200.91929432 162.26619536 198.01174937 159 194 C153.47052564 189.02347308 149.64991411 187.69314956 142.25 187.875 C141.55261719 187.88402344 140.85523438 187.89304688 140.13671875 187.90234375 C138.42433042 187.92580112 136.71211996 187.96166896 135 188 C135.0314209 186.95658447 135.0314209 186.95658447 135.06347656 185.89208984 C135.1469698 182.71987542 135.19876529 179.54789269 135.25 176.375 C135.30027344 174.73337891 135.30027344 174.73337891 135.3515625 173.05859375 C135.44467177 165.37707918 134.69299899 161.9763493 129.47265625 156.35546875 C126.37605971 153.79069765 124.02918718 152.35551652 120 152 C119.7525 150.7625 119.505 149.525 119.25 148.25 C112.05063599 116.77710464 91.20595151 86.78228413 65 68 C63.47246094 66.84177734 63.47246094 66.84177734 61.9140625 65.66015625 C48.177399 55.36566834 33.3727639 47.21520225 17 42 C16.29939453 41.77473633 15.59878906 41.54947266 14.87695312 41.31738281 C-7.25701005 34.34707365 -28.46837922 33.6226961 -51.55078125 34.046875 Z " fill="#FAFCFC" transform="translate(487,68)"/>
<path d="M0 0 C2.30740039 -0.00678354 4.61479537 -0.0156908 6.92218018 -0.02655029 C13.16188186 -0.04926215 19.40116822 -0.04054055 25.64087677 -0.02465487 C32.18556295 -0.01195391 38.7302147 -0.02374762 45.27490234 -0.03158569 C56.96629453 -0.04224833 68.65751275 -0.02575937 80.34887481 -0.00028901 C90.92863986 0.0220469 101.50813052 0.01816585 112.08789062 -0.00488281 C124.40239929 -0.03169855 136.71673326 -0.04156967 149.03126717 -0.02682149 C155.53952746 -0.0190455 162.04759915 -0.01793458 168.55584717 -0.03450394 C174.67593858 -0.04899806 180.79551425 -0.03883605 186.91555023 -0.01003265 C189.155191 -0.00344832 191.39487552 -0.00527378 193.6344986 -0.01634598 C209.5267175 -0.08764142 221.06690268 0.74620587 233.03515625 12.31103516 C240.39910463 20.39111063 242.45942568 28.17609197 242.50219727 38.92822266 C242.51373337 39.95024277 242.52526947 40.97226288 242.53715515 42.0252533 C242.57140014 45.3991756 242.58995538 48.77291489 242.60546875 52.14697266 C242.61237165 53.30448029 242.61927456 54.46198792 242.62638664 55.65457153 C242.66220086 61.78501517 242.68574833 67.9153671 242.69946289 74.04589844 C242.71597393 80.34936927 242.77435235 86.65171104 242.84260654 92.95480347 C242.88758959 97.82617675 242.90097229 102.69728454 242.90608025 107.56884766 C242.91393185 109.89069565 242.93344733 112.21253696 242.96530342 114.53417969 C243.16345231 129.99986893 242.54859018 141.90368982 231.6015625 153.77197266 C230.47938627 154.75790233 229.3352991 155.71985797 228.1640625 156.64697266 C227.2565625 157.38947266 226.3490625 158.13197266 225.4140625 158.89697266 C216.58178152 163.65281626 207.4529499 164.08607551 197.60546875 164.01025391 C196.33992661 164.01075241 195.07438446 164.01125092 193.77049255 164.01176453 C191.10863866 164.00943622 188.44759988 164.00140002 185.78588867 163.9831543 C182.40967454 163.9604931 179.03390877 163.95992691 175.6576395 163.96667194 C172.39021667 163.9708576 169.1228702 163.95880897 165.85546875 163.94775391 C164.6613588 163.94866531 163.46724884 163.94957672 162.23695374 163.95051575 C152.84227299 163.8722932 143.1164616 163.38670269 134.4140625 159.52197266 C133.43050781 159.08884766 132.44695312 158.65572266 131.43359375 158.20947266 C128.31973012 156.72136579 125.25022036 155.16765936 122.18188477 153.58886719 C109.08724612 146.87327385 96.6074655 142.74161733 81.9140625 147.33447266 C77.47402127 148.98346435 73.44988058 151.02255624 69.375 153.42041016 C65.47504149 155.58399138 61.34259355 157.11065062 57.1640625 158.64697266 C56.05224609 159.06462891 56.05224609 159.06462891 54.91796875 159.49072266 C44.59400716 163.17127937 34.43329056 163.95601453 23.53515625 163.94775391 C22.26487076 163.95203903 20.99458527 163.95632416 19.68580627 163.96073914 C17.01573592 163.96645114 14.34605624 163.96795477 11.67602539 163.96264648 C8.28159791 163.95684213 4.88771438 163.97383592 1.49337673 163.99699116 C-1.7843585 164.01538942 -5.06206628 164.01154119 -8.33984375 164.01025391 C-9.54427628 164.01946365 -10.7487088 164.0286734 -11.98963928 164.03816223 C-24.97869945 163.96749966 -33.15605612 160.90795141 -42.5546875 152.02197266 C-53.49377159 140.41314873 -52.54707111 126.9107556 -52.4296875 111.95556641 C-52.42797403 109.641119 -52.42804448 107.32666966 -52.42980957 105.01222229 C-52.42816146 100.1764961 -52.40955528 95.34123634 -52.37792969 90.50561523 C-52.33823226 84.32665907 -52.33389053 78.14831212 -52.34139252 71.96925259 C-52.34447088 67.19495627 -52.33231115 62.42079531 -52.31526184 57.64653206 C-52.30826253 55.36890576 -52.30510356 53.09126414 -52.30595398 50.81362724 C-52.30414387 47.62425193 -52.28265873 44.43558898 -52.25585938 41.24633789 C-52.25878998 40.3177446 -52.26172058 39.38915131 -52.26473999 38.43241882 C-52.11796143 27.0347442 -48.79609305 19.04713969 -41.08984375 10.77197266 C-29.16169198 -0.73460202 -15.53094291 -0.07678154 0 0 Z " fill="#808080" transform="translate(354.8359375,228.35302734375)"/>
<path d="M0 0 C3.07506315 1.7509429 6.18693127 3.10564731 9.4765625 4.41015625 C10.4665625 4.82394531 11.4565625 5.23773438 12.4765625 5.6640625 C13.5903125 6.11652344 14.7040625 6.56898438 15.8515625 7.03515625 C16.89054688 7.46054687 17.92953125 7.8859375 19 8.32421875 C27.35396135 10.93365836 36.20518504 10.58282007 44.875 10.61328125 C46.78111557 10.62183136 46.78111557 10.62183136 48.72573853 10.6305542 C51.40345832 10.63996405 54.08106717 10.64688206 56.75878906 10.65039062 C60.15986561 10.65587279 63.56054142 10.67992544 66.96149254 10.70836258 C70.24513031 10.73165469 73.52879126 10.7334481 76.8125 10.73828125 C78.01804535 10.75062805 79.2235907 10.76297485 80.46566772 10.7756958 C89.58714554 10.75191972 98.86003177 9.92557505 106.4765625 4.41015625 C107.4612472 34.77126782 92.9658187 62.2572834 72.62695312 84.11523438 C64.04424958 93.15028568 55.03784743 99.94927803 44.4765625 106.41015625 C43.56390625 107.00183594 42.65125 107.59351563 41.7109375 108.203125 C40.89109375 108.72519531 40.07125 109.24726563 39.2265625 109.78515625 C38.54078125 110.22601563 37.855 110.666875 37.1484375 111.12109375 C34.5469973 112.37617455 32.07656513 113.17806819 29.30957031 113.99072266 C28.40555481 114.25752838 27.50153931 114.52433411 26.57012939 114.79922485 C25.53381378 115.10163589 25.53381378 115.10163589 24.4765625 115.41015625 C24.48766556 115.97312408 24.49876862 116.53609192 24.51020813 117.11611938 C24.62103727 122.9885467 24.69632678 128.86067579 24.7512207 134.73388672 C24.77632684 136.92411369 24.81041887 139.11425719 24.85375977 141.30419922 C24.91458157 144.45691547 24.94281173 147.60852178 24.96484375 150.76171875 C24.99065018 151.73694489 25.0164566 152.71217102 25.04304504 153.71694946 C25.0434227 154.63745087 25.04380035 155.55795227 25.04418945 156.50634766 C25.05529251 157.31020905 25.06639557 158.11407043 25.07783508 158.94229126 C24.18366354 162.61233163 22.47679422 165.1833437 19.4765625 167.41015625 C16.51822881 168.26811028 13.6834748 168.23154876 10.61889648 168.18652344 C9.7370166 168.19703735 8.85513672 168.20755127 7.9465332 168.21838379 C5.03784892 168.24474577 2.13136189 168.22732818 -0.77734375 168.20703125 C-2.80086181 168.2110736 -4.82437704 168.2168972 -6.84788513 168.22442627 C-11.08564028 168.23326729 -15.32263595 168.22042929 -19.56030273 168.19238281 C-24.99387996 168.15817479 -30.42568061 168.17789619 -35.85919285 168.2138176 C-40.03628447 168.23549095 -44.21295424 168.22860266 -48.39005852 168.21305084 C-50.39354602 168.20904718 -52.39707177 168.21396439 -54.4005146 168.22792816 C-57.19976506 168.24315888 -59.99613071 168.21996043 -62.79516602 168.18652344 C-63.62384689 168.19866882 -64.45252777 168.21081421 -65.30632019 168.22332764 C-67.62135315 168.17205811 -67.62135315 168.17205811 -71.5234375 167.41015625 C-74.66382713 163.97351499 -76.00768132 161.13546758 -76.16113281 156.50634766 C-76.20087219 155.58584625 -76.24061157 154.66534485 -76.28155518 153.71694946 C-76.30465759 152.74172333 -76.32776001 151.76649719 -76.3515625 150.76171875 C-76.3902948 149.74919037 -76.4290271 148.73666199 -76.46893311 147.69345093 C-76.58804259 144.47435703 -76.68109505 141.2551181 -76.7734375 138.03515625 C-76.84984212 135.84629344 -76.92794823 133.65748931 -77.0078125 131.46875 C-77.19940192 126.1164082 -77.36963332 120.76370994 -77.5234375 115.41015625 C-78.60665283 114.87108643 -79.68986816 114.3320166 -80.8059082 113.77661133 C-82.24953538 113.05685085 -83.69313757 112.33704024 -85.13671875 111.6171875 C-85.84799927 111.26338013 -86.55927979 110.90957275 -87.29211426 110.54504395 C-110.67795945 98.87560785 -129.14529012 81.94239217 -142.5234375 59.41015625 C-142.93883789 58.7130957 -143.35423828 58.01603516 -143.78222656 57.29785156 C-146.83444593 52.00779941 -149.15981356 46.67962783 -151.1484375 40.91015625 C-151.44693604 40.04938477 -151.74543457 39.18861328 -152.05297852 38.30175781 C-155.65741731 27.52112802 -157.73853715 16.79778484 -157.5234375 5.41015625 C-156.9046875 5.67828125 -156.2859375 5.94640625 -155.6484375 6.22265625 C-146.62761031 9.65057058 -138.8828329 10.85804235 -129.203125 10.80859375 C-127.9456546 10.81146393 -126.6881842 10.81433411 -125.39260864 10.81729126 C-122.74156135 10.81932438 -120.09135553 10.81538502 -117.44042969 10.80126953 C-114.75630742 10.78765236 -112.07279335 10.78751278 -109.38867188 10.80126953 C-82.47751081 11.26443161 -82.47751081 11.26443161 -57.5234375 2.41015625 C-55.19218821 1.40530742 -52.85900213 0.40493378 -50.5234375 -0.58984375 C-49.25020819 -1.25192299 -47.97949236 -1.91885166 -46.7109375 -2.58984375 C-30.68119676 -10.57400581 -15.24592358 -8.73956464 0 0 Z " fill="#FBCFA2" transform="translate(475.5234375,380.58984375)"/>
<path d="M0 0 C47.3527734 -1.07635325 89.64545579 12.92216156 124.42431641 45.73803711 C125.91578966 47.17517745 127.39348332 48.62472133 128.86474609 50.08251953 C130.02683594 51.22527344 130.02683594 51.22527344 131.21240234 52.39111328 C146.02726097 67.90503965 165.86474609 95.53640952 165.86474609 118.08251953 C155.30474609 118.08251953 144.74474609 118.08251953 133.86474609 118.08251953 C132.75099609 115.75189453 131.63724609 113.42126953 130.48974609 111.02001953 C123.76459431 97.4086261 115.45155766 85.9195364 104.86474609 75.08251953 C104.12611328 74.28201172 103.38748047 73.48150391 102.62646484 72.65673828 C96.7262101 66.41131324 90.03355157 61.72374863 82.86474609 57.08251953 C82.04232422 56.53724609 81.21990234 55.99197266 80.37255859 55.43017578 C75.40844829 52.27955358 70.22852999 49.77600101 64.86474609 47.39501953 C64.22432373 47.10933105 63.58390137 46.82364258 62.92407227 46.52929688 C57.60732844 44.23832585 52.50838545 42.77561134 46.86474609 41.08251953 C46.86474609 54.61251953 46.86474609 68.14251953 46.86474609 82.08251953 C21.78474609 82.08251953 -3.29525391 82.08251953 -29.13525391 82.08251953 C-29.13525391 68.55251953 -29.13525391 55.02251953 -29.13525391 41.08251953 C-40.1147877 44.37706244 -40.1147877 44.37706244 -50.32275391 48.95751953 C-50.99927002 49.3070166 -51.67578613 49.65651367 -52.37280273 50.01660156 C-54.30243447 51.02302519 -56.22084963 52.04747898 -58.13525391 53.08251953 C-59.05306641 53.57751953 -59.97087891 54.07251953 -60.91650391 54.58251953 C-85.64745473 68.71449143 -105.42393954 91.37640503 -115.13525391 118.08251953 C-126.02525391 118.08251953 -136.91525391 118.08251953 -148.13525391 118.08251953 C-145.88525391 107.95751953 -145.88525391 107.95751953 -144.51025391 103.52001953 C-144.24986328 102.67310547 -143.98947266 101.82619141 -143.72119141 100.95361328 C-143.43115234 100.02742188 -143.43115234 100.02742188 -143.13525391 99.08251953 C-142.47525391 99.08251953 -141.81525391 99.08251953 -141.13525391 99.08251953 C-141.05919922 98.27556641 -140.98314453 97.46861328 -140.90478516 96.63720703 C-135.27816644 70.64622718 -109.78153984 46.06813466 -89.13525391 31.08251953 C-88.29865234 30.45216797 -87.46205078 29.82181641 -86.60009766 29.17236328 C-77.13675137 22.23678896 -66.49258647 15.94811925 -55.44384766 11.93408203 C-53.5467582 11.23430961 -51.68732739 10.43327134 -49.84228516 9.60595703 C-46.12782384 8.00032227 -42.31926728 6.99659348 -38.38525391 6.08251953 C-33.74976193 4.97941265 -29.18795971 3.80911755 -24.63525391 2.39501953 C-16.54739306 0.20975316 -8.31525657 0.21885662 0 0 Z " fill="#828181" transform="translate(441.13525390625,101.91748046875)"/>
<path d="M0 0 C0.77403168 0.00141495 1.54806335 0.0028299 2.34555054 0.00428772 C4.82155192 0.00989222 7.29746338 0.02244542 9.7734375 0.03515625 C11.45051953 0.04017067 13.12760297 0.04473368 14.8046875 0.04882812 C18.91930556 0.0598631 23.03385628 0.07713071 27.1484375 0.09765625 C22.84117716 14.88591676 22.84117716 14.88591676 17.3359375 19.28515625 C11.02313067 24.74956563 7.43076031 30.82788658 6.1484375 39.09765625 C5.9749564 42.42482148 5.95000786 45.75060309 5.92382812 49.08178711 C5.91243805 50.08415405 5.90104797 51.086521 5.88931274 52.1192627 C5.77866783 62.60134099 5.73123429 73.08411139 5.68847656 83.56665039 C5.66623733 88.5298945 5.62451425 93.49238251 5.56542969 98.45532227 C5.49403459 104.46530273 5.45759906 110.47457401 5.44535828 116.48495674 C5.43500957 118.76495564 5.4127105 121.04493535 5.37776184 123.32468987 C5.1907599 136.19166613 5.03378834 147.45832047 13.1484375 158.09765625 C15.37975421 160.03797829 15.37975421 160.03797829 17.5859375 161.47265625 C19.80038147 163.10682203 20.97720575 164.19250555 21.49658203 166.93798828 C21.84310397 171.68175419 21.55738385 176.36637416 21.1484375 181.09765625 C16.79439885 181.18521297 12.44058873 181.23823594 8.0859375 181.28515625 C6.85681641 181.31029297 5.62769531 181.33542969 4.36132812 181.36132812 C-9.0046989 181.46940921 -9.0046989 181.46940921 -14.8125 176.37890625 C-15.27914062 175.79109375 -15.74578125 175.20328125 -16.2265625 174.59765625 C-16.70867187 174.00984375 -17.19078125 173.42203125 -17.6875 172.81640625 C-19.92244358 169.51648956 -19.97053957 166.63250614 -19.94921875 162.7734375 C-19.94599609 161.74541016 -19.94277344 160.71738281 -19.93945312 159.65820312 C-19.93107422 158.58634766 -19.92269531 157.51449219 -19.9140625 156.41015625 C-19.90955078 155.32669922 -19.90503906 154.24324219 -19.90039062 153.12695312 C-19.88859993 150.4504654 -19.87214313 147.77408848 -19.8515625 145.09765625 C-20.6971875 145.13246094 -21.5428125 145.16726563 -22.4140625 145.203125 C-37.20109141 145.55599728 -37.20109141 145.55599728 -42.6328125 140.41015625 C-47.1596555 135.28542833 -48.00698121 132.00890033 -48.04443359 125.19482422 C-48.05261108 124.37832901 -48.06078857 123.5618338 -48.06921387 122.72059631 C-48.09408475 120.01035293 -48.11059149 117.30016213 -48.125 114.58984375 C-48.13032368 113.6638953 -48.13564735 112.73794685 -48.14113235 111.78393936 C-48.16787602 106.87940549 -48.1872438 101.97489714 -48.20166016 97.0703125 C-48.21827741 92.01289222 -48.26302704 86.95612746 -48.3140316 81.89895439 C-48.3477573 78.00405158 -48.35924362 74.10930302 -48.36488724 70.21426773 C-48.37158898 68.35080096 -48.38678297 66.48734395 -48.41077805 64.62401962 C-48.44253653 62.00776305 -48.44245032 59.39325563 -48.43505859 56.77685547 C-48.4596666 55.63249275 -48.4596666 55.63249275 -48.48477173 54.4650116 C-48.41784531 48.6456139 -46.57073481 44.5755653 -42.8515625 40.09765625 C-36.22401745 34.65124582 -27.94090817 35.71846817 -19.8515625 36.09765625 C-19.87250977 35.4020459 -19.89345703 34.70643555 -19.91503906 33.98974609 C-19.9985323 30.81753167 -20.05032779 27.64554894 -20.1015625 24.47265625 C-20.15183594 22.83103516 -20.15183594 22.83103516 -20.203125 21.15625 C-20.28031257 14.78827523 -20.20332426 10.89395282 -15.8515625 6.09765625 C-10.7544857 0.96399756 -7.05786361 -0.04823195 0 0 Z " fill="#CACACA" transform="translate(297.8515625,219.90234375)"/>
<path d="M0 0 C0.9846847 30.36111157 -13.5107438 57.84712715 -33.84960938 79.70507812 C-42.43231292 88.74012943 -51.43871507 95.53912178 -62 102 C-62.91265625 102.59167969 -63.8253125 103.18335938 -64.765625 103.79296875 C-65.58546875 104.31503906 -66.4053125 104.83710938 -67.25 105.375 C-67.93578125 105.81585938 -68.6215625 106.25671875 -69.328125 106.7109375 C-71.9295652 107.9660183 -74.39999737 108.76791194 -77.16699219 109.58056641 C-78.07100769 109.84737213 -78.97502319 110.11417786 -79.90643311 110.3890686 C-80.59731018 110.59067596 -81.28818726 110.79228333 -82 111 C-81.98889694 111.56296783 -81.97779388 112.12593567 -81.96635437 112.70596313 C-81.85552523 118.57839045 -81.78023572 124.45051954 -81.7253418 130.32373047 C-81.70023566 132.51395744 -81.66614363 134.70410094 -81.62280273 136.89404297 C-81.56198093 140.04675922 -81.53375077 143.19836553 -81.51171875 146.3515625 C-81.48591232 147.32678864 -81.4601059 148.30201477 -81.43351746 149.30679321 C-81.4331398 150.22729462 -81.43276215 151.14779602 -81.43237305 152.09619141 C-81.42126999 152.9000528 -81.41016693 153.70391418 -81.39872742 154.53213501 C-82.29289896 158.20217538 -83.99976828 160.77318745 -87 163 C-89.95833369 163.85795403 -92.7930877 163.82139251 -95.85766602 163.77636719 C-96.7395459 163.7868811 -97.62142578 163.79739502 -98.5300293 163.80822754 C-101.43871358 163.83458952 -104.34520061 163.81717193 -107.25390625 163.796875 C-109.27742431 163.80091735 -111.30093954 163.80674095 -113.32444763 163.81427002 C-117.56220278 163.82311104 -121.79919845 163.81027304 -126.03686523 163.78222656 C-131.47044246 163.74801854 -136.90224311 163.76773994 -142.33575535 163.80366135 C-146.51284697 163.8253347 -150.68951674 163.81844641 -154.86662102 163.80289459 C-156.87010852 163.79889093 -158.87363427 163.80380814 -160.8770771 163.81777191 C-163.67632756 163.83300263 -166.47269321 163.80980418 -169.27172852 163.77636719 C-170.10040939 163.78851257 -170.92909027 163.80065796 -171.78288269 163.81317139 C-174.09791565 163.76190186 -174.09791565 163.76190186 -178 163 C-181.13994345 159.57235418 -182.50650155 156.8253868 -182.45410156 152.18798828 C-182.45379944 151.28750763 -182.45349731 150.38702698 -182.45318604 149.45925903 C-182.43254089 148.50590668 -182.41189575 147.55255432 -182.390625 146.5703125 C-182.38496521 145.57998016 -182.37930542 144.58964783 -182.37347412 143.56930542 C-182.35116674 140.42070225 -182.30098002 137.27325651 -182.25 134.125 C-182.22992775 131.98439149 -182.21167825 129.84376506 -182.1953125 127.703125 C-182.15132069 122.4683582 -182.08446528 117.23426181 -182 112 C-178.49270824 112.66773515 -175.06075612 113.48344831 -171.61328125 114.41015625 C-170.59169922 114.67763672 -169.57011719 114.94511719 -168.51757812 115.22070312 C-166.39815365 115.77735879 -164.28089487 116.3423333 -162.16601562 116.91601562 C-149.40152447 120.22117854 -139.5080166 118.5450061 -127 115 C-126.33129883 114.81808105 -125.66259766 114.63616211 -124.97363281 114.44873047 C-105.87274177 109.22283876 -89.13303419 99.7461979 -74 87 C-73.23816406 86.37351562 -72.47632813 85.74703125 -71.69140625 85.1015625 C-49.00985321 65.83993167 -35.07046285 36.20979786 -32 7 C-30.45892578 6.94392578 -30.45892578 6.94392578 -28.88671875 6.88671875 C-19.33992322 6.46411024 -7.78800602 0 0 0 Z " fill="#FAA65D" transform="translate(582,385)"/>
<path d="M0 0 C4.71388705 -0.09940876 9.42715442 -0.17172034 14.1418457 -0.21972656 C15.74319091 -0.23975347 17.3444638 -0.26698354 18.94555664 -0.30175781 C21.25685537 -0.35067419 23.56718154 -0.37305711 25.87890625 -0.390625 C26.9402755 -0.42159271 26.9402755 -0.42159271 28.02308655 -0.45318604 C34.13314083 -0.45590003 38.29049849 1.46060172 42.7421875 5.6328125 C46.05659507 9.9986873 47.12632069 11.99906934 47.09765625 17.4453125 C47.09443359 18.52167969 47.09121094 19.59804687 47.08789062 20.70703125 C47.07532227 22.39892578 47.07532227 22.39892578 47.0625 24.125 C47.05798828 25.26066406 47.05347656 26.39632812 47.04882812 27.56640625 C47.03701615 30.37765638 47.02054507 33.1888023 47 36 C47.99 35.94199219 48.98 35.88398438 50 35.82421875 C62.90522871 35.29324023 62.90522871 35.29324023 68.484375 39.5625 C72.31549256 43.19613728 74.91774413 46.08456816 75.14717102 51.42706299 C75.16232798 52.92952188 75.17181027 54.43204394 75.17700195 55.93457031 C75.18357315 56.75427811 75.19014435 57.5739859 75.19691467 58.41853333 C75.21666722 61.1383981 75.22831532 63.85820758 75.23828125 66.578125 C75.24235678 67.50656975 75.2464323 68.4350145 75.25063133 69.39159393 C75.27150158 74.30679605 75.2857985 79.22197017 75.29516602 84.13720703 C75.30622541 89.21265761 75.34061714 94.28766916 75.38033772 99.36296463 C75.40649459 103.26636567 75.41485708 107.16966203 75.41844749 111.07314301 C75.42331678 112.94382437 75.43494051 114.81450096 75.45348549 116.68509674 C75.47785471 119.30636759 75.47691601 121.92650192 75.4699707 124.54785156 C75.48278076 125.31795059 75.49559082 126.08804962 75.50878906 126.88148499 C75.45868073 132.08123268 74.26241235 134.98552412 71 139 C65.515762 144.06237354 61.09441382 145.26344699 53.6875 145.125 C52.43324219 145.10695313 51.17898438 145.08890625 49.88671875 145.0703125 C48.93410156 145.04710937 47.98148438 145.02390625 47 145 C47.02094727 145.66008057 47.04189453 146.32016113 47.06347656 147.00024414 C47.14715393 150.02083818 47.19882229 153.04118759 47.25 156.0625 C47.28351562 157.10083984 47.31703125 158.13917969 47.3515625 159.20898438 C47.43467762 165.75429974 46.91526116 169.6889876 43 175 C37.95426702 179.78697744 33.49648399 181.26063018 26.60546875 181.1953125 C25.40341797 181.18886719 24.20136719 181.18242187 22.96289062 181.17578125 C21.09407227 181.15064453 21.09407227 181.15064453 19.1875 181.125 C17.92228516 181.11597656 16.65707031 181.10695313 15.35351562 181.09765625 C12.23548436 181.07412394 9.11783903 181.04124545 6 181 C5.88007614 166.72906091 5.88007614 166.72906091 8.37890625 162.87109375 C9.54506024 161.87190588 10.73309159 160.89771299 11.94110107 159.94955444 C18.81805981 153.43781883 21.31417587 144.98131152 21.79681015 135.80106163 C21.93442495 130.4145958 21.91221119 125.03594477 21.859375 119.6484375 C21.85901053 117.29822715 21.86102656 114.94801534 21.86529541 112.59780884 C21.86658394 107.69407795 21.84380032 102.79125007 21.80273438 97.88769531 C21.75160781 91.62917275 21.75388152 85.37206553 21.77334213 79.11340904 C21.78367853 74.26777018 21.76916486 69.42245186 21.74695587 64.57686234 C21.73864291 62.270193 21.7370696 59.96348843 21.74260712 57.65681076 C21.98325327 37.40560758 21.98325327 37.40560758 11.9375 20.4375 C9.9873449 18.64181264 8.13371775 17.08484503 5.89453125 15.6640625 C3.30667446 13.39101715 2.75069326 11.2056371 1.75 7.9375 C1.41484375 6.87402344 1.0796875 5.81054688 0.734375 4.71484375 C0 2 0 2 0 0 Z " fill="#C9C9C9" transform="translate(575,220)"/>
<path d="M0 0 C13.91443575 -0.69572179 24.33767725 -0.10849493 35.4375 9.3125 C42.24689491 15.89236475 46.94740232 22.99153387 47.28761292 32.68945312 C47.31460602 34.55326604 47.33071987 36.41725638 47.33813477 38.28125 C47.34967087 39.30327011 47.36120697 40.32529022 47.37309265 41.37828064 C47.40733764 44.75220294 47.42589288 48.12594224 47.44140625 51.5 C47.44830915 52.65750763 47.45521206 53.81501526 47.46232414 55.00759888 C47.49813836 61.13804251 47.52168583 67.26839445 47.53540039 73.39892578 C47.55191143 79.70239661 47.61028985 86.00473839 47.67854404 92.30783081 C47.72352709 97.1792041 47.73690979 102.05031189 47.74201775 106.921875 C47.74986935 109.24372299 47.76938483 111.56556431 47.80124092 113.88720703 C47.99938981 129.35289627 47.38452768 141.25671716 36.4375 153.125 C35.31532377 154.11092967 34.1712366 155.07288532 33 156 C32.0925 156.7425 31.185 157.485 30.25 158.25 C21.41771902 163.00584361 12.2888874 163.43910285 2.44140625 163.36328125 C1.17586411 163.36377975 -0.08967804 163.36427826 -1.39356995 163.36479187 C-4.05542384 163.36246356 -6.71646262 163.35442736 -9.37817383 163.33618164 C-12.75438796 163.31352044 -16.13015373 163.31295425 -19.506423 163.31969929 C-22.77384583 163.32388495 -26.0411923 163.31183631 -29.30859375 163.30078125 C-30.5027037 163.30169266 -31.69681366 163.30260406 -32.92710876 163.30354309 C-42.32178951 163.22532054 -52.0476009 162.73973003 -60.75 158.875 C-61.73355469 158.441875 -62.71710938 158.00875 -63.73046875 157.5625 C-66.84433238 156.07439313 -69.91384214 154.5206867 -72.98217773 152.94189453 C-86.07681638 146.22630119 -98.556597 142.09464468 -113.25 146.6875 C-117.69004123 148.33649169 -121.71418192 150.37558358 -125.7890625 152.7734375 C-129.68902101 154.93701872 -133.82146895 156.46367797 -138 158 C-139.11181641 158.41765625 -139.11181641 158.41765625 -140.24609375 158.84375 C-150.57005534 162.52430672 -160.73077194 163.30904187 -171.62890625 163.30078125 C-172.89919174 163.30506638 -174.16947723 163.3093515 -175.47825623 163.31376648 C-178.14832658 163.31947849 -180.81800626 163.32098211 -183.48803711 163.31567383 C-186.88246459 163.30986947 -190.27634812 163.32686326 -193.67068577 163.3500185 C-196.948421 163.36841677 -200.22612878 163.36456853 -203.50390625 163.36328125 C-204.70833878 163.372491 -205.9127713 163.38170074 -207.15370178 163.39118958 C-220.14276195 163.320527 -228.32011862 160.26097875 -237.71875 151.375 C-244.38353502 144.30216692 -247.43312042 136.43482293 -247.3125 126.8125 C-247.23322348 124.54066155 -247.13779601 122.26904098 -247 120 C-245.18902091 122.71646863 -243.70130206 125.4246929 -242.1875 128.3125 C-237.18646824 137.40528502 -231.35442048 143.3403907 -221.22558594 146.56488037 C-218.37690114 147.12182075 -215.67299909 147.14326678 -212.76953125 147.16113281 C-211.5072168 147.17074036 -210.24490234 147.1803479 -208.94433594 147.19024658 C-207.56705915 147.19509782 -206.18978023 147.19937584 -204.8125 147.203125 C-203.76479431 147.20736607 -203.76479431 147.20736607 -202.69592285 147.21169281 C-198.99275334 147.2266728 -195.28962259 147.23590717 -191.58642578 147.24023438 C-187.79184815 147.24568824 -183.99763495 147.26965349 -180.20317078 147.29820633 C-177.2603051 147.31699909 -174.31752384 147.32204726 -171.37460327 147.32357025 C-169.97779367 147.32656475 -168.58098437 147.33448248 -167.18423462 147.34775543 C-155.92579412 147.44702247 -145.927725 146.0847527 -135.60546875 141.40625 C-134.54779297 140.93316406 -133.49011719 140.46007812 -132.40039062 139.97265625 C-131.34013672 139.48667969 -130.27988281 139.00070312 -129.1875 138.5 C-127.03520338 137.53114528 -124.8828609 136.56239245 -122.73046875 135.59375 C-121.73450684 135.14257812 -120.73854492 134.69140625 -119.71240234 134.2265625 C-108.21693519 129.02825224 -99.0010595 126.9849133 -86.71484375 131.45703125 C-80.69454198 133.88959813 -74.80122926 136.64113461 -68.91674805 139.38232422 C-51.79526723 147.35295755 -36.1106016 147.3336086 -17.4921875 147.45996094 C-14.49681798 147.48229255 -11.50268339 147.52417301 -8.5078125 147.58300781 C-4.86742631 147.65433547 -1.2282071 147.69082147 2.4128418 147.70307922 C3.79075412 147.71342485 5.16863491 147.73571818 6.54614258 147.77067566 C15.85499182 148.03213084 15.85499182 148.03213084 23.78125 143.70507812 C27.44756458 139.98681071 29.24308906 136.70626496 29.27415466 131.44821167 C29.28911736 130.0859269 29.28911736 130.0859269 29.30438232 128.69612122 C29.305047 127.70698227 29.30571167 126.71784332 29.30639648 125.69873047 C29.31472 124.6510701 29.32304352 123.60340973 29.33161926 122.52400208 C29.35574383 119.05502619 29.3644959 115.58623842 29.37109375 112.1171875 C29.38006049 109.70305322 29.38918234 107.28891951 29.39845276 104.87478638 C29.41495359 99.80908864 29.42264448 94.74345707 29.42553711 89.67773438 C29.43091199 83.20141223 29.46855132 76.72571645 29.51428127 70.24957085 C29.54409971 65.25997682 29.55126177 60.27053246 29.55226326 55.28085709 C29.55645851 52.89434068 29.56886468 50.50782354 29.58978081 48.12139511 C29.6167836 44.77301523 29.61184138 41.42607167 29.59936523 38.07763672 C29.61419952 37.10064316 29.62903381 36.1236496 29.64431763 35.11705017 C29.53671846 24.92198739 25.04424338 17.29774813 18.17578125 9.9765625 C12.88947583 5.17428145 6.88437813 2.61123743 0 1 C0 0.67 0 0.34 0 0 Z " fill="#5A5A5A" transform="translate(550,229)"/>
<path d="M0 0 C0 13.53 0 27.06 0 41 C-2.97 41.66 -5.94 42.32 -9 43 C-11.32749205 44.24189613 -11.32749205 44.24189613 -12.9375 45.875 C-13.48277344 46.36742187 -14.02804687 46.85984375 -14.58984375 47.3671875 C-18.06417423 51.39009648 -18.32628258 55.22836972 -18.4140625 60.390625 C-18.43342865 61.09523865 -18.4527948 61.79985229 -18.4727478 62.52581787 C-18.53232735 64.76709039 -18.57884123 67.00841489 -18.625 69.25 C-18.66319979 70.77345938 -18.70225269 72.29689762 -18.7421875 73.8203125 C-18.83801018 77.54668106 -18.92212107 81.27320835 -19 85 C-20.01571831 85.00879936 -20.01571831 85.00879936 -21.05195618 85.01777649 C-28.14208156 85.08204014 -35.2317668 85.16654291 -42.3215332 85.26245117 C-44.96242444 85.29556934 -47.60338424 85.32364144 -50.24438477 85.34643555 C-54.05514559 85.38022271 -57.86528556 85.43255191 -61.67578125 85.48828125 C-62.84393875 85.49467117 -64.01209625 85.5010611 -65.21565247 85.50764465 C-74.49122418 85.67152666 -82.43979335 87.47841753 -91 91 C-88.52085383 68.42206165 -73.60729645 48.58454529 -58 33 C-57.04480469 31.93845703 -57.04480469 31.93845703 -56.0703125 30.85546875 C-44.02205448 17.70948056 -18.56815985 0 0 0 Z " fill="#FACFA2" transform="translate(412,143)"/>
<path d="M0 0 C0 13.2 0 26.4 0 40 C-24.75 40 -49.5 40 -75 40 C-75 26.47 -75 12.94 -75 -1 C-50.28711305 -7.29627693 -24.24659411 -9.69863764 0 0 Z " fill="#5A5959" transform="translate(488,143)"/>
<path d="M0 0 C0 35.97 0 71.94 0 109 C-17.83333333 109 -17.83333333 109 -22.78125 104.3125 C-27.308093 99.18777208 -28.15541871 95.91124408 -28.19287109 89.09716797 C-28.20104858 88.28067276 -28.20922607 87.46417755 -28.21765137 86.62294006 C-28.24252225 83.91269668 -28.25902899 81.20250588 -28.2734375 78.4921875 C-28.27876118 77.56623905 -28.28408485 76.6402906 -28.28956985 75.68628311 C-28.31631352 70.78174924 -28.3356813 65.87724089 -28.35009766 60.97265625 C-28.36671491 55.91523597 -28.41146454 50.85847121 -28.4624691 45.80129814 C-28.4961948 41.90639533 -28.50768112 38.01164677 -28.51332474 34.11661148 C-28.52002648 32.25314471 -28.53522047 30.3896877 -28.55921555 28.52636337 C-28.59097403 25.9101068 -28.59088782 23.29559938 -28.58349609 20.67919922 C-28.59990143 19.91629074 -28.61630676 19.15338226 -28.63320923 18.36735535 C-28.56628281 12.54795765 -26.71917231 8.47790905 -23 4 C-16.33887733 -1.88047335 -8.80766625 0 0 0 Z " fill="#5B5B5B" transform="translate(278,256)"/>
<path d="M0 0 C17.72826087 0 17.72826087 0 23 5 C27.59410691 10.06529736 28.15396499 13.26743948 28.17700195 19.93457031 C28.18357315 20.75427811 28.19014435 21.5739859 28.19691467 22.41853333 C28.21666722 25.1383981 28.22831532 27.85820758 28.23828125 30.578125 C28.24235678 31.50656975 28.2464323 32.4350145 28.25063133 33.39159393 C28.27150158 38.30679605 28.2857985 43.22197017 28.29516602 48.13720703 C28.30622541 53.21265761 28.34061714 58.28766916 28.38033772 63.36296463 C28.40649459 67.26636567 28.41485708 71.16966203 28.41844749 75.07314301 C28.42331678 76.94382437 28.43494051 78.81450096 28.45348549 80.68509674 C28.47785471 83.30636759 28.47691601 85.92650192 28.4699707 88.54785156 C28.48278076 89.31795059 28.49559082 90.08804962 28.50878906 90.88148499 C28.45868073 96.08123268 27.26241235 98.98552412 24 103 C16.32789454 110.0819435 11.12005935 109 0 109 C0 73.03 0 37.06 0 0 Z " fill="#5B5B5B" transform="translate(622,256)"/>
<path d="M0 0 C1.51013672 0.38091797 1.51013672 0.38091797 3.05078125 0.76953125 C34.0230234 8.43230445 63.74371388 9.55476633 94.66992188 0.5793457 C97 0 97 0 100 0 C100.14570522 4.20796686 100.23421087 8.41528166 100.3125 12.625 C100.35439453 13.81480469 100.39628906 15.00460937 100.43945312 16.23046875 C100.45556641 17.38417969 100.47167969 18.53789063 100.48828125 19.7265625 C100.51446533 20.78439941 100.54064941 21.84223633 100.56762695 22.93212891 C99.82916673 26.92330791 98.16460544 29.526412 95 32 C92.0453591 32.8680274 89.20573008 32.82137515 86.14233398 32.77636719 C85.2604541 32.7868811 84.37857422 32.79739502 83.4699707 32.80822754 C80.56128642 32.83458952 77.65479939 32.81717193 74.74609375 32.796875 C72.72257569 32.80091735 70.69906046 32.80674095 68.67555237 32.81427002 C64.43779722 32.82311104 60.20080155 32.81027304 55.96313477 32.78222656 C50.52955754 32.74801854 45.09775689 32.76773994 39.66424465 32.80366135 C35.48715303 32.8253347 31.31048326 32.81844641 27.13337898 32.80289459 C25.12989148 32.79889093 23.12636573 32.80380814 21.1229229 32.81777191 C18.32367244 32.83300263 15.52730679 32.80980418 12.72827148 32.77636719 C11.89959061 32.78851257 11.07090973 32.80065796 10.21711731 32.81317139 C7.90208435 32.76190186 7.90208435 32.76190186 4 32 C0.42646829 27.9442799 -0.49655939 25.07624938 -0.390625 19.7265625 C-0.37773437 18.57285156 -0.36484375 17.41914062 -0.3515625 16.23046875 C-0.31804687 15.04066406 -0.28453125 13.85085938 -0.25 12.625 C-0.23195313 11.41199219 -0.21390625 10.19898438 -0.1953125 8.94921875 C-0.14832216 5.9653321 -0.08263372 2.98307721 0 0 Z " fill="#FBCFA2" transform="translate(400,516)"/>
<path d="M0 0 C8.3840625 -0.0928125 8.3840625 -0.0928125 16.9375 -0.1875 C18.68281006 -0.21481201 20.42812012 -0.24212402 22.22631836 -0.27026367 C39.96533495 -0.43375749 39.96533495 -0.43375749 46.9375 5.5 C51.30440484 10.79321799 51.43178787 14.11463302 51.3125 20.83203125 C50.75002814 26.53408977 47.89219287 29.32174451 43.75 32.875 C42.8425 33.57625 41.935 34.2775 41 35 C42.56230558 40.01480802 45.58722261 43.51839909 48.875 47.5 C49.40480469 48.15097656 49.93460937 48.80195313 50.48046875 49.47265625 C52.76432086 52.27788403 55.05950231 55.07101259 57.3828125 57.84375 C59 60 59 60 59 62 C52.65069687 63.09657474 46.23577456 64.05602879 40 62 C32.6533848 56.47443644 27.2089573 47.5126636 24 39 C21.36 39 18.72 39 16 39 C16 46.59 16 54.18 16 62 C10.72 62 5.44 62 0 62 C0 41.54 0 21.08 0 0 Z " fill="#020202" transform="translate(455,286)"/>
<path d="M0 0 C14.04709435 1.8125283 27.56369699 8.87374487 39 17 C39.91394531 17.61875 40.82789063 18.2375 41.76953125 18.875 C63.4219851 34.1795457 79.03946473 55.09288412 88.5625 79.6875 C88.82643555 80.35894043 89.09037109 81.03038086 89.36230469 81.72216797 C90.67267358 85.28524456 91.12471392 87.39471896 90 91 C89.41299316 90.71995117 88.82598633 90.43990234 88.22119141 90.15136719 C81.50091036 87.17597558 75.67839376 86.35725945 68.375 86.25 C67.37082031 86.22035156 66.36664062 86.19070312 65.33203125 86.16015625 C62.88794463 86.0903252 60.44476321 86.0372071 58 86 C57.74347656 85.18660156 57.48695313 84.37320313 57.22265625 83.53515625 C48.09152729 56.20325845 29.30965262 29.62336153 3.578125 15.58203125 C1.56152344 14.34814453 1.56152344 14.34814453 0 13 C-0.78125 9.66796875 -0.78125 9.66796875 -0.5 6.1875 C-0.4278125 5.02605469 -0.355625 3.86460937 -0.28125 2.66796875 C-0.1884375 1.78753906 -0.095625 0.90710938 0 0 Z " fill="#F9A55D" transform="translate(488,143)"/>
<path d="M0 0 C18.26930577 -0.98310166 34.97690544 3.75139283 52 10 C53.05445313 10.37769531 54.10890625 10.75539063 55.1953125 11.14453125 C75.95578502 19.14890962 94.32026114 33.46375752 110 49 C110.77472656 49.76183594 111.54945313 50.52367187 112.34765625 51.30859375 C127.16251488 66.82252012 147 94.45388999 147 117 C136.44 117 125.88 117 115 117 C113.0509375 113.1328125 113.0509375 113.1328125 111.0625 109.1875 C110.44967163 107.97549927 110.44967163 107.97549927 109.82446289 106.73901367 C109.5021167 106.09681885 109.17977051 105.45462402 108.84765625 104.79296875 C108.51773682 104.1383667 108.18781738 103.48376465 107.84790039 102.80932617 C107 101 107 101 106 98 C107.093125 97.5875 108.18625 97.175 109.3125 96.75 C112.52894447 95.34361942 114.44900185 94.28446667 116 91 C116.54671082 85.25953637 115.22988034 81.67466739 112.1875 76.9375 C111.78515137 76.29192139 111.38280273 75.64634277 110.96826172 74.98120117 C101.06984444 59.4408753 88.71608215 45.10573666 74 34 C73.21351074 33.40106934 73.21351074 33.40106934 72.41113281 32.79003906 C60.44753057 23.73783914 47.85822517 15.99548835 33.671875 10.97265625 C31 10 31 10 29.11328125 8.9921875 C26.01694849 7.53845641 22.75120509 6.8457677 19.4375 6.0625 C18.0088839 5.71579289 16.58049919 5.36813101 15.15234375 5.01953125 C14.45093262 4.8488916 13.74952148 4.67825195 13.02685547 4.50244141 C8.66183407 3.4203872 4.33065316 2.21111487 0 1 C0 0.67 0 0.34 0 0 Z " fill="#5C5C5C" transform="translate(460,103)"/>
<path d="M0 0 C15.87285803 -1.67885998 15.87285803 -1.67885998 20.8359375 2.23828125 C22.83852942 5.07336827 24.45417498 7.89553926 26 11 C26.81337606 12.20125771 27.64222092 13.39253601 28.5 14.5625 C30 17 30 17 30 19 C30.66 19 31.32 19 32 19 C32.2475 18.32582031 32.495 17.65164063 32.75 16.95703125 C35.34451729 10.81937628 38.43713207 3.99350601 44 0 C49.87501102 -1.6879408 56.03586333 -0.81860699 62 0 C57.37722631 7.05697264 52.49746939 13.89172791 47.50390625 20.68945312 C46.95089844 21.44806641 46.39789063 22.20667969 45.828125 22.98828125 C45.3321582 23.66415283 44.83619141 24.34002441 44.32519531 25.03637695 C43.02533503 26.96245954 41.98843168 28.89972924 41 31 C41.76183594 32.07636719 42.52367187 33.15273438 43.30859375 34.26171875 C48.30675605 41.32864609 53.30144202 48.39821383 58.25 55.5 C58.97703125 56.5415625 59.7040625 57.583125 60.453125 58.65625 C62 61 62 61 62 62 C49.10305777 64.04480017 49.10305777 64.04480017 43 62 C38.26420375 58.02064863 35.52727278 52.30876643 32.93530273 46.78759766 C32.01922338 44.82007782 32.01922338 44.82007782 30 43 C29.64172119 43.54003662 29.28344238 44.08007324 28.91430664 44.63647461 C27.29823325 47.07094583 25.68039083 49.50423627 24.0625 51.9375 C23.49853516 52.78763672 22.93457031 53.63777344 22.35351562 54.51367188 C21.81533203 55.32255859 21.27714844 56.13144531 20.72265625 56.96484375 C20.22515869 57.7137085 19.72766113 58.46257324 19.21508789 59.23413086 C18 61 18 61 17 62 C14.13732433 62.07325168 11.299281 62.09238205 8.4375 62.0625 C7.63119141 62.05798828 6.82488281 62.05347656 5.99414062 62.04882812 C3.99606244 62.03700518 1.99802217 62.01906914 0 62 C1.56240988 57.25858274 4.21376035 53.7425304 7.1875 49.8125 C8.17473143 48.47805117 9.16171009 47.14341531 10.1484375 45.80859375 C11.86041342 43.51016044 13.59315598 41.23638558 15.3515625 38.97265625 C15.99867188 38.11542969 16.64578125 37.25820313 17.3125 36.375 C18.17294922 35.27285156 18.17294922 35.27285156 19.05078125 34.1484375 C20.28751235 31.99278148 20.28751235 31.99278148 19.23828125 29.62695312 C18.0559651 27.11872721 16.77590374 25.05023505 15.13671875 22.8203125 C14.57919922 22.05589844 14.02167969 21.29148437 13.44726562 20.50390625 C12.86654297 19.71886719 12.28582031 18.93382812 11.6875 18.125 C10.54545202 16.56519268 9.40352329 15.00529804 8.26171875 13.4453125 C6.66935067 11.27258355 5.07550355 9.10145714 3.46728516 6.94042969 C0 2.2204243 0 2.2204243 0 0 Z " fill="#020202" transform="translate(384,286)"/>
<path d="M0 0 C1.24245483 -0.00241196 2.48490967 -0.00482391 3.76501465 -0.00730896 C7.0576605 -0.00608113 10.34910395 0.01892374 13.64154053 0.0524292 C15.65469605 0.06639547 17.66700699 0.06282547 19.68017578 0.05249023 C23.55800761 0.03369814 27.43468861 0.04315369 31.3125 0.0625 C32.50951538 0.05754013 33.70653076 0.05258026 34.93981934 0.04747009 C41.33007515 0.13771578 45.28966031 0.35037969 50.15625 4.62890625 C51.331875 5.40234375 51.331875 5.40234375 52.53125 6.19140625 C55.31497451 10.36699302 55.06350104 14.79932928 54.15625 19.62890625 C51.55172023 24.50915471 48.33287019 26.85870501 43.15625 28.62890625 C40.50733948 28.89633179 40.50733948 28.89633179 37.63500977 28.91943359 C36.55361221 28.9321933 35.47221466 28.944953 34.35804749 28.95809937 C33.19961838 28.96032501 32.04118927 28.96255066 30.84765625 28.96484375 C29.64817856 28.97150055 28.44870087 28.97815735 27.21287537 28.98501587 C24.67863497 28.99513161 22.14436799 28.99983322 19.61010742 28.99951172 C15.73636994 29.00388635 11.86377049 29.04022395 7.99023438 29.078125 C5.52604556 29.08399305 3.06185134 29.08796252 0.59765625 29.08984375 C-1.13695107 29.1114003 -1.13695107 29.1114003 -2.90660095 29.13339233 C-11.00270517 29.08745859 -14.29289 27.8994352 -20.21875 22.44140625 C-22.51596728 18.46545326 -22.50717714 15.11727752 -21.84375 10.62890625 C-17.60135577 0.25860925 -9.96825014 -0.1104089 0 0 Z " fill="#62D5F4" transform="translate(433.84375,251.37109375)"/>
<path d="M0 0 C26.30449681 14.61360934 44.25241347 36.68533962 56 64 C56.4021875 64.92554688 56.804375 65.85109375 57.21875 66.8046875 C58 69 58 69 58 72 C45.13 72 32.26 72 19 72 C18.75 56.375 18.75 56.375 18.70214844 51.47802734 C18.6715332 50.1936377 18.64091797 48.90924805 18.609375 47.5859375 C18.58842773 46.2767334 18.56748047 44.9675293 18.54589844 43.61865234 C17.81839405 38.79617024 15.77420195 35.7411166 12.32421875 32.35546875 C11.51404297 31.77732422 11.51404297 31.77732422 10.6875 31.1875 C10.15511719 30.78917969 9.62273437 30.39085937 9.07421875 29.98046875 C6.31306275 28.55043471 6.31306275 28.55043471 0 28 C0 18.76 0 9.52 0 0 Z " fill="#FBCFA2" transform="translate(488,156)"/>
<path d="M0 0 C37.62 0 75.24 0 114 0 C114 4.29 114 8.58 114 13 C126.87 13 139.74 13 153 13 C153 13.33 153 13.66 153 14 C84.03 14 15.06 14 -56 14 C-56 13.67 -56 13.34 -56 13 C-37.52 13 -19.04 13 0 13 C0 8.71 0 4.42 0 0 Z " fill="#AEACAA" transform="translate(393,215)"/>
<path d="M0 0 C11.22 0 22.44 0 34 0 C31.96420914 6.10737259 29.4760523 12.05747449 27 18 C16.11 18 5.22 18 -6 18 C-3.75 7.875 -3.75 7.875 -2 3 C-1.34 3 -0.68 3 0 3 C0 2.01 0 1.02 0 0 Z " fill="#5C5C5C" transform="translate(299,202)"/>
<path d="M0 0 C13.20868189 -0.4937825 13.20868189 -0.4937825 16.9296875 1.828125 C19 4 19 4 19.4375 7 C19.01975234 9.86455539 18.61408842 11.62134338 17 14 C13.2632157 16.49118953 11.25548181 16.2065226 6.8125 16.125 C4.564375 16.08375 2.31625 16.0425 0 16 C0 10.72 0 5.44 0 0 Z " fill="#7E7E7E" transform="translate(471,298)"/>
<path d="M0 0 C6.93 0 13.86 0 21 0 C17 3 17 3 14.98535156 3.15698242 C14.2940918 3.05748291 13.60283203 2.9579834 12.890625 2.85546875 C12.13652344 2.75556641 11.38242187 2.65566406 10.60546875 2.55273438 C9.43951172 2.37194336 9.43951172 2.37194336 8.25 2.1875 C7.45722656 2.07857422 6.66445313 1.96964844 5.84765625 1.85742188 C3.89623737 1.58704456 1.9477628 1.29556663 0 1 C0 0.67 0 0.34 0 0 Z " fill="#707070" transform="translate(445,102)"/>
</svg>
