<?xml version="1.0" encoding="UTF-8" standalone="no"?>
<svg
   version="1.1"
   width="900"
   height="650"
   id="svg78"
   sodipodi:docname="ObjectManipulation.svg"
   xml:space="preserve"
   inkscape:version="1.3.2 (091e20e, 2023-11-25)"
   inkscape:export-filename="ObjectManipulation.png"
   inkscape:export-xdpi="96"
   inkscape:export-ydpi="96"
   xmlns:inkscape="http://www.inkscape.org/namespaces/inkscape"
   xmlns:sodipodi="http://sodipodi.sourceforge.net/DTD/sodipodi-0.dtd"
   xmlns="http://www.w3.org/2000/svg"
   xmlns:svg="http://www.w3.org/2000/svg"><defs
     id="defs78"><filter
       style="color-interpolation-filters:sRGB;"
       inkscape:label="Greyscale"
       id="filter1204"
       x="0"
       y="0"
       width="1"
       height="1"><feColorMatrix
         values="0.21 7.46914 7.16049 -0.51 0 0.21 7.46914 7.16049 -0.51 0 0.21 7.46914 7.16049 -0.51 0 0 0 0 1 0 "
         id="feColorMatrix1204" /></filter><filter
       style="color-interpolation-filters:sRGB;"
       inkscape:label="Greyscale"
       id="filter1205"
       x="0"
       y="0"
       width="1"
       height="1"><feColorMatrix
         values="0.21 7.46914 7.16049 -0.51 0 0.21 7.46914 7.16049 -0.51 0 0.21 7.46914 7.16049 -0.51 0 0 0 0 1 0 "
         id="feColorMatrix1205" /></filter><filter
       style="color-interpolation-filters:sRGB;"
       inkscape:label="Greyscale"
       id="filter1206"
       x="0"
       y="0"
       width="1"
       height="1"><feColorMatrix
         values="0.21 7.46914 7.16049 -0.51 0 0.21 7.46914 7.16049 -0.51 0 0.21 7.46914 7.16049 -0.51 0 0 0 0 1 0 "
         id="feColorMatrix1206" /></filter><filter
       style="color-interpolation-filters:sRGB;"
       inkscape:label="Greyscale"
       id="filter1207"
       x="0"
       y="0"
       width="1"
       height="1"><feColorMatrix
         values="0.21 7.46914 7.16049 -0.51 0 0.21 7.46914 7.16049 -0.51 0 0.21 7.46914 7.16049 -0.51 0 0 0 0 1 0 "
         id="feColorMatrix1207" /></filter><filter
       style="color-interpolation-filters:sRGB;"
       inkscape:label="Greyscale"
       id="filter1208"
       x="0"
       y="0"
       width="1"
       height="1"><feColorMatrix
         values="0.21 7.46914 7.16049 -0.51 0 0.21 7.46914 7.16049 -0.51 0 0.21 7.46914 7.16049 -0.51 0 0 0 0 1 0 "
         id="feColorMatrix1208" /></filter><filter
       style="color-interpolation-filters:sRGB;"
       inkscape:label="Greyscale"
       id="filter1209"
       x="0"
       y="0"
       width="1"
       height="1"><feColorMatrix
         values="0.21 7.46914 7.16049 -0.51 0 0.21 7.46914 7.16049 -0.51 0 0.21 7.46914 7.16049 -0.51 0 0 0 0 1 0 "
         id="feColorMatrix1209" /></filter><filter
       style="color-interpolation-filters:sRGB;"
       inkscape:label="Greyscale"
       id="filter1210"
       x="0"
       y="0"
       width="1"
       height="1"><feColorMatrix
         values="0.21 7.46914 7.16049 -0.51 0 0.21 7.46914 7.16049 -0.51 0 0.21 7.46914 7.16049 -0.51 0 0 0 0 1 0 "
         id="feColorMatrix1210" /></filter><filter
       style="color-interpolation-filters:sRGB;"
       inkscape:label="Greyscale"
       id="filter1211"
       x="0"
       y="0"
       width="1"
       height="1"><feColorMatrix
         values="0.21 7.46914 7.16049 -0.51 0 0.21 7.46914 7.16049 -0.51 0 0.21 7.46914 7.16049 -0.51 0 0 0 0 1 0 "
         id="feColorMatrix1211" /></filter><filter
       style="color-interpolation-filters:sRGB;"
       inkscape:label="Greyscale"
       id="filter1212"
       x="0"
       y="0"
       width="1"
       height="1"><feColorMatrix
         values="0.21 7.46914 7.16049 -0.51 0 0.21 7.46914 7.16049 -0.51 0 0.21 7.46914 7.16049 -0.51 0 0 0 0 1 0 "
         id="feColorMatrix1212" /></filter><filter
       style="color-interpolation-filters:sRGB;"
       inkscape:label="Greyscale"
       id="filter1213"
       x="0"
       y="0"
       width="1"
       height="1"><feColorMatrix
         values="0.21 7.46914 7.16049 -0.51 0 0.21 7.46914 7.16049 -0.51 0 0.21 7.46914 7.16049 -0.51 0 0 0 0 1 0 "
         id="feColorMatrix1213" /></filter><filter
       style="color-interpolation-filters:sRGB;"
       inkscape:label="Greyscale"
       id="filter1214"
       x="0"
       y="0"
       width="1"
       height="1"><feColorMatrix
         values="0.21 7.46914 7.16049 -0.51 0 0.21 7.46914 7.16049 -0.51 0 0.21 7.46914 7.16049 -0.51 0 0 0 0 1 0 "
         id="feColorMatrix1214" /></filter><filter
       style="color-interpolation-filters:sRGB;"
       inkscape:label="Greyscale"
       id="filter1215"
       x="0"
       y="0"
       width="1"
       height="1"><feColorMatrix
         values="0.21 7.46914 7.16049 -0.51 0 0.21 7.46914 7.16049 -0.51 0 0.21 7.46914 7.16049 -0.51 0 0 0 0 1 0 "
         id="feColorMatrix1215" /></filter><filter
       style="color-interpolation-filters:sRGB;"
       inkscape:label="Greyscale"
       id="filter1216"
       x="0"
       y="0"
       width="1"
       height="1"><feColorMatrix
         values="0.21 7.46914 7.16049 -0.51 0 0.21 7.46914 7.16049 -0.51 0 0.21 7.46914 7.16049 -0.51 0 0 0 0 1 0 "
         id="feColorMatrix1216" /></filter><filter
       style="color-interpolation-filters:sRGB;"
       inkscape:label="Greyscale"
       id="filter1217"
       x="0"
       y="0"
       width="1"
       height="1"><feColorMatrix
         values="0.21 7.46914 7.16049 -0.51 0 0.21 7.46914 7.16049 -0.51 0 0.21 7.46914 7.16049 -0.51 0 0 0 0 1 0 "
         id="feColorMatrix1217" /></filter><filter
       style="color-interpolation-filters:sRGB;"
       inkscape:label="Greyscale"
       id="filter1218"
       x="0"
       y="0"
       width="1"
       height="1"><feColorMatrix
         values="0.21 7.46914 7.16049 -0.51 0 0.21 7.46914 7.16049 -0.51 0 0.21 7.46914 7.16049 -0.51 0 0 0 0 1 0 "
         id="feColorMatrix1218" /></filter><filter
       style="color-interpolation-filters:sRGB;"
       inkscape:label="Greyscale"
       id="filter1219"
       x="0"
       y="0"
       width="1"
       height="1"><feColorMatrix
         values="0.21 7.46914 7.16049 -0.51 0 0.21 7.46914 7.16049 -0.51 0 0.21 7.46914 7.16049 -0.51 0 0 0 0 1 0 "
         id="feColorMatrix1219" /></filter><filter
       style="color-interpolation-filters:sRGB;"
       inkscape:label="Greyscale"
       id="filter1220"
       x="0"
       y="0"
       width="1"
       height="1"><feColorMatrix
         values="0.21 7.46914 7.16049 -0.51 0 0.21 7.46914 7.16049 -0.51 0 0.21 7.46914 7.16049 -0.51 0 0 0 0 1 0 "
         id="feColorMatrix1220" /></filter><filter
       style="color-interpolation-filters:sRGB;"
       inkscape:label="Greyscale"
       id="filter1221"
       x="0"
       y="0"
       width="1"
       height="1"><feColorMatrix
         values="0.21 7.46914 7.16049 -0.51 0 0.21 7.46914 7.16049 -0.51 0 0.21 7.46914 7.16049 -0.51 0 0 0 0 1 0 "
         id="feColorMatrix1221" /></filter><filter
       style="color-interpolation-filters:sRGB;"
       inkscape:label="Greyscale"
       id="filter1222"
       x="0"
       y="0"
       width="1"
       height="1"><feColorMatrix
         values="0.21 7.46914 7.16049 -0.51 0 0.21 7.46914 7.16049 -0.51 0 0.21 7.46914 7.16049 -0.51 0 0 0 0 1 0 "
         id="feColorMatrix1222" /></filter><filter
       style="color-interpolation-filters:sRGB;"
       inkscape:label="Greyscale"
       id="filter1223"
       x="0"
       y="0"
       width="1"
       height="1"><feColorMatrix
         values="0.21 7.46914 7.16049 -0.51 0 0.21 7.46914 7.16049 -0.51 0 0.21 7.46914 7.16049 -0.51 0 0 0 0 1 0 "
         id="feColorMatrix1223" /></filter><filter
       style="color-interpolation-filters:sRGB;"
       inkscape:label="Greyscale"
       id="filter1224"
       x="0"
       y="0"
       width="1"
       height="1"><feColorMatrix
         values="0.21 7.46914 7.16049 -0.51 0 0.21 7.46914 7.16049 -0.51 0 0.21 7.46914 7.16049 -0.51 0 0 0 0 1 0 "
         id="feColorMatrix1224" /></filter><filter
       style="color-interpolation-filters:sRGB;"
       inkscape:label="Greyscale"
       id="filter1225"
       x="0"
       y="0"
       width="1"
       height="1"><feColorMatrix
         values="0.21 7.46914 7.16049 -0.51 0 0.21 7.46914 7.16049 -0.51 0 0.21 7.46914 7.16049 -0.51 0 0 0 0 1 0 "
         id="feColorMatrix1225" /></filter><filter
       style="color-interpolation-filters:sRGB;"
       inkscape:label="Greyscale"
       id="filter1226"
       x="0"
       y="0"
       width="1"
       height="1"><feColorMatrix
         values="0.21 7.46914 7.16049 -0.51 0 0.21 7.46914 7.16049 -0.51 0 0.21 7.46914 7.16049 -0.51 0 0 0 0 1 0 "
         id="feColorMatrix1226" /></filter><filter
       style="color-interpolation-filters:sRGB;"
       inkscape:label="Greyscale"
       id="filter1227"
       x="0"
       y="0"
       width="1"
       height="1"><feColorMatrix
         values="0.21 7.46914 7.16049 -0.51 0 0.21 7.46914 7.16049 -0.51 0 0.21 7.46914 7.16049 -0.51 0 0 0 0 1 0 "
         id="feColorMatrix1227" /></filter><filter
       style="color-interpolation-filters:sRGB;"
       inkscape:label="Greyscale"
       id="filter1228"
       x="0"
       y="0"
       width="1"
       height="1"><feColorMatrix
         values="0.21 7.46914 7.16049 -0.51 0 0.21 7.46914 7.16049 -0.51 0 0.21 7.46914 7.16049 -0.51 0 0 0 0 1 0 "
         id="feColorMatrix1228" /></filter><filter
       style="color-interpolation-filters:sRGB;"
       inkscape:label="Greyscale"
       id="filter1229"
       x="0"
       y="0"
       width="1"
       height="1"><feColorMatrix
         values="0.21 7.46914 7.16049 -0.51 0 0.21 7.46914 7.16049 -0.51 0 0.21 7.46914 7.16049 -0.51 0 0 0 0 1 0 "
         id="feColorMatrix1229" /></filter><filter
       style="color-interpolation-filters:sRGB;"
       inkscape:label="Greyscale"
       id="filter1230"
       x="0"
       y="0"
       width="1"
       height="1"><feColorMatrix
         values="0.21 7.46914 7.16049 -0.51 0 0.21 7.46914 7.16049 -0.51 0 0.21 7.46914 7.16049 -0.51 0 0 0 0 1 0 "
         id="feColorMatrix1230" /></filter><filter
       style="color-interpolation-filters:sRGB;"
       inkscape:label="Greyscale"
       id="filter1231"
       x="0"
       y="0"
       width="1"
       height="1"><feColorMatrix
         values="0.21 7.46914 7.16049 -0.51 0 0.21 7.46914 7.16049 -0.51 0 0.21 7.46914 7.16049 -0.51 0 0 0 0 1 0 "
         id="feColorMatrix1231" /></filter><filter
       style="color-interpolation-filters:sRGB;"
       inkscape:label="Greyscale"
       id="filter1232"
       x="0"
       y="0"
       width="1"
       height="1"><feColorMatrix
         values="0.21 7.46914 7.16049 -0.51 0 0.21 7.46914 7.16049 -0.51 0 0.21 7.46914 7.16049 -0.51 0 0 0 0 1 0 "
         id="feColorMatrix1232" /></filter><filter
       style="color-interpolation-filters:sRGB;"
       inkscape:label="Greyscale"
       id="filter1233"
       x="0"
       y="0"
       width="1"
       height="1"><feColorMatrix
         values="0.21 7.46914 7.16049 -0.51 0 0.21 7.46914 7.16049 -0.51 0 0.21 7.46914 7.16049 -0.51 0 0 0 0 1 0 "
         id="feColorMatrix1233" /></filter><filter
       style="color-interpolation-filters:sRGB;"
       inkscape:label="Greyscale"
       id="filter1234"
       x="0"
       y="0"
       width="1"
       height="1"><feColorMatrix
         values="0.21 7.46914 7.16049 -0.51 0 0.21 7.46914 7.16049 -0.51 0 0.21 7.46914 7.16049 -0.51 0 0 0 0 1 0 "
         id="feColorMatrix1234" /></filter><filter
       style="color-interpolation-filters:sRGB;"
       inkscape:label="Greyscale"
       id="filter1235"
       x="0"
       y="0"
       width="1"
       height="1"><feColorMatrix
         values="0.21 7.46914 7.16049 -0.51 0 0.21 7.46914 7.16049 -0.51 0 0.21 7.46914 7.16049 -0.51 0 0 0 0 1 0 "
         id="feColorMatrix1235" /></filter><filter
       style="color-interpolation-filters:sRGB;"
       inkscape:label="Greyscale"
       id="filter1236"
       x="0"
       y="0"
       width="1"
       height="1"><feColorMatrix
         values="0.21 7.46914 7.16049 -0.51 0 0.21 7.46914 7.16049 -0.51 0 0.21 7.46914 7.16049 -0.51 0 0 0 0 1 0 "
         id="feColorMatrix1236" /></filter><filter
       style="color-interpolation-filters:sRGB;"
       inkscape:label="Greyscale"
       id="filter1237"
       x="0"
       y="0"
       width="1"
       height="1"><feColorMatrix
         values="0.21 7.46914 7.16049 -0.51 0 0.21 7.46914 7.16049 -0.51 0 0.21 7.46914 7.16049 -0.51 0 0 0 0 1 0 "
         id="feColorMatrix1237" /></filter><filter
       style="color-interpolation-filters:sRGB;"
       inkscape:label="Greyscale"
       id="filter1238"
       x="0"
       y="0"
       width="1"
       height="1"><feColorMatrix
         values="0.21 7.46914 7.16049 -0.51 0 0.21 7.46914 7.16049 -0.51 0 0.21 7.46914 7.16049 -0.51 0 0 0 0 1 0 "
         id="feColorMatrix1238" /></filter><filter
       style="color-interpolation-filters:sRGB;"
       inkscape:label="Greyscale"
       id="filter1239"
       x="0"
       y="0"
       width="1"
       height="1"><feColorMatrix
         values="0.21 7.46914 7.16049 -0.51 0 0.21 7.46914 7.16049 -0.51 0 0.21 7.46914 7.16049 -0.51 0 0 0 0 1 0 "
         id="feColorMatrix1239" /></filter><filter
       style="color-interpolation-filters:sRGB;"
       inkscape:label="Greyscale"
       id="filter1240"
       x="0"
       y="0"
       width="1"
       height="1"><feColorMatrix
         values="0.21 7.46914 7.16049 -0.51 0 0.21 7.46914 7.16049 -0.51 0 0.21 7.46914 7.16049 -0.51 0 0 0 0 1 0 "
         id="feColorMatrix1240" /></filter><filter
       style="color-interpolation-filters:sRGB;"
       inkscape:label="Greyscale"
       id="filter1241"
       x="0"
       y="0"
       width="1"
       height="1"><feColorMatrix
         values="0.21 7.46914 7.16049 -0.51 0 0.21 7.46914 7.16049 -0.51 0 0.21 7.46914 7.16049 -0.51 0 0 0 0 1 0 "
         id="feColorMatrix1241" /></filter><filter
       style="color-interpolation-filters:sRGB;"
       inkscape:label="Greyscale"
       id="filter1242"
       x="0"
       y="0"
       width="1"
       height="1"><feColorMatrix
         values="0.21 7.46914 7.16049 -0.51 0 0.21 7.46914 7.16049 -0.51 0 0.21 7.46914 7.16049 -0.51 0 0 0 0 1 0 "
         id="feColorMatrix1242" /></filter><filter
       style="color-interpolation-filters:sRGB;"
       inkscape:label="Greyscale"
       id="filter1243"
       x="0"
       y="0"
       width="1"
       height="1"><feColorMatrix
         values="0.21 7.46914 7.16049 -0.51 0 0.21 7.46914 7.16049 -0.51 0 0.21 7.46914 7.16049 -0.51 0 0 0 0 1 0 "
         id="feColorMatrix1243" /></filter><filter
       style="color-interpolation-filters:sRGB;"
       inkscape:label="Greyscale"
       id="filter1244"
       x="0"
       y="0"
       width="1"
       height="1"><feColorMatrix
         values="0.21 7.46914 7.16049 -0.51 0 0.21 7.46914 7.16049 -0.51 0 0.21 7.46914 7.16049 -0.51 0 0 0 0 1 0 "
         id="feColorMatrix1244" /></filter><filter
       style="color-interpolation-filters:sRGB;"
       inkscape:label="Greyscale"
       id="filter1245"
       x="0"
       y="0"
       width="1"
       height="1"><feColorMatrix
         values="0.21 7.46914 7.16049 -0.51 0 0.21 7.46914 7.16049 -0.51 0 0.21 7.46914 7.16049 -0.51 0 0 0 0 1 0 "
         id="feColorMatrix1245" /></filter><filter
       style="color-interpolation-filters:sRGB;"
       inkscape:label="Greyscale"
       id="filter309"
       x="0"
       y="0"
       width="1"
       height="1"><feColorMatrix
         values="0.21 7.46914 7.16049 -0.06 0 0.21 7.46914 7.16049 -0.06 0 0.21 7.46914 7.16049 -0.06 0 0 0 0 1 0 "
         id="feColorMatrix309" /></filter><filter
       style="color-interpolation-filters:sRGB;"
       inkscape:label="Greyscale"
       id="filter310"
       x="0"
       y="0"
       width="1"
       height="1"><feColorMatrix
         values="0.21 7.46914 7.16049 -0.06 0 0.21 7.46914 7.16049 -0.06 0 0.21 7.46914 7.16049 -0.06 0 0 0 0 1 0 "
         id="feColorMatrix310" /></filter><filter
       style="color-interpolation-filters:sRGB;"
       inkscape:label="Greyscale"
       id="filter311"
       x="0"
       y="0"
       width="1"
       height="1"><feColorMatrix
         values="0.21 7.46914 7.16049 -0.06 0 0.21 7.46914 7.16049 -0.06 0 0.21 7.46914 7.16049 -0.06 0 0 0 0 1 0 "
         id="feColorMatrix311" /></filter><filter
       style="color-interpolation-filters:sRGB;"
       inkscape:label="Greyscale"
       id="filter312"
       x="0"
       y="0"
       width="1"
       height="1"><feColorMatrix
         values="0.21 7.46914 7.16049 -0.06 0 0.21 7.46914 7.16049 -0.06 0 0.21 7.46914 7.16049 -0.06 0 0 0 0 1 0 "
         id="feColorMatrix312" /></filter><filter
       style="color-interpolation-filters:sRGB;"
       inkscape:label="Greyscale"
       id="filter313"
       x="0"
       y="0"
       width="1"
       height="1"><feColorMatrix
         values="0.21 7.46914 7.16049 -0.06 0 0.21 7.46914 7.16049 -0.06 0 0.21 7.46914 7.16049 -0.06 0 0 0 0 1 0 "
         id="feColorMatrix313" /></filter><filter
       style="color-interpolation-filters:sRGB;"
       inkscape:label="Greyscale"
       id="filter314"
       x="0"
       y="0"
       width="1"
       height="1"><feColorMatrix
         values="0.21 7.46914 7.16049 -0.06 0 0.21 7.46914 7.16049 -0.06 0 0.21 7.46914 7.16049 -0.06 0 0 0 0 1 0 "
         id="feColorMatrix314" /></filter><filter
       style="color-interpolation-filters:sRGB;"
       inkscape:label="Greyscale"
       id="filter315"
       x="0"
       y="0"
       width="1"
       height="1"><feColorMatrix
         values="0.21 7.46914 7.16049 -0.06 0 0.21 7.46914 7.16049 -0.06 0 0.21 7.46914 7.16049 -0.06 0 0 0 0 1 0 "
         id="feColorMatrix315" /></filter><filter
       style="color-interpolation-filters:sRGB;"
       inkscape:label="Greyscale"
       id="filter316"
       x="0"
       y="0"
       width="1"
       height="1"><feColorMatrix
         values="0.21 7.46914 7.16049 -0.06 0 0.21 7.46914 7.16049 -0.06 0 0.21 7.46914 7.16049 -0.06 0 0 0 0 1 0 "
         id="feColorMatrix316" /></filter></defs><sodipodi:namedview
     id="namedview78"
     pagecolor="#ffffff"
     bordercolor="#666666"
     borderopacity="1.0"
     inkscape:showpageshadow="2"
     inkscape:pageopacity="0.0"
     inkscape:pagecheckerboard="0"
     inkscape:deskcolor="#d1d1d1"
     inkscape:zoom="0.67777778"
     inkscape:cx="450"
     inkscape:cy="450"
     inkscape:window-width="1512"
     inkscape:window-height="863"
     inkscape:window-x="0"
     inkscape:window-y="34"
     inkscape:window-maximized="0"
     inkscape:current-layer="svg78" /><path
     d="M0 0 C297 0 594 0 900 0 C900 214.5 900 429 900 650 C603 650 306 650 0 650 C0 435.5 0 221 0 0 Z "
     fill="#42AE96"
     transform="translate(0,0)"
     id="path1"
     style="fill:#3bafda;fill-opacity:1" /><path
     d="M0 0 C0.52029785 0.45971191 1.0405957 0.91942383 1.57666016 1.39306641 C2.10855957 1.86180176 2.64045898 2.33053711 3.18847656 2.81347656 C26.40725571 23.41134278 45.12204542 47.95358114 59.57666016 75.39306641 C59.94114258 76.07723633 60.305625 76.76140625 60.68115234 77.46630859 C72.45573026 99.8826939 79.57370773 124.48028171 83.57666016 149.39306641 C83.7374707 150.31023437 83.89828125 151.22740234 84.06396484 152.17236328 C88.86175553 179.89073342 88.22336111 209.712005 83.57666016 237.39306641 C83.46451172 238.10140625 83.35236328 238.80974609 83.23681641 239.53955078 C76.96703805 278.43539797 59.60621471 315.42270426 35.57666016 346.39306641 C34.51318359 347.77558594 34.51318359 347.77558594 33.42822266 349.18603516 C29.43300325 354.27875555 25.20979196 359.12875306 20.84228516 363.90478516 C19.37565628 365.51554825 17.92637924 367.14235626 16.49853516 368.78759766 C-23.98597436 415.19484097 -84.91289053 443.04803882 -145.82568359 447.95166016 C-178.19774045 450.09948655 -210.15853513 448.60849364 -241.42333984 439.39306641 C-242.23722168 439.1578125 -243.05110352 438.92255859 -243.88964844 438.68017578 C-270.40606756 430.87304986 -296.52617223 418.44964784 -318.11083984 401.03759766 C-320.30979924 399.47381065 -321.78613514 398.80207732 -324.42333984 398.39306641 C-324.42333984 397.40306641 -324.42333984 396.41306641 -324.42333984 395.39306641 C-324.98408203 395.14041016 -325.54482422 394.88775391 -326.12255859 394.62744141 C-368.86824782 371.69427027 -400.71501597 314.74100302 -414.26098633 270.41870117 C-417.57580837 259.19868939 -420.49138905 247.935578 -422.42333984 236.39306641 C-422.57287109 235.5174707 -422.72240234 234.641875 -422.87646484 233.73974609 C-427.76585237 203.61311047 -427.67328013 171.26451817 -421.42333984 141.39306641 C-421.14013787 139.85459936 -420.85999603 138.31556459 -420.58349609 136.77587891 C-410.50477258 83.52731837 -377.81494139 32.2023359 -336.42333984 -2.60693359 C-335.86485352 -3.08308105 -335.30636719 -3.55922852 -334.73095703 -4.04980469 C-319.18863604 -17.2537913 -302.48781042 -28.17057604 -284.42333984 -37.60693359 C-283.77703613 -37.95175781 -283.13073242 -38.29658203 -282.46484375 -38.65185547 C-260.82320016 -50.08265409 -236.47511823 -56.75960491 -212.42333984 -60.60693359 C-211.49021973 -60.76774414 -210.55709961 -60.92855469 -209.59570312 -61.09423828 C-134.43664883 -73.8375144 -56.84426046 -49.90469331 0 0 Z "
     fill="#FDFEFE"
     id="path2"
     transform="translate(619.42333984375,132.60693359375)" /><g
     id="g1040"
     transform="matrix(0.71345346,0,0,0.64422741,275.13115,145.86885)"
     style="stroke-width:3.09753963;stroke-dasharray:none"><g
       id="g1"
       transform="matrix(1.0468745,0,0,1.1655897,-5.1010267,5.8781862)"
       style="stroke-width:2.80412074;stroke-dasharray:none"><path
         d="M 0,0 C 0.33,1.98 0.66,3.96 1,6 -0.43666016,6.7096289 -0.43666016,6.7096289 -1.9023437,7.4335937 -9.0124347,10.960163 -16.073311,14.551687 -23.0625,18.3125 c -7.933716,4.259846 -16.034247,8.141861 -24.183838,11.969971 -0.93449,0.440456 -1.868979,0.880913 -2.831787,1.334716 -0.829189,0.387847 -1.658379,0.775694 -2.512695,1.175293 C -55.145014,34.072683 -57.551123,35.530325 -60,37 c -1.694049,0.725158 -3.388629,1.44924 -5.090332,2.15625 -4.301102,1.900359 -8.385215,4.267783 -12.505371,6.527344 -4.074902,2.198448 -8.097352,4.019273 -12.454834,5.578613 -3.285304,1.243355 -6.385795,2.830608 -9.511963,4.425293 -1.02601,0.517841 -1.02601,0.517841 -2.07275,1.046143 -5.41442,2.746993 -10.7741,5.592751 -16.12281,8.465087 -6.09302,3.269906 -12.18361,6.506527 -18.55444,9.203614 -3.81516,1.620829 -7.49508,3.467148 -11.1875,5.347656 -10.80654,5.441716 -21.60548,10.648205 -32.95312,14.882812 -4.22629,1.629076 -8.38245,3.399737 -12.54688,5.179688 -6.89851,2.94306 -13.851,5.68371 -20.875,8.3125 -6.93232,2.59568 -13.63571,5.39843 -20.31641,8.58984 -2.59684,1.18827 -5.17218,2.1703 -7.87109,3.09766 -6.34579,2.2117 -12.4052,5.03561 -18.5061,7.83911 -4.17771,1.91332 -8.36212,3.74337 -12.63843,5.42651 -10.10837,3.9948 -18.63608,8.64672 -25.79297,16.92188 -0.55687,0.62648 -1.11375,1.25297 -1.6875,1.89844 -1.14379,1.29735 -2.27898,2.60233 -3.40625,3.91406 -2.21571,2.54261 -4.49724,5.0186 -6.78125,7.5 -4.92066,5.40235 -9.55391,10.98847 -14.125,16.6875 -0.94751,1.16699 -1.89545,2.33364 -2.84375,3.5 -5.21566,6.43844 -10.311,12.94808 -15.21875,19.625 -0.67942,0.92281 -0.67942,0.92281 -1.37256,1.86426 -2.36577,3.24945 -4.52115,6.55235 -6.56494,10.01074 4.9454,0.1301 9.88444,0.1861 14.83154,0.177 1.67794,0.007 3.35591,0.0332 5.03321,0.0801 10.33982,0.55736 10.33982,0.55736 19.39013,-3.61011 2.52831,-2.76554 4.65267,-5.54336 6.74512,-8.64697 2.77264,-3.59397 5.47719,-6.39172 9.0625,-9.1875 0.85723,-0.67418 1.71445,-1.34836 2.59766,-2.04297 6.53799,-4.94443 13.21976,-6.80394 21.33984,-5.76953 7.5449,1.91893 13.88274,5.24213 20,10 0.91008,0.69867 1.82016,1.39734 2.75781,2.11719 8.09278,6.7256 15.19599,16.30397 16.51563,27.125 0.59762,15.4921 -8.12432,28.27828 -18.21094,39.32031 -0.84305,0.89848 -1.68609,1.79695 -2.55469,2.72266 -3.2638,3.53324 -6.28259,7.23157 -9.28906,10.98437 -1.46229,1.79954 -2.96212,3.56931 -4.5,5.30469 -10.8533,12.43297 -16.82212,25.86302 -15.94092,42.42676 0.39075,3.51584 1.47112,6.05987 3.68701,8.78808 1.64996,1.45406 1.64996,1.45406 4.66016,2.14844 14.35847,-3.47382 25.89422,-17.69022 34.98828,-28.63672 2.79179,-3.30448 5.83804,-5.98151 9.26172,-8.61328 0.60231,-0.46729 1.20463,-0.93457 1.8252,-1.41602 6.94029,-5.28274 14.334,-9.78044 21.7998,-14.27148 15.20777,-9.17613 15.20777,-9.17613 30,-19 1.09055,-0.73348 2.18109,-1.46695 3.30469,-2.22266 12.23676,-8.52656 17.99893,-20.04548 24.40625,-33.16797 17.11332,-34.78518 33.94072,-54.55786 69.60156,-70.85937 1.039629,-0.47526 2.079258,-0.95052 3.150391,-1.44019 13.554354,-6.16846 27.151859,-12.17429 41.144531,-17.28369 3.711436,-1.36318 7.313146,-2.84793 10.892578,-4.52612 4.599814,-2.14565 9.265342,-4.05137 14,-5.875 0.6954492,-0.27521 1.3908984,-0.55043 2.1074219,-0.83398 C -3.3517675,126.88274 -3.3517675,126.88274 0,128 c 0.33,2.31 0.66,4.62 1,7 -20.032228,8.77163 -20.032228,8.77163 -27.6875,11.375 -6.937627,2.39027 -13.677208,5.21241 -20.4375,8.0625 -1.084988,0.45488 -2.169976,0.90976 -3.287842,1.37842 -6.448613,2.73903 -12.737958,5.68654 -18.969238,8.89013 -2.362791,1.16785 -4.717641,2.17273 -7.18042,3.10645 -24.44322,9.53207 -41.3281,21.5399 -53.4375,45.1875 -0.33,0.99 -0.66,1.98 -1,3 0.76055,0.24363 1.52109,0.48727 2.30469,0.73828 3.07832,1.44102 4.02935,2.6062 5.82031,5.44922 0.47695,0.73605 0.95391,1.47211 1.44531,2.23047 17.76654,32.08657 12.6675,76.66784 8.40235,111.6289 -0.12356,1.0353 -0.12356,1.0353 -0.24961,2.09151 -0.60372,4.74229 -0.60372,4.74229 -1.72305,5.86162 -0.30938,1.82531 -0.30938,1.82531 -0.625,3.6875 -1.83884,8.59967 -5.92835,18.32834 -13.375,23.3125 -4.02619,1.34206 -7.90675,1.14804 -12.10541,1.14717 -0.94345,0.004 -1.88689,0.007 -2.85893,0.0111 -3.17563,0.0111 -6.35123,0.0149 -9.52687,0.0187 -2.27164,0.006 -4.54329,0.0129 -6.81493,0.0199 -7.47607,0.0211 -14.95214,0.0314 -22.42823,0.0414 -2.57487,0.004 -5.14973,0.008 -7.72459,0.0124 -10.71618,0.0169 -21.43235,0.0315 -32.14853,0.0387 -2.78107,0.002 -5.56213,0.004 -8.34319,0.006 -0.69119,4.8e-4 -1.38237,9.6e-4 -2.09449,0.001 -11.17359,0.008 -22.34707,0.0336 -33.5206,0.0661 -11.48676,0.0332 -22.97343,0.0508 -34.46024,0.0543 -6.4431,0.002 -12.88603,0.0113 -19.32908,0.0365 -6.07063,0.0234 -12.14098,0.0275 -18.21164,0.0172 -2.21904,-4.9e-4 -4.43809,0.006 -6.65709,0.0196 -11.03734,0.0647 -21.10682,-0.14858 -31.67641,-3.53415 -3.18046,-0.98102 -6.24272,-1.51293 -9.53727,-1.95613 -6.93449,-1.15111 -11.39315,-2.02113 -15.6875,-7.91797 -7.15501,-11.39646 -10.12011,-23.39413 -11.48047,-36.64844 -0.28824,-3.21483 -0.28824,-3.21483 -0.91011,-5.41291 -0.81445,-3.39733 -0.64742,-6.86894 -0.65239,-10.3449 -0.003,-0.81967 -0.007,-1.63933 -0.0101,-2.48384 -0.005,-1.74081 -0.007,-3.48164 -0.007,-5.22246 -0.002,-2.60263 -0.0202,-5.20481 -0.0393,-7.80737 -0.0362,-10.87309 0.70803,-21.39947 2.22461,-32.16211 0.14518,-1.1401 0.29036,-2.28019 0.43994,-3.45483 1.40368,-10.76676 5.59273,-22.89191 13.6521,-30.5271 3.47545,-2.4119 6.77155,-3.20817 10.84155,-4.02588 1.5518,-0.34995 3.10322,-0.70157 4.6543,-1.05469 2.42368,-0.53745 4.84789,-1.06215 7.28052,-1.55762 9.47965,-1.66983 9.47965,-1.66983 17.37012,-6.64599 1.48731,-2.52107 2.62865,-5.03833 3.76147,-7.73389 0.87426,-1.33437 1.79127,-2.64198 2.75391,-3.91406 0.45504,-0.60731 0.91007,-1.21462 1.3789,-1.84033 0.4718,-0.6173 0.9436,-1.2346 1.42969,-1.87061 0.51176,-0.67531 1.02352,-1.35062 1.55078,-2.04639 5.78604,-7.5855 11.78547,-14.99441 17.88648,-22.3284 0.49468,-0.59522 0.98936,-1.19045 1.49902,-1.80371 6.4686,-7.74763 13.20895,-15.20123 20.1626,-22.5166 0.59249,-0.62391 1.18497,-1.24782 1.79541,-1.89063 0.58814,-0.6173 1.17627,-1.2346 1.78223,-1.8706 1.82404,-1.98743 3.51959,-4.05451 5.2334,-6.13721 3.30234,-3.79638 6.59273,-5.8767 11.15234,-7.90625 0.69585,-0.32782 1.3917,-0.65565 2.10864,-0.99341 1.41284,-0.66277 2.82958,-1.31731 4.25025,-1.96313 1.83954,-0.83802 3.66502,-1.70675 5.48877,-2.57862 6.26233,-2.97518 12.60039,-5.56254 19.08984,-7.99609 3.80293,-1.4866 7.52227,-3.11746 11.25,-4.78125 5.29429,-2.35837 10.61609,-4.51887 16.0625,-6.5 6.67364,-2.43112 13.13131,-5.232288 19.60034,-8.160645 5.53917,-2.496814 11.11925,-4.747729 16.81372,-6.870605 2.30202,-0.875697 4.5335,-1.82302 6.77344,-2.84375 C -184,86 -184,86 -180,86 c 0,-0.66 0,-1.32 0,-2 0.89719,-0.340312 1.79438,-0.680625 2.71875,-1.03125 9.02294,-3.481938 17.63663,-7.499272 26.23438,-11.918945 3.48448,-1.787131 6.98417,-3.543699 10.48437,-5.299805 0.62576,-0.316948 1.25152,-0.633896 1.89624,-0.960449 3.21743,-1.617846 6.45339,-3.148122 9.7561,-4.584473 5.17664,-2.292503 10.23179,-4.802716 15.28907,-7.345703 0.97033,-0.485876 1.94067,-0.971752 2.94041,-1.472351 3.08201,-1.543781 6.16262,-3.090336 9.24318,-4.637024 2.03962,-1.022323 4.079333,-2.04446 6.119141,-3.066406 7.399327,-3.707789 14.797973,-7.416926 22.193115,-11.133057 1.437565,-0.721306 2.875145,-1.442581 4.312744,-2.163818 0.635835,-0.320151 1.27167,-0.640302 1.926773,-0.970154 3.073682,-1.540762 6.156149,-3.015278 9.323227,-4.354065 5.284649,-2.26923 10.308103,-5.065152 15.361084,-7.80249 3.198165,-1.721805 6.350913,-3.324056 9.693604,-4.756104 C -28.367587,10.728865 -24.457429,8.6450825 -20.5,6.5 -5.2683924,-1.7561308 -5.2683924,-1.7561308 0,0 Z"
         fill="#f2f2f4"
         transform="matrix(1.2610275,0,0,1.1104931,488.24674,17.946936)"
         id="path2-8"
         style="stroke-width:2.36960795;filter:url(#filter309);stroke-dasharray:none" /><path
         d="M 0,0 C 0.33,1.98 0.66,3.96 1,6 -0.43666016,6.7096289 -0.43666016,6.7096289 -1.9023437,7.4335937 -9.0124347,10.960163 -16.073311,14.551687 -23.0625,18.3125 c -7.933716,4.259846 -16.034247,8.141861 -24.183838,11.969971 -0.93449,0.440456 -1.868979,0.880913 -2.831787,1.334716 -0.829189,0.387847 -1.658379,0.775694 -2.512695,1.175293 C -55.145014,34.072683 -57.551123,35.530325 -60,37 c -1.694049,0.725158 -3.388629,1.44924 -5.090332,2.15625 -4.301102,1.900359 -8.385215,4.267783 -12.505371,6.527344 -4.074902,2.198448 -8.097352,4.019273 -12.454834,5.578613 -3.285304,1.243355 -6.385795,2.830608 -9.511963,4.425293 -1.02601,0.517841 -1.02601,0.517841 -2.07275,1.046143 -5.41442,2.746993 -10.7741,5.592751 -16.12281,8.465087 -6.09302,3.269906 -12.18361,6.506527 -18.55444,9.203614 -3.81516,1.620829 -7.49508,3.467148 -11.1875,5.347656 -10.80654,5.441716 -21.60548,10.648205 -32.95312,14.882812 -4.22629,1.629076 -8.38245,3.399737 -12.54688,5.179688 -6.89851,2.94306 -13.851,5.68371 -20.875,8.3125 -6.93232,2.59568 -13.63571,5.39843 -20.31641,8.58984 -2.59684,1.18827 -5.17218,2.1703 -7.87109,3.09766 -6.34579,2.2117 -12.4052,5.03561 -18.5061,7.83911 -4.17771,1.91332 -8.36212,3.74337 -12.63843,5.42651 -10.10837,3.9948 -18.63608,8.64672 -25.79297,16.92188 -0.55687,0.62648 -1.11375,1.25297 -1.6875,1.89844 -1.14379,1.29735 -2.27898,2.60233 -3.40625,3.91406 -2.21571,2.54261 -4.49724,5.0186 -6.78125,7.5 -4.92066,5.40235 -9.55391,10.98847 -14.125,16.6875 -0.94751,1.16699 -1.89545,2.33364 -2.84375,3.5 -5.21566,6.43844 -10.311,12.94808 -15.21875,19.625 -0.67942,0.92281 -0.67942,0.92281 -1.37256,1.86426 -2.36577,3.24945 -4.52115,6.55235 -6.56494,10.01074 4.9454,0.1301 9.88444,0.1861 14.83154,0.177 1.67794,0.007 3.35591,0.0332 5.03321,0.0801 10.33982,0.55736 10.33982,0.55736 19.39013,-3.61011 2.52831,-2.76554 4.65267,-5.54336 6.74512,-8.64697 2.77264,-3.59397 5.47719,-6.39172 9.0625,-9.1875 0.85723,-0.67418 1.71445,-1.34836 2.59766,-2.04297 6.53799,-4.94443 13.21976,-6.80394 21.33984,-5.76953 7.5449,1.91893 13.88274,5.24213 20,10 0.91008,0.69867 1.82016,1.39734 2.75781,2.11719 8.09278,6.7256 15.19599,16.30397 16.51563,27.125 0.59762,15.4921 -8.12432,28.27828 -18.21094,39.32031 -0.84305,0.89848 -1.68609,1.79695 -2.55469,2.72266 -3.2638,3.53324 -6.28259,7.23157 -9.28906,10.98437 -1.46229,1.79954 -2.96212,3.56931 -4.5,5.30469 -10.8533,12.43297 -16.82212,25.86302 -15.94092,42.42676 0.39075,3.51584 1.47112,6.05987 3.68701,8.78808 1.64996,1.45406 1.64996,1.45406 4.66016,2.14844 14.35847,-3.47382 25.89422,-17.69022 34.98828,-28.63672 2.79179,-3.30448 5.83804,-5.98151 9.26172,-8.61328 0.60231,-0.46729 1.20463,-0.93457 1.8252,-1.41602 6.94029,-5.28274 14.334,-9.78044 21.7998,-14.27148 15.20777,-9.17613 15.20777,-9.17613 30,-19 1.09055,-0.73348 2.18109,-1.46695 3.30469,-2.22266 12.23676,-8.52656 17.99893,-20.04548 24.40625,-33.16797 17.11332,-34.78518 33.94072,-54.55786 69.60156,-70.85937 1.039629,-0.47526 2.079258,-0.95052 3.150391,-1.44019 13.554354,-6.16846 27.151859,-12.17429 41.144531,-17.28369 3.711436,-1.36318 7.313146,-2.84793 10.892578,-4.52612 4.599814,-2.14565 9.265342,-4.05137 14,-5.875 0.6954492,-0.27521 1.3908984,-0.55043 2.1074219,-0.83398 C -3.3517675,126.88274 -3.3517675,126.88274 0,128 c 0.33,2.31 0.66,4.62 1,7 -20.032228,8.77163 -20.032228,8.77163 -27.6875,11.375 -6.937627,2.39027 -13.677208,5.21241 -20.4375,8.0625 -1.084988,0.45488 -2.169976,0.90976 -3.287842,1.37842 -6.448613,2.73903 -12.737958,5.68654 -18.969238,8.89013 -2.362791,1.16785 -4.717641,2.17273 -7.18042,3.10645 -24.44322,9.53207 -41.3281,21.5399 -53.4375,45.1875 -0.33,0.99 -0.66,1.98 -1,3 0.76055,0.24363 1.52109,0.48727 2.30469,0.73828 3.07832,1.44102 4.02935,2.6062 5.82031,5.44922 0.47695,0.73605 0.95391,1.47211 1.44531,2.23047 17.76654,32.08657 12.6675,76.66784 8.40235,111.6289 -0.12356,1.0353 -0.12356,1.0353 -0.24961,2.09151 -0.60372,4.74229 -0.60372,4.74229 -1.72305,5.86162 -0.30938,1.82531 -0.30938,1.82531 -0.625,3.6875 -1.83884,8.59967 -5.92835,18.32834 -13.375,23.3125 -4.02619,1.34206 -7.90675,1.14804 -12.10541,1.14717 -0.94345,0.004 -1.88689,0.007 -2.85893,0.0111 -3.17563,0.0111 -6.35123,0.0149 -9.52687,0.0187 -2.27164,0.006 -4.54329,0.0129 -6.81493,0.0199 -7.47607,0.0211 -14.95214,0.0314 -22.42823,0.0414 -2.57487,0.004 -5.14973,0.008 -7.72459,0.0124 -10.71618,0.0169 -21.43235,0.0315 -32.14853,0.0387 -2.78107,0.002 -5.56213,0.004 -8.34319,0.006 -0.69119,4.8e-4 -1.38237,9.6e-4 -2.09449,0.001 -11.17359,0.008 -22.34707,0.0336 -33.5206,0.0661 -11.48676,0.0332 -22.97343,0.0508 -34.46024,0.0543 -6.4431,0.002 -12.88603,0.0113 -19.32908,0.0365 -6.07063,0.0234 -12.14098,0.0275 -18.21164,0.0172 -2.21904,-4.9e-4 -4.43809,0.006 -6.65709,0.0196 -11.03734,0.0647 -21.10682,-0.14858 -31.67641,-3.53415 -3.18046,-0.98102 -6.24272,-1.51293 -9.53727,-1.95613 -6.93449,-1.15111 -11.39315,-2.02113 -15.6875,-7.91797 -7.15501,-11.39646 -10.12011,-23.39413 -11.48047,-36.64844 -0.28824,-3.21483 -0.28824,-3.21483 -0.91011,-5.41291 -0.81445,-3.39733 -0.64742,-6.86894 -0.65239,-10.3449 -0.003,-0.81967 -0.007,-1.63933 -0.0101,-2.48384 -0.005,-1.74081 -0.007,-3.48164 -0.007,-5.22246 -0.002,-2.60263 -0.0202,-5.20481 -0.0393,-7.80737 -0.0362,-10.87309 0.70803,-21.39947 2.22461,-32.16211 0.14518,-1.1401 0.29036,-2.28019 0.43994,-3.45483 1.40368,-10.76676 5.59273,-22.89191 13.6521,-30.5271 3.47545,-2.4119 6.77155,-3.20817 10.84155,-4.02588 1.5518,-0.34995 3.10322,-0.70157 4.6543,-1.05469 2.42368,-0.53745 4.84789,-1.06215 7.28052,-1.55762 9.47965,-1.66983 9.47965,-1.66983 17.37012,-6.64599 1.48731,-2.52107 2.62865,-5.03833 3.76147,-7.73389 0.87426,-1.33437 1.79127,-2.64198 2.75391,-3.91406 0.45504,-0.60731 0.91007,-1.21462 1.3789,-1.84033 0.4718,-0.6173 0.9436,-1.2346 1.42969,-1.87061 0.51176,-0.67531 1.02352,-1.35062 1.55078,-2.04639 5.78604,-7.5855 11.78547,-14.99441 17.88648,-22.3284 0.49468,-0.59522 0.98936,-1.19045 1.49902,-1.80371 6.4686,-7.74763 13.20895,-15.20123 20.1626,-22.5166 0.59249,-0.62391 1.18497,-1.24782 1.79541,-1.89063 0.58814,-0.6173 1.17627,-1.2346 1.78223,-1.8706 1.82404,-1.98743 3.51959,-4.05451 5.2334,-6.13721 3.30234,-3.79638 6.59273,-5.8767 11.15234,-7.90625 0.69585,-0.32782 1.3917,-0.65565 2.10864,-0.99341 1.41284,-0.66277 2.82958,-1.31731 4.25025,-1.96313 1.83954,-0.83802 3.66502,-1.70675 5.48877,-2.57862 6.26233,-2.97518 12.60039,-5.56254 19.08984,-7.99609 3.80293,-1.4866 7.52227,-3.11746 11.25,-4.78125 5.29429,-2.35837 10.61609,-4.51887 16.0625,-6.5 6.67364,-2.43112 13.13131,-5.232288 19.60034,-8.160645 5.53917,-2.496814 11.11925,-4.747729 16.81372,-6.870605 2.30202,-0.875697 4.5335,-1.82302 6.77344,-2.84375 C -184,86 -184,86 -180,86 c 0,-0.66 0,-1.32 0,-2 0.89719,-0.340312 1.79438,-0.680625 2.71875,-1.03125 9.02294,-3.481938 17.63663,-7.499272 26.23438,-11.918945 3.48448,-1.787131 6.98417,-3.543699 10.48437,-5.299805 0.62576,-0.316948 1.25152,-0.633896 1.89624,-0.960449 3.21743,-1.617846 6.45339,-3.148122 9.7561,-4.584473 5.17664,-2.292503 10.23179,-4.802716 15.28907,-7.345703 0.97033,-0.485876 1.94067,-0.971752 2.94041,-1.472351 3.08201,-1.543781 6.16262,-3.090336 9.24318,-4.637024 2.03962,-1.022323 4.079333,-2.04446 6.119141,-3.066406 7.399327,-3.707789 14.797973,-7.416926 22.193115,-11.133057 1.437565,-0.721306 2.875145,-1.442581 4.312744,-2.163818 0.635835,-0.320151 1.27167,-0.640302 1.926773,-0.970154 3.073682,-1.540762 6.156149,-3.015278 9.323227,-4.354065 5.284649,-2.26923 10.308103,-5.065152 15.361084,-7.80249 3.198165,-1.721805 6.350913,-3.324056 9.693604,-4.756104 C -28.367587,10.728865 -24.457429,8.6450825 -20.5,6.5 -5.2683924,-1.7561308 -5.2683924,-1.7561308 0,0 Z m -382,228 c 1.2639,3.96062 2.72983,7.71228 4.4375,11.5 2.79678,6.66292 4.38834,13.38982 5.5625,20.5 0.17136,0.98525 0.34273,1.97049 0.51929,2.9856 1.36188,8.48326 1.7631,16.77928 1.68652,25.3457 -0.0183,2.10128 -0.0205,4.20211 -0.0203,6.30347 -0.0302,12.30675 -0.12265,24.73039 -3.06055,36.74023 -0.17563,0.75749 -0.35127,1.51497 -0.53223,2.29541 -0.94188,3.9684 -2.01018,7.84643 -3.34277,11.70459 -1.46733,3.61617 -1.46733,3.61617 -1.25,7.625 -0.66,0 -1.32,0 -2,0 -0.33,1.98 -0.66,3.96 -1,6 14.2359,4.56233 27.22591,5.71879 42.11499,5.6311 2.25245,0.005 4.50489,0.0125 6.75732,0.0217 6.05489,0.0183 12.10934,0.006 18.16421,-0.0141 6.35486,-0.0165 12.7097,-0.008 19.06457,-0.002 10.65071,0.005 21.30123,-0.0112 31.95189,-0.0393 10.94994,-0.0289 21.89964,-0.0359 32.84961,-0.0205 13.23606,0.0185 26.47198,0.0168 39.70805,-0.002 5.0458,-0.007 10.09151,-0.006 15.13731,0.002 5.92723,0.008 11.8541,-0.004 17.78126,-0.0319 2.17689,-0.007 4.35382,-0.007 6.53071,2.1e-4 2.9648,0.009 5.92848,-0.007 8.89319,-0.0294 1.29962,0.0124 1.29962,0.0124 2.6255,0.025 4.81878,-0.0517 4.81878,-0.0517 8.92125,-2.43704 2.64693,-3.70995 3.7244,-7.78413 5.06264,-12.1026 0.29068,-0.86367 0.58137,-1.72734 0.88086,-2.61719 5.28439,-16.69254 6.09408,-33.92444 6.05762,-51.30786 -9.7e-4,-3.24269 0.0408,-6.48299 0.085,-9.72534 0.0867,-15.29849 -2.01015,-29.49645 -5.58594,-44.34961 -0.24806,-1.07599 -0.49613,-2.15199 -0.75171,-3.26059 -0.3791,-1.6 -0.3791,-1.6 -0.76587,-3.23233 -0.22691,-0.96524 -0.45383,-1.93048 -0.68762,-2.92497 -1.20995,-3.93083 -2.67166,-5.90513 -5.7948,-8.58211 -2.60972,-0.1879 -2.60972,-0.1879 -5,0 -0.39268,0.77602 -0.78536,1.55203 -1.18994,2.35156 -1.48123,2.91805 -2.9693,5.8324 -4.46192,8.74463 -0.64073,1.2535 -1.27882,2.50835 -1.91406,3.76465 -6.9414,13.71884 -14.59199,24.15303 -27.30908,32.95166 -0.73251,0.51208 -1.46502,1.02416 -2.21973,1.55176 -7.10155,4.895 -14.49187,9.23366 -21.96972,13.52148 -17.41288,10.02427 -32.8729,20.78843 -46.08008,36.02051 -8.87131,10.01057 -19.64519,21.71616 -33.73047,22.59375 -2.86426,-0.0421 -4.56117,-0.12969 -6.96875,-1.71094 -6.64497,-7.22132 -9.69218,-17.75644 -9.55078,-27.41015 2.43682,-20.86982 17.11573,-37.1861 30.80469,-51.98438 4.29339,-4.6417 8.24277,-9.41374 11.96484,-14.51953 0.41717,-0.56203 0.83435,-1.12406 1.26416,-1.70313 4.32551,-6.07088 6.54552,-11.40003 6.43652,-18.93798 -0.0164,-1.47378 -0.0164,-1.47378 -0.0331,-2.97733 -0.0141,-0.74466 -0.0281,-1.48933 -0.0426,-2.25656 -15.33514,-0.0705 -30.67028,-0.12317 -46.00555,-0.15544 -7.12239,-0.0154 -14.24468,-0.0363 -21.36701,-0.0709 -6.21663,-0.0302 -12.43319,-0.0493 -18.64989,-0.056 -3.28374,-0.004 -6.56722,-0.0144 -9.8509,-0.0349 C -360.42395,222.64782 -360.42395,222.64782 -382,228 Z"
         fill="#0b0b0b"
         transform="matrix(1.2610275,0,0,1.1104931,488.24674,17.946936)"
         id="path3"
         style="stroke-width:2.36960795;filter:url(#filter310);stroke-dasharray:none" /><path
         d="m 0,0 c 2.3085938,0.18359375 2.3085938,0.18359375 5,1 11.508888,14.975094 10.783389,36.185643 11,54 0.02046,1.161929 0.04093,2.323857 0.06201,3.520996 C 16.847067,105.31939 16.847067,105.31939 4,125 c -2.3710938,-0.32031 -2.3710938,-0.32031 -5,-1 -1.706035,-2.37811 -2.8215834,-4.36282 -4,-7 -0.3403125,-0.70512 -0.680625,-1.41023 -1.03125,-2.13672 -6.709082,-15.78159 -6.467432,-34.706056 -6.359863,-51.559813 0.01617,-3.000702 -1.3e-5,-6.000069 -0.01904,-9.000733 C -12.430295,36.315735 -12.328825,14.396717 0,0 Z"
         fill="#efeff1"
         transform="matrix(1.2610275,0,0,1.1104931,-8.5981064,274.47083)"
         id="path4"
         style="fill:#98a1f9;fill-opacity:1;stroke-width:2.36960795;filter:url(#filter311);stroke-dasharray:none" /><path
         d="M 0,0 C 1.7692383,0.01353516 1.7692383,0.01353516 3.5742188,0.02734375 4.4778516,0.03894531 5.3814844,0.05054688 6.3125,0.0625 c 0,4.017449 -1.4071722,4.8617473 -4.125,7.75 -3.2643412,3.41497 -3.2643412,3.41497 -6.1713867,7.123291 -3.4825577,4.825341 -3.4825577,4.825341 -6.9609373,5.683838 -2.574011,0.131002 -5.046793,0.05654 -7.617676,-0.119629 -0.879141,-0.03158 -1.758281,-0.06316 -2.664062,-0.0957 -2.155099,-0.08199 -4.308464,-0.207534 -6.460938,-0.341797 3.911739,-8.071693 10.610511,-14.059353 18,-19 C -6.2651703,-0.07827657 -3.6007678,-0.03565117 0,0 Z"
         fill="#efeff1"
         transform="matrix(1.2610275,0,0,1.1104931,141.07009,234.42368)"
         id="path5"
         style="stroke-width:2.36960795;filter:url(#filter312);stroke-dasharray:none" /><path
         d="M 0,0 C 4.708262,1.384783 8.2216069,3.9658918 11,8 10.94163,10.626712 10.888937,12.111063 9,14 7.4382725,14.08686 5.8727066,14.107022 4.3085937,14.09766 3.3643555,14.09446 2.4201172,14.09126 1.4472656,14.08786 0.45404297,14.07946 -0.53917969,14.0711 -1.5625,14.06247 -2.5595898,14.05797 -3.5566797,14.05347 -4.5839844,14.0488 -7.0560485,14.037 -9.5279952,14.020518 -12,14 -8,9.3333333 -4,4.6666667 0,0 Z"
         fill="#ebebed"
         transform="matrix(1.2610275,0,0,1.1104931,159.11856,241.15604)"
         id="path6"
         style="stroke-width:2.36960795;filter:url(#filter313);stroke-dasharray:none" /><path
         d="m 0,0 c 0.66,0.33 1.32,0.66 2,1 -5.28,5.28 -10.56,10.56 -16,16 0,-4.04393 1.480913,-5.001316 4.1875,-7.9375 C -9.0351953,8.2078516 -8.2578906,7.3532031 -7.4570312,6.4726562 -5.0978633,4.0984857 -2.6553273,2.0327639 0,0 Z"
         fill="#cfcfd0"
         transform="matrix(1.2610275,0,0,1.1104931,125.07081,237.82456)"
         id="path8"
         style="stroke-width:2.36960795;filter:url(#filter315);stroke-dasharray:none" /></g></g></svg>
